STARTFONT 2.1
COMMENT
COMMENT Converted from OpenType font "Patriot-Normal.otf" by "otf2bdf 3.0".
COMMENT
FONT -FreeType-Patriot Normal-Medium-R-Normal--66-480-100-100-P-311-ISO10646-1
SIZE 48 100 100
FONTBOUNDINGBOX 103 87 -23 -18
STARTPROPERTIES 19
FOUNDRY "FreeType"
FAMILY_NAME "Patriot Normal"
WEIGHT_NAME "Medium"
SLANT "R"
SETWIDTH_NAME "Normal"
ADD_STYLE_NAME ""
PIXEL_SIZE 66
POINT_SIZE 480
RESOLUTION_X 100
RESOLUTION_Y 100
SPACING "P"
AVERAGE_WIDTH 311
CHARSET_REGISTRY "ISO10646"
CHARSET_ENCODING "1"
FONT_ASCENT 67
FONT_DESCENT 13
COPYRIGHT "Copyright © 2020 by Behalf Studio. All rights reserved."
_OTF_FONTFILE "Patriot-Normal.otf"
_OTF_PSNAME "Patriot-Normal"
ENDPROPERTIES
CHARS 426
STARTCHAR 0020
ENCODING 32
SWIDTH 345 0
DWIDTH 23 0
BBX 0 0 0 0
BITMAP
ENDCHAR
STARTCHAR 0021
ENCODING 33
SWIDTH 240 0
DWIDTH 16 0
BBX 10 48 3 -1
BITMAP
1E00
1E00
1E00
1E00
1E00
1E00
1E00
1E00
1E00
1E00
1E00
1E00
1E00
1E00
1E00
1E00
1E00
1E00
1E00
1E00
1E00
1E00
1E00
1E00
1E00
1E00
1E00
1E00
1E00
1E00
1E00
0000
0000
0000
0000
0000
0000
0000
0000
3F00
7F80
7F80
7FC0
FFC0
7FC0
7F80
3F00
0C00
ENDCHAR
STARTCHAR 0022
ENCODING 34
SWIDTH 285 0
DWIDTH 19 0
BBX 12 15 4 32
BITMAP
F0F0
F0F0
F0F0
F0F0
F0F0
F0F0
F0F0
F0F0
F0F0
F0F0
F0F0
F0F0
F0F0
F0F0
F0F0
ENDCHAR
STARTCHAR 0023
ENCODING 35
SWIDTH 615 0
DWIDTH 41 0
BBX 35 47 3 0
BITMAP
000F001E00
001F001E00
001E003E00
001E003E00
001E003C00
001E003C00
001E003C00
001E003C00
003E003C00
003C003C00
003C007C00
003C007800
003C007800
003C007800
003C007800
3FFFFFFFE0
3FFFFFFFE0
3FFFFFFFE0
3FFFFFFFE0
007800F000
007800F000
007800F000
00F800F000
00F800F000
00F001F000
00F001E000
00F001E000
00F001E000
00F001E000
01F001E000
FFFFFFFF80
FFFFFFFF80
FFFFFFFF80
FFFFFFFF80
01E003C000
01E003C000
01E003C000
03E003C000
03C007C000
03C0078000
03C0078000
03C0078000
03C0078000
03C0078000
07C0078000
07800F8000
07800F0000
ENDCHAR
STARTCHAR 0024
ENCODING 36
SWIDTH 525 0
DWIDTH 35 0
BBX 29 59 3 -6
BITMAP
00078000
00078000
00078000
00078000
00078000
000FC000
007FF800
01FFFE00
03FFFF00
07FFFF80
0FF3BFC0
0FC38FC0
1F8387E0
1F0383E0
1F0383E0
1F0381F0
1F0381F0
1F0381C0
1F038000
1F838000
0F838000
0FC38000
07E38000
07FB8000
03FF8000
01FF8000
007FC000
003FE000
000FF800
0007FC00
0003FF00
0003FF80
0003BFC0
00038FE0
000387E0
000383F0
000381F0
000381F8
000380F8
000380F8
180380F8
FC0380F8
7C0380F8
7C0380F8
7E0381F8
3E0381F0
3F0383F0
1F8387F0
1FE39FE0
0FFFFFC0
07FFFF80
01FFFF00
00FFFC00
001FE000
00078000
00078000
00078000
00078000
00078000
ENDCHAR
STARTCHAR 0025
ENCODING 37
SWIDTH 840 0
DWIDTH 56 0
BBX 50 49 3 -1
BITMAP
007C0000000000
01FF800001F000
07FFE00003E000
0FFFF00003C000
1FC3F80007C000
3F00F8000F8000
3E007C000F0000
7C003C001F0000
78003E003E0000
78003E003C0000
F8001E00780000
F8001E00F80000
F8001E01F00000
78003E01E00000
78003E03E00000
7C007C07C00000
3E007C07800000
3F01F80F800000
1FC7F81F000000
0FFFF01E000000
07FFC03C000000
01FF807C000000
000000F8000000
000000F0000000
000001F0000000
000003E0000000
000003C0000000
000007C03FE000
00000F80FFF800
00000F01FFFC00
00001E03FFFE00
00003E07E03F00
00007C07C01F80
0000780F800F80
0000F80F000780
0001F00F0007C0
0001E01F0007C0
0003E01F0007C0
0007C01F0007C0
0007801F0007C0
000F000F0007C0
001F000F800780
003E000F800F80
003C0007C01F00
007C0007F07F00
00F80003FFFE00
00F00001FFFC00
01F000007FF000
000000001FC000
ENDCHAR
STARTCHAR 0026
ENCODING 38
SWIDTH 645 0
DWIDTH 43 0
BBX 37 48 3 -1
BITMAP
003FF00000
00FFFC0000
01FFFF0000
03FFFF8000
07F87FC000
0FE00FE000
0F8007F000
1F8003F000
1F0001E000
1F0000C000
3E00008000
3E00000000
3E00000000
3E00000000
1F00000000
1F00000000
1F80000000
0F80000000
0FE0000000
07FC000000
03FFFFFFF8
01FFFFFFF8
03FFFFFFF8
07FFFFFFF8
0FFC000F80
1FC0000F80
3F80000F80
3F00000F80
7E00000F80
7C00000F80
7C00000F80
7C00001F80
FC00001F00
FC00001F00
FC00001F00
7C00003F00
7C00003E00
7E00007E00
7E00007C00
3F0000FC00
3F8001F800
1FC007F000
0FF81FF000
07FFFFE000
03FFFFC000
01FFFF0000
007FFC0000
0003C00000
ENDCHAR
STARTCHAR 0027
ENCODING 39
SWIDTH 150 0
DWIDTH 10 0
BBX 4 15 3 32
BITMAP
F0
F0
F0
F0
F0
F0
F0
F0
F0
F0
F0
F0
F0
F0
F0
ENDCHAR
STARTCHAR 0028
ENCODING 40
SWIDTH 300 0
DWIDTH 20 0
BBX 14 62 3 -9
BITMAP
0010
0038
007C
007C
00F8
00F0
01F0
03E0
03E0
07C0
07C0
0780
0F80
0F00
1F00
1E00
1E00
3E00
3C00
3C00
3C00
7C00
7800
7800
7800
7800
7800
7800
7800
F800
F800
F800
F800
7800
7800
7800
7800
7800
7800
7800
7C00
3C00
3C00
3C00
3E00
1E00
1E00
1F00
0F00
0F80
0780
07C0
07C0
03E0
03E0
01F0
00F0
00F8
007C
007C
0038
0010
ENDCHAR
STARTCHAR 0029
ENCODING 41
SWIDTH 300 0
DWIDTH 20 0
BBX 13 62 4 -9
BITMAP
2000
7000
F000
F800
7C00
3C00
3E00
1E00
1F00
0F00
0F80
0780
07C0
03C0
03E0
01E0
01E0
01F0
00F0
00F0
00F0
00F8
0078
0078
0078
0078
0078
0078
0078
0078
0078
0078
0078
0078
0078
0078
0078
0078
0078
0078
00F0
00F0
00F0
00F0
01F0
01E0
01E0
03E0
03C0
07C0
0780
0F80
0F00
1F00
1E00
3E00
3C00
7C00
F800
F000
7000
2000
ENDCHAR
STARTCHAR 002A
ENCODING 42
SWIDTH 450 0
DWIDTH 30 0
BBX 24 23 3 25
BITMAP
001800
003C00
007E00
007E00
007E00
007E00
007E00
7C3C3E
7F3CFE
FF9DFF
7FFFFE
3FFFFE
1FFFF8
003E00
00FF00
01F780
03E7C0
07E7E0
0FE7F0
0FC3F0
0FC1F0
0F81F0
020040
ENDCHAR
STARTCHAR 002B
ENCODING 43
SWIDTH 540 0
DWIDTH 36 0
BBX 30 30 3 7
BITMAP
0007C000
0007C000
0007C000
0007C000
0007C000
0007C000
0007C000
0007C000
0007C000
0007C000
0007C000
0007C000
0007C000
FFFFFFFC
FFFFFFFC
FFFFFFFC
FFFFFFFC
0007C000
0007C000
0007C000
0007C000
0007C000
0007C000
0007C000
0007C000
0007C000
0007C000
0007C000
0007C000
0007C000
ENDCHAR
STARTCHAR 002C
ENCODING 44
SWIDTH 255 0
DWIDTH 17 0
BBX 9 13 4 -8
BITMAP
0F80
0F80
1F00
1F00
1E00
3E00
3C00
7C00
7800
7800
F000
E000
E000
ENDCHAR
STARTCHAR 002D
ENCODING 45
SWIDTH 435 0
DWIDTH 29 0
BBX 23 4 3 13
BITMAP
FFFFFE
FFFFFE
FFFFFE
FFFFFE
ENDCHAR
STARTCHAR 002E
ENCODING 46
SWIDTH 240 0
DWIDTH 16 0
BBX 10 9 3 -1
BITMAP
3F00
7F80
7F80
7FC0
FFC0
7FC0
7F80
3F00
0C00
ENDCHAR
STARTCHAR 002F
ENCODING 47
SWIDTH 375 0
DWIDTH 25 0
BBX 18 49 4 -1
BITMAP
0007C0
000780
000780
000780
000F00
000F00
000F00
001F00
001E00
001E00
001E00
003C00
003C00
003C00
007C00
007800
007800
007800
00F000
00F000
00F000
01F000
01E000
01E000
01E000
03C000
03C000
03C000
07C000
078000
078000
0F8000
0F0000
0F0000
0F0000
1F0000
1E0000
1E0000
3E0000
3C0000
3C0000
3C0000
7C0000
780000
780000
F80000
F00000
F00000
F00000
ENDCHAR
STARTCHAR 0030
ENCODING 48
SWIDTH 690 0
DWIDTH 46 0
BBX 42 49 2 -1
BITMAP
00001E000000
0003FFF00000
000FFFFE0000
003FFFFF0000
00FFFFFFC000
01FF803FE000
03FC000FF000
07F80003F800
07E00001FC00
0FC00000FC00
1F8000007E00
1F0000003F00
3F0000001F00
3E0000001F80
3E0000000F80
7C0000000F80
7C0000000F80
7C00000007C0
7800000007C0
F800000007C0
F800000007C0
F800000007C0
F800000007C0
F800000003C0
F800000003C0
F800000003C0
F800000003C0
F800000007C0
F800000007C0
F800000007C0
7800000007C0
7C00000007C0
7C00000007C0
7C0000000F80
3E0000000F80
3E0000001F80
3F0000001F00
1F0000003F00
1F8000007E00
0FC000007E00
0FE00000FC00
07F00003F800
03FC0007F000
01FF001FE000
00FFFBFFC000
003FFFFF8000
001FFFFE0000
0007FFF80000
00007FC00000
ENDCHAR
STARTCHAR 0031
ENCODING 49
SWIDTH 270 0
DWIDTH 18 0
BBX 12 47 3 0
BITMAP
01F0
01F0
01F0
01F0
FFF0
FFF0
FFF0
FFF0
FFF0
01F0
01F0
01F0
01F0
01F0
01F0
01F0
01F0
01F0
01F0
01F0
01F0
01F0
01F0
01F0
01F0
01F0
01F0
01F0
01F0
01F0
01F0
01F0
01F0
01F0
01F0
01F0
01F0
01F0
01F0
01F0
01F0
01F0
01F0
01F0
01F0
01F0
01F0
ENDCHAR
STARTCHAR 0032
ENCODING 50
SWIDTH 525 0
DWIDTH 35 0
BBX 31 48 2 0
BITMAP
0007C000
003FFC00
00FFFF00
03FFFF80
07FFFFC0
0FF00FE0
1FC007F0
1F8001F8
3F0000F8
3E0000F8
7E00007C
7C00007C
7C00007C
FC00007C
F800007C
3800007C
0000007C
0000007C
0000007C
000000F8
000000F8
000001F8
000001F0
000003F0
000007E0
00000FC0
00000FC0
00001F80
00003F00
00007E00
0000FC00
0001F800
0003F000
0007E000
000FC000
001F8000
003F0000
007E0000
00FC0000
01F80000
03F00000
07E00000
0FC00000
1F800000
3FFFFFFE
7FFFFFFE
FFFFFFFE
FFFFFFFE
ENDCHAR
STARTCHAR 0033
ENCODING 51
SWIDTH 510 0
DWIDTH 34 0
BBX 31 48 2 -1
BITMAP
7FFFFFF0
7FFFFFF0
7FFFFFF0
7FFFFFE0
7FFFFFC0
00001F80
00003F00
00007E00
0000FC00
0001F800
0003E000
000FC000
001F8000
003F0000
007E0000
00FFF000
01FFFC00
03FFFF00
0FFFFF80
1FF07FC0
1F800FE0
0E0007F0
040001F8
000001F8
000000FC
0000007C
0000007C
0000003E
0000003E
0000003E
0000003E
0000003E
0000003E
0000003E
0000007C
0000007C
0000007C
000000FC
100000F8
380001F8
FC0003F0
7E0007E0
3F801FE0
3FFFFFC0
0FFFFF00
07FFFE00
01FFF800
003FC000
ENDCHAR
STARTCHAR 0034
ENCODING 52
SWIDTH 510 0
DWIDTH 34 0
BBX 32 47 1 0
BITMAP
000003F0
00007FF0
0001FFF0
0007FFF0
001FFFF0
003FF1F0
007F81F0
00FE01F0
01FC01F0
03F001F0
07E001F0
0FC001F0
0FC001F0
1F8001F0
1F0001F0
3F0001F0
3E0001F0
3E0001F0
7C0001F0
7C0001F0
7C0001F0
780001F0
F80001F0
F80001F0
F80001F0
F80001F0
F80001F0
F80001F0
FFFFFFFF
FFFFFFFF
FFFFFFFF
FFFFFFFF
000001F0
000001F0
000001F0
000001F0
000001F0
000001F0
000001F0
000001F0
000001F0
000001F0
000001F0
000001F0
000001F0
000001F0
000001F0
ENDCHAR
STARTCHAR 0035
ENCODING 53
SWIDTH 525 0
DWIDTH 35 0
BBX 31 48 3 -1
BITMAP
3FFFFFF0
3FFFFFF0
3FFFFFF0
3FFFFFF0
3FFFFFF0
3C000000
3C000000
3C000000
7C000000
7C000000
7C000000
7C000000
7C000000
7C000000
78000000
783FF000
78FFFC00
7BFFFF00
7FFFFF80
FFF87FC0
FF800FE0
FE0003F0
FC0001F8
380001F8
000000FC
0000007C
0000007C
0000007C
0000003E
0000003E
0000003E
0000003E
0000003E
0000003C
0000007C
0000007C
0000007C
000000F8
100000F8
380001F8
FC0003F0
FE0007E0
7F801FC0
3FFFFFC0
1FFFFF00
07FFFE00
01FFF800
003FC000
ENDCHAR
STARTCHAR 0036
ENCODING 54
SWIDTH 600 0
DWIDTH 40 0
BBX 35 48 3 -1
BITMAP
00007C0000
0000FC0000
0001F80000
0001F00000
0003E00000
0007E00000
000FC00000
000F800000
001F800000
003F000000
003E000000
007E000000
00FC000000
00F8700000
01F7FF0000
03FFFFE000
07FFFFF000
07FFFFF800
0FF803FC00
1FE000FE00
1F80003F00
3F00001F80
3E00001F80
7E00000FC0
7C000007C0
7C000007C0
F8000003E0
F8000003E0
F8000003E0
F8000003E0
F8000003E0
F8000003E0
F8000003E0
F8000003E0
F8000003E0
F8000007C0
7C000007C0
7C00000FC0
3E00000F80
3F00001F80
1F80003F00
1FC000FE00
0FF003FC00
07FFBFF800
03FFFFF000
00FFFFE000
003FFF8000
0007FC0000
ENDCHAR
STARTCHAR 0037
ENCODING 55
SWIDTH 420 0
DWIDTH 28 0
BBX 27 47 2 0
BITMAP
FFFFFFE0
FFFFFFE0
FFFFFFE0
FFFFFFE0
FFFFFFC0
000007C0
00000F80
00000F80
00000F80
00001F00
00001F00
00003E00
00003E00
00003E00
00007C00
00007C00
0000F800
0000F800
3FFFFF00
3FFFFF00
3FFFFF00
3FFFFF00
3FFFFF00
0007C000
0007C000
0007C000
000F8000
000F8000
001F0000
001F0000
001F0000
003E0000
003E0000
007C0000
007C0000
007C0000
00F80000
00F80000
01F00000
01F00000
01F00000
03E00000
03E00000
07C00000
07C00000
07C00000
0F800000
ENDCHAR
STARTCHAR 0038
ENCODING 56
SWIDTH 555 0
DWIDTH 37 0
BBX 34 49 2 -1
BITMAP
0001E00000
000FFC0000
003FFF0000
007FFF8000
00FF3FC000
01F807C000
01F003E000
01E003E000
03E001E000
03E001E000
03E001E000
03E001E000
03E001E000
01F003E000
01F007C000
00FC0FC000
00FFFF8000
007FFF0000
00FFFFC000
03FFFFE000
07FC1FF800
0FE003FC00
1FC000FC00
3F00007E00
3E00003F00
7E00001F00
7C00000F80
7C00000F80
F800000F80
F8000007C0
F8000007C0
F8000007C0
F8000007C0
F8000007C0
F8000007C0
F800000780
F800000F80
7C00000F80
7C00001F80
7E00001F00
3F00003F00
3F80007E00
1FC000FC00
0FF003FC00
07FF7FF800
03FFFFE000
00FFFFC000
003FFF0000
000FF80000
ENDCHAR
STARTCHAR 0039
ENCODING 57
SWIDTH 570 0
DWIDTH 38 0
BBX 35 48 2 0
BITMAP
0000E00000
001FFF0000
007FFFE000
01FFFFF000
03FFFFF800
07FC03FE00
0FE000FE00
1FC0003F00
1F80001F80
3F00000F80
3E00000FC0
7C000007C0
7C000007E0
7C000003E0
F8000003E0
F8000003E0
F8000003E0
F8000003E0
F8000003E0
F8000003E0
F8000003E0
F8000003E0
7C000003E0
7C000007C0
7E000007C0
3E00000F80
3F00001F80
1F80003F00
0FC0007F00
0FF001FE00
07FE0FFE00
01FFFFFC00
00FFFFF800
003FFFF000
0007F3F000
000007E000
000007C000
00000FC000
00001F8000
00001F0000
00003F0000
00007E0000
00007C0000
0000F80000
0001F80000
0001F00000
0003E00000
0007E00000
ENDCHAR
STARTCHAR 003A
ENCODING 58
SWIDTH 240 0
DWIDTH 16 0
BBX 10 33 3 -1
BITMAP
0C00
3F00
7F80
7FC0
FFC0
FFC0
7F80
7F80
3F00
0000
0000
0000
0000
0000
0000
0000
0000
0000
0000
0000
0000
0000
0000
0000
3F00
7F80
7F80
7FC0
FFC0
7FC0
7F80
3F00
0C00
ENDCHAR
STARTCHAR 003B
ENCODING 59
SWIDTH 270 0
DWIDTH 18 0
BBX 11 40 4 -8
BITMAP
0200
1FC0
3FC0
3FE0
3FE0
3FE0
3FE0
1FC0
0F80
0000
0000
0000
0000
0000
0000
0000
0000
0000
0000
0000
0000
0000
0000
0000
0000
0000
0000
0F80
0F80
1F00
1F00
1E00
3E00
3C00
7C00
7800
7800
F000
E000
E000
ENDCHAR
STARTCHAR 003C
ENCODING 60
SWIDTH 540 0
DWIDTH 36 0
BBX 30 26 3 7
BITMAP
0000000C
0000003C
000001FC
00000FFC
00003FF0
0001FFC0
000FFE00
003FF000
01FFC000
0FFE0000
3FF00000
FF800000
FE000000
FC000000
FF800000
7FE00000
1FFC0000
03FF8000
007FE000
001FFC00
0003FF80
00007FE0
00001FFC
000003FC
0000007C
0000001C
ENDCHAR
STARTCHAR 003D
ENCODING 61
SWIDTH 540 0
DWIDTH 36 0
BBX 30 17 3 13
BITMAP
FFFFFFFC
FFFFFFFC
FFFFFFFC
FFFFFFFC
00000000
00000000
00000000
00000000
00000000
00000000
00000000
00000000
00000000
FFFFFFFC
FFFFFFFC
FFFFFFFC
FFFFFFFC
ENDCHAR
STARTCHAR 003E
ENCODING 62
SWIDTH 540 0
DWIDTH 36 0
BBX 30 27 3 7
BITMAP
C0000000
F8000000
FF000000
FFC00000
3FF80000
07FF0000
00FFC000
003FF800
0007FF00
0000FFC0
00003FF8
000007FC
000000FC
0000007C
000003FC
00000FFC
00007FE0
0003FF80
001FFC00
007FE000
03FF8000
1FFC0000
7FE00000
FF800000
FC000000
E0000000
80000000
ENDCHAR
STARTCHAR 003F
ENCODING 63
SWIDTH 405 0
DWIDTH 27 0
BBX 20 48 4 -1
BITMAP
03FE00
0FFF00
1FFFC0
3FFFC0
7E0FE0
FC03F0
F801F0
F001F0
F001F0
7001F0
0001F0
0001F0
0001F0
0003E0
0003E0
0007C0
000F80
001F80
001F00
003E00
007C00
007C00
00F800
00F800
01F000
01F000
01E000
01E000
03E000
03E000
03E000
03E000
000000
000000
000000
000000
000000
000000
000000
03F000
07F800
07F800
0FF800
0FF800
0FF800
07F800
03F000
00C000
ENDCHAR
STARTCHAR 0040
ENCODING 64
SWIDTH 780 0
DWIDTH 52 0
BBX 46 48 3 -1
BITMAP
00003FFF0000
0001FFFFE000
0007FFFFF800
001FF003FC00
003F80007F00
007E00001F80
00F8000007C0
01F0000003C0
03C0000001E0
0780000000F0
0F80000000F0
0F0001C00078
1E000FF3C078
1E003FFBC038
3C007FFFC03C
3C00FC1FC03C
7801F80F803C
7801F007803C
7803E007803C
7803E007803C
7003C007803C
7003C007803C
F007C007803C
F007C007803C
F007C0078078
7007C0070078
7007C00F0070
7803C00F00F0
7803E01F81E0
7803E03F81E0
7801F87F87C0
3C00FFF7FF80
3C00FFE3FF00
3E003FC1FE00
1E0000000000
1F0000000000
0F0000000000
078000000000
07C000000080
03E0000001C0
01F8000007E0
00FC00000FC0
007F00003F00
001FE001FE00
000FFFFFF800
0003FFFFF000
00007FFF8000
000003F00000
ENDCHAR
STARTCHAR 0041
ENCODING 65
SWIDTH 540 0
DWIDTH 36 0
BBX 33 48 3 0
BITMAP
000F000000
00FFF00000
01FFFC0000
07FFFE0000
0FFFFF0000
1FE07F8000
1F801F8000
3F000FC000
3E0007C000
7E0003E000
7C0003E000
7C0003E000
7C0003F000
FC0001F000
F80001F000
F80001F000
F80001F000
F80001F000
F80001F000
F80001F000
F80001F000
F80001F000
F80001F000
F80001F000
F80001F000
F80001F000
F80001F000
F80001F000
F80001F000
F80001F000
F80001F000
F80001F000
F80001F000
F80001F000
F80001F000
F80001F000
F80001F000
F80001F000
F80001F000
F80001F000
F80001F000
F80001F000
F80001F000
FFFFFFFF80
FFFFFFFF80
FFFFFFFF80
FFFFFFFF80
FFFFFFFF80
ENDCHAR
STARTCHAR 0042
ENCODING 66
SWIDTH 585 0
DWIDTH 39 0
BBX 36 47 2 0
BITMAP
07FFF80000
07FFFFC000
07FFFFF800
07FFFFFC00
07FFFFFE00
07C001FF00
07C0003F80
07C0001F80
07C0000FC0
07C00007C0
07C00007C0
07C00007C0
07C00007C0
07C00007C0
07C00007C0
07C00007C0
07C0000FC0
07C0000F80
07C0001F80
07C0003F00
07C001FF00
FFFFFFFE00
FFFFFFFC00
FFFFFFFC00
FFFFFFFE00
07C007FF00
07C0003F80
07C0000FC0
07C00007C0
07C00007E0
07C00003E0
07C00003E0
07C00003F0
07C00003F0
07C00003F0
07C00003F0
07C00003E0
07C00003E0
07C00007E0
07C0000FC0
07C0001FC0
07C0007F80
07FFFFFF80
07FFFFFE00
07FFFFFC00
07FFFFF000
07FFFF8000
ENDCHAR
STARTCHAR 0043
ENCODING 67
SWIDTH 675 0
DWIDTH 45 0
BBX 43 49 2 -1
BITMAP
000001F00000
00007FFF0000
0003FFFFE000
000FFFFFF800
001FFFFFFC00
007FF007FF00
00FF8000FF80
01FE00003FC0
03F800001FC0
07F0000007C0
0FE000000380
0FC000000100
1F8000000000
1F0000000000
3F0000000000
3E0000000000
7E0000000000
7C0000000000
7C0000000000
7C0000000000
FC0000000000
F80000000000
F80000000000
F80000000000
F80000000000
F80000000000
F80000000000
F80000000000
F80000000000
7C0000000000
7C0000000000
7C0000000000
7E0000000000
3E0000000000
3F0000000000
1F0000000000
1F8000000000
0FC000000000
0FE000000300
07F0000007C0
03F800000FE0
01FC00003FC0
00FF00007F80
007FE003FF00
003FFFFFFE00
000FFFFFF800
0003FFFFE000
0000FFFF8000
00001FFC0000
ENDCHAR
STARTCHAR 0044
ENCODING 68
SWIDTH 630 0
DWIDTH 42 0
BBX 37 47 3 0
BITMAP
FFFC000000
FFFFF80000
FFFFFF0000
FFFFFFC000
FFFFFFF000
F8007FF800
F80007FC00
F80001FE00
F800007F00
F800003F80
F800001FC0
F800000FC0
F8000007E0
F8000003E0
F8000003F0
F8000001F0
F8000001F0
F8000001F0
F8000000F8
F8000000F8
F8000000F8
F8000000F8
F8000000F8
F8000000F8
F8000000F8
F8000000F8
F8000000F8
F8000000F8
F8000000F8
F8000001F8
F8000001F0
F8000001F0
F8000003F0
F8000003E0
F8000007E0
F8000007C0
F800000FC0
F800001F80
F800007F00
F80000FF00
F80003FE00
F8001FFC00
FFFFFFF000
FFFFFFE000
FFFFFF8000
FFFFFC0000
FFFFC00000
ENDCHAR
STARTCHAR 0045
ENCODING 69
SWIDTH 480 0
DWIDTH 32 0
BBX 31 47 1 0
BITMAP
07FFFF00
07FFFF00
07FFFF00
07FFFF00
07FFFF00
07C00000
07C00000
07C00000
07C00000
07C00000
07C00000
07C00000
07C00000
07C00000
07C00000
07C00000
07C00000
07C00000
07C00000
07C00000
07C00000
FFFFFFE0
FFFFFFE0
FFFFFFE0
FFFFFFE0
FFFFFFE0
07C00000
07C00000
07C00000
07C00000
07C00000
07C00000
07C00000
07C00000
07C00000
07C00000
07C00000
07C00000
07C00000
07C00000
07C00000
07C00000
07FFFFFE
07FFFFFE
07FFFFFE
07FFFFFE
07FFFFFE
ENDCHAR
STARTCHAR 0046
ENCODING 70
SWIDTH 435 0
DWIDTH 29 0
BBX 29 47 1 0
BITMAP
03FFFFF8
03FFFFF8
03FFFFF8
03FFFFF8
03FFFFF8
03E00000
03E00000
03E00000
03E00000
03E00000
03E00000
03E00000
03E00000
03E00000
03E00000
03E00000
03E00000
03E00000
03E00000
03E00000
03E00000
03E00000
FFFFFFF0
FFFFFFF0
FFFFFFF0
FFFFFFF0
FFFFFFF0
03E00000
03E00000
03E00000
03E00000
03E00000
03E00000
03E00000
03E00000
03E00000
03E00000
03E00000
03E00000
03E00000
03E00000
03E00000
03E00000
03E00000
03E00000
03E00000
03E00000
ENDCHAR
STARTCHAR 0047
ENCODING 71
SWIDTH 825 0
DWIDTH 55 0
BBX 53 49 2 -1
BITMAP
000001F0000000
00007FFF000000
0003FFFFE00000
000FFFFFF80000
001FFFFFFE0000
007FF003FF0000
00FF8000FF8000
01FE00003FC000
03F800000FE000
07F0000007C000
07E00000038000
0FC00000010000
1F800000000000
1F000000000000
3F000000000000
3E000000000000
7E000000000000
7C000000000000
7C000000000000
7C000000000000
FC000000000000
F8000000000000
F80001FFFFFFF8
F80001FFFFFFF8
F80001FFFFFFF8
F80001FFFFFFF8
F80001FFFFFFF8
F8000000000F80
F8000000001F80
7C000000001F80
7C000000001F00
7C000000001F00
7E000000003F00
3E000000003E00
3F000000007E00
1F000000007E00
1F80000000FC00
0FC0000000FC00
0FE0000001F800
07F0000003F000
03F800000FE000
01FC00001FE000
00FF00007FC000
007FE001FF8000
003FFFFFFE0000
000FFFFFFC0000
0003FFFFF00000
0000FFFFC00000
00000FFC000000
ENDCHAR
STARTCHAR 0048
ENCODING 72
SWIDTH 540 0
DWIDTH 36 0
BBX 32 47 1 0
BITMAP
07C0001F
07C0001F
07C0001F
07C0001F
07C0001F
07C0001F
07C0001F
07C0001F
07C0001F
07C0001F
07C0001F
07C0001F
07C0001F
07C0001F
07C0001F
07C0001F
07C0001F
07C0001F
07C0001F
FFFFFFFF
FFFFFFFF
FFFFFFFF
FFFFFFFF
07C0001F
07C0001F
07C0001F
07C0001F
07C0001F
07C0001F
07C0001F
07C0001F
07C0001F
07C0001F
07C0001F
07C0001F
07C0001F
07C0001F
07C0001F
07C0001F
07C0001F
07C0001F
07C0001F
07C0001F
07C0001F
07C0001F
07C0001F
07C0001F
ENDCHAR
STARTCHAR 0049
ENCODING 73
SWIDTH 165 0
DWIDTH 11 0
BBX 16 53 -2 0
BITMAP
0100
0100
0100
0180
0380
0380
FFFF
7FFC
1FF8
0FE0
0FE0
0FE0
0EF0
1C70
1010
0008
0000
0000
0000
0000
0000
0000
0000
0000
07C0
07C0
07C0
07C0
07C0
07C0
07C0
07C0
07C0
07C0
07C0
07C0
07C0
07C0
07C0
07C0
07C0
07C0
07C0
07C0
07C0
07C0
07C0
07C0
07C0
07C0
07C0
07C0
07C0
ENDCHAR
STARTCHAR 004A
ENCODING 74
SWIDTH 450 0
DWIDTH 30 0
BBX 26 48 1 -1
BITMAP
0000FFC0
0000FFC0
0000FFC0
0000FFC0
0000FFC0
000007C0
000007C0
000007C0
000007C0
000007C0
000007C0
000007C0
000007C0
000007C0
000007C0
000007C0
000007C0
000007C0
000007C0
000007C0
000007C0
000007C0
000007C0
000007C0
000007C0
000007C0
000007C0
000007C0
000007C0
000007C0
000007C0
000007C0
000007C0
000007C0
000007C0
000007C0
000007C0
30000F80
78000F80
F8001F80
FC001F00
7E003F00
7F80FE00
3FFFFE00
1FFFFC00
0FFFF800
03FFE000
00FF8000
ENDCHAR
STARTCHAR 004B
ENCODING 75
SWIDTH 510 0
DWIDTH 34 0
BBX 31 47 1 0
BITMAP
07C001F0
07C001F0
07C001F0
07C001F0
07C001F0
07C001F0
07C001F0
07C001F0
07C001F0
07C001F0
07C001F0
07C001F0
07C001F0
07C003E0
07C003E0
07C003E0
07C007E0
07C007C0
07C00FC0
07C01F80
07C07F80
FFFFFF00
FFFFFF00
FFFFFF80
FFFFFFE0
07C07FE0
07C007F0
07C003F8
07C001F8
07C000FC
07C0007C
07C0007C
07C0007C
07C0007C
07C0003E
07C0003E
07C0003E
07C0003E
07C0003E
07C0003E
07C0003E
07C0003E
07C0003E
07C0003E
07C0003E
07C0003E
07C0003E
ENDCHAR
STARTCHAR 004C
ENCODING 76
SWIDTH 420 0
DWIDTH 28 0
BBX 24 47 3 0
BITMAP
F80000
F80000
F80000
F80000
F80000
F80000
F80000
F80000
F80000
F80000
F80000
F80000
F80000
F80000
F80000
F80000
F80000
F80000
F80000
F80000
F80000
F80000
F80000
F80000
F80000
F80000
F80000
F80000
F80000
F80000
F80000
F80000
F80000
F80000
F80000
F80000
F80000
F80000
F80000
F80000
F80000
F80000
FFFFFF
FFFFFF
FFFFFF
FFFFFF
FFFFFF
ENDCHAR
STARTCHAR 004D
ENCODING 77
SWIDTH 855 0
DWIDTH 57 0
BBX 53 48 1 0
BITMAP
20000000000000
380000300000F8
7C0000380000F8
FE00003C0000F8
7F80003E0000F8
3FC0003F8000F8
1FE0003FC000F8
0FF0003FE000F8
0FFC003FF800F8
0FFE003FFC00F8
0FFF003EFE00F8
0FBF803E7F00F8
0F9FE03E3FC0F8
0F87F03E1FE0F8
0F83F83E07F0F8
0F81FE3E03FCF8
0F80FF3E01FEF8
0F803FBE007FF8
0F801FFE003FF8
0F800FFE001FF8
0F8003FE000FF8
0F8001FE0003F8
0F8000FE0001F8
0F80007E0000F8
0F80003E0000F8
0F80003E0000F8
0F80003E0000F8
0F80003E0000F8
0F80003E0000F8
0F80003E0000F8
0F80003E0000F8
0F80003E0000F8
0F80003E0000F8
0F80003E0000F8
0F80003E0000F8
0F80003E0000F8
0F80003E0000F8
0F80003E0000F8
0F80003E0000F8
0F80003E0000F8
0F80003E0000F8
0F80003E0000F8
0F80003E0000F8
0F80003E0000F8
0F80003E0000F8
0F80003E0000F8
0F80003E0000F8
0F80003E0000F8
ENDCHAR
STARTCHAR 004E
ENCODING 78
SWIDTH 495 0
DWIDTH 33 0
BBX 29 48 1 0
BITMAP
20000000
380000F8
7C0000F8
FE0000F8
7F8000F8
3FC000F8
3FE000F8
3FF000F8
3FFC00F8
3FFE00F8
3E7F00F8
3E3F80F8
3E1FE0F8
3E0FF0F8
3E03F8F8
3E01FEF8
3E00FFF8
3E007FF8
3E001FF8
3E000FF8
3E0007F8
3E0001F8
3E0000F8
3E0000F8
3E0000F8
3E0000F8
3E0000F8
3E0000F8
3E0000F8
3E0000F8
3E0000F8
3E0000F8
3E0000F8
3E0000F8
3E0000F8
3E0000F8
3E0000F8
3E0000F8
3E0000F8
3E0000F8
3E0000F8
3E0000F8
3E0000F8
3E0000F8
3E0000F8
3E0000F8
3E0000F8
3E0000F8
ENDCHAR
STARTCHAR 004F
ENCODING 79
SWIDTH 810 0
DWIDTH 54 0
BBX 50 49 2 -1
BITMAP
000001F0000000
00007FFF800000
0003FFFFF00000
000FFFFFFC0000
001FFFFFFE0000
007FF003FF8000
00FF80007FC000
01FE00001FE000
03F8000007F000
07F0000003F800
07E0000001FC00
0FC0000000FC00
1F800000007E00
1F000000003E00
3F000000003F00
3E000000001F00
7E000000001F80
7C000000000F80
7C000000000F80
7C000000000F80
FC0000000007C0
F80000000007C0
F80000000007C0
F80000000007C0
F80000000007C0
F80000000007C0
F80000000007C0
F80000000007C0
F80000000007C0
7C000000000FC0
7C000000000F80
7C000000000F80
7E000000001F80
3E000000001F00
3F000000003F00
1F000000003F00
1F800000007E00
0FC0000000FC00
0FE0000001FC00
07F0000003F800
03F8000007F000
01FC00000FE000
00FF00003FC000
007FE001FF8000
003FFFFFFF0000
000FFFFFFC0000
0003FFFFF00000
0000FFFFC00000
00000FFC000000
ENDCHAR
STARTCHAR 0050
ENCODING 80
SWIDTH 540 0
DWIDTH 36 0
BBX 35 47 1 0
BITMAP
0FFFE00000
0FFFFF8000
0FFFFFE000
0FFFFFF800
0FFFFFFC00
0F8003FE00
0F80007F00
0F80001F80
0F80000F80
0F80000FC0
0F800007C0
0F800007C0
0F800007C0
0F800007E0
0F800007E0
0F800007C0
0F800007C0
0F800007C0
0F800007C0
0F80000FC0
0F80001F80
0F80003F80
0F80007F00
0F8003FE00
FFFFFFFC00
FFFFFFF800
FFFFFFE000
FFFFFF8000
FFFFF80000
0F80000000
0F80000000
0F80000000
0F80000000
0F80000000
0F80000000
0F80000000
0F80000000
0F80000000
0F80000000
0F80000000
0F80000000
0F80000000
0F80000000
0F80000000
0F80000000
0F80000000
0F80000000
ENDCHAR
STARTCHAR 0051
ENCODING 81
SWIDTH 810 0
DWIDTH 54 0
BBX 50 49 2 -1
BITMAP
000001F0000000
00007FFF800000
0003FFFFF00000
000FFFFFFC0000
001FFFFFFE0000
007FF003FF8000
00FF80007FC000
01FE00001FE000
03F8000007F000
07F0000003F800
07E0000001FC00
0FC0000000FC00
1F800000007E00
1F000000003E00
3F000000003F00
3E000000001F00
7E000000001F80
7C000000000F80
7C000000000F80
7C000000000F80
FC0000000007C0
F80000000007C0
F80000000007C0
F80000000007C0
F80000000007C0
F80000000007C0
F80000000007C0
F80000000007C0
F80000000007C0
7C000000000FC0
7C000000000F80
7C000000000F80
7E000000001F80
3E000000601F00
3F000000F03F00
1F000001F83F00
1F800001FC7E00
0FC00000FEFC00
0FE000007FFC00
07F000003FF800
03F800001FF000
01FC00000FE000
00FF00003FF000
007FE001FFF800
003FFFFFFFFC00
000FFFFFFCFE00
0003FFFFF07E00
0000FFFFC03C00
00000FFC001800
ENDCHAR
STARTCHAR 0052
ENCODING 82
SWIDTH 570 0
DWIDTH 38 0
BBX 35 47 1 0
BITMAP
07FFF00000
07FFFFC000
07FFFFF000
07FFFFFC00
07FFFFFE00
07C003FF00
07C0007F80
07C0001F80
07C0000FC0
07C00007C0
07C00007E0
07C00003E0
07C00003E0
07C00003E0
07C00003E0
07C00003E0
07C00003E0
07C00007E0
07C00007C0
07C0000FC0
07C0001F80
07C0003F80
07C000FF00
07C01FFE00
FFFFFFFC00
FFFFFFF800
FFFFFFE000
FFFFFFF000
07C00FF800
07C001F800
07C000FC00
07C0007E00
07C0003E00
07C0003F00
07C0001F00
07C0001F00
07C0001F00
07C0000F80
07C0000F80
07C0000F80
07C0000F80
07C0000F80
07C0000F80
07C0000F80
07C0000F80
07C0000F80
07C0000F80
ENDCHAR
STARTCHAR 0053
ENCODING 83
SWIDTH 480 0
DWIDTH 32 0
BBX 28 49 2 -1
BITMAP
001F8000
00FFF000
03FFFC00
07FFFE00
0FFFFF00
0FE07F80
1F801F80
1F000FC0
3F0007C0
3E0007E0
3E0003E0
3E0003E0
3E000180
3E000000
1F000000
1F800000
1F800000
0FE00000
07F00000
03F80000
01FE0000
00FF8000
007FE000
001FF000
0007FC00
0003FE00
0000FF00
00003F80
00001FC0
00000FE0
000007E0
000003F0
000001F0
000001F0
000001F0
180001F0
F80001F0
F80001F0
FC0001F0
7C0001F0
7E0003F0
3F0007E0
3F800FE0
1FC01FC0
0FFFFFC0
07FFFF80
03FFFE00
00FFFC00
003FE000
ENDCHAR
STARTCHAR 0054
ENCODING 84
SWIDTH 480 0
DWIDTH 32 0
BBX 30 47 1 0
BITMAP
FFFFFFFC
FFFFFFFC
FFFFFFFC
FFFFFFFC
FFFFFFFC
0007C000
0007C000
0007C000
0007C000
0007C000
0007C000
0007C000
0007C000
0007C000
0007C000
0007C000
0007C000
0007C000
0007C000
0007C000
0007C000
0007C000
0007C000
0007C000
0007C000
0007C000
0007C000
0007C000
0007C000
0007C000
0007C000
0007C000
0007C000
0007C000
0007C000
0007C000
0007C000
0007C000
0007C000
0007C000
0007C000
0007C000
0007C000
0007C000
0007C000
0007C000
0007C000
ENDCHAR
STARTCHAR 0055
ENCODING 85
SWIDTH 495 0
DWIDTH 33 0
BBX 27 48 3 -1
BITMAP
F80003E0
F80003E0
F80003E0
F80003E0
F80003E0
F80003E0
F80003E0
F80003E0
F80003E0
F80003E0
F80003E0
F80003E0
F80003E0
F80003E0
F80003E0
F80003E0
F80003E0
F80003E0
F80003E0
F80003E0
F80003E0
F80003E0
F80003E0
F80003E0
F80003E0
F80003E0
F80003E0
F80003E0
F80003E0
F80003E0
F80003E0
F80003E0
F80003E0
F80003E0
F80003E0
F80003E0
F80003E0
FC0007E0
7C0007C0
7E0007C0
3E000FC0
3F001F80
1FC07F00
1FFFFF00
0FFFFE00
03FFFC00
01FFF000
003F8000
ENDCHAR
STARTCHAR 0056
ENCODING 86
SWIDTH 450 0
DWIDTH 30 0
BBX 26 47 1 0
BITMAP
F80007C0
F80007C0
F80007C0
F80007C0
F80007C0
F80007C0
F80007C0
F80007C0
F80007C0
F80007C0
F80007C0
F80007C0
F80007C0
F80007C0
F80007C0
F80007C0
F80007C0
F80007C0
F80007C0
F80007C0
F80007C0
F80007C0
F80007C0
F80007C0
F80007C0
F80007C0
F80007C0
F80007C0
F8000FC0
F8000F80
FC000F80
7C000F80
7C000F80
7C001F80
7E001F00
3E001F00
3E003F00
3F003E00
1F007E00
1F807C00
0FC0FC00
07C1F800
07E3F000
03F7E000
01FFE000
00FFC000
007F0000
ENDCHAR
STARTCHAR 0057
ENCODING 87
SWIDTH 765 0
DWIDTH 51 0
BBX 48 47 1 0
BITMAP
F80007C0001F
F80007C0001F
F80007C0001F
F80007C0001F
F80007C0001F
F80007C0001F
F80007C0001F
F80007C0001F
F80007C0001F
F80007C0001F
F80007C0001F
F80007C0001F
F80007C0001F
F80007C0001F
F80007C0001F
F80007C0001F
F80007C0001F
F80007C0001F
F80007C0001F
F80007C0001F
F80007C0001F
F80007C0003E
F80007C0003E
F80007C0003E
F80007C0003E
F80007C0003E
F80007C0003E
F80007E0003E
F8000FE0003E
F8000FE0003E
FC000FE0003E
7C000FE0007C
7C000FE0007C
7C001FF0007C
7E001FF0007C
3E001FF000F8
3E003FF800F8
3F003EF801F8
1F007EFC01F0
1F807C7E03F0
0FC0FC3E07E0
07C1F83F07C0
07E3F01F8FC0
03F7E00FDF80
01FFE007FF00
00FFC003FE00
007F0001FC00
ENDCHAR
STARTCHAR 0058
ENCODING 88
SWIDTH 495 0
DWIDTH 33 0
BBX 28 47 3 0
BITMAP
F80001F0
F80001F0
F80001F0
F80001F0
F80001F0
F80001F0
F80001F0
F80001F0
F80001F0
F80001F0
F80003E0
7C0003E0
7C0003E0
7C0007E0
7E0007C0
3E000FC0
3F001F80
1FC03F80
0FFFFF00
07FFFE00
03FFFC00
07FFFE00
0FFFFF00
1FE07F80
1F801F80
3F000FC0
3E0007C0
7C0007E0
7C0003E0
7C0003E0
F80003E0
F80003F0
F80001F0
F80001F0
F80001F0
F80001F0
F80001F0
F80001F0
F80001F0
F80001F0
F80001F0
F80001F0
F80001F0
F80001F0
F80001F0
F80001F0
F80001F0
ENDCHAR
STARTCHAR 0059
ENCODING 89
SWIDTH 480 0
DWIDTH 32 0
BBX 28 47 2 0
BITMAP
F80001F0
F80001F0
F80001F0
F80001F0
F80001F0
F80001F0
F80001F0
F80001F0
F80001F0
F80001F0
F80001F0
F80001F0
F80001F0
F80001F0
F80001F0
F80001F0
F80001F0
F80001F0
F80001F0
F80001F0
F80001F0
FC0001F0
7C0001F0
7C0001F0
7C0003F0
7C0003E0
7E0003E0
3E0007E0
3F0007C0
1F801FC0
1FC03F80
0FFFFF00
07FFFE00
03FFFC00
00FFF000
001FC000
000F8000
000F8000
000F8000
000F8000
000F8000
000F8000
000F8000
000F8000
000F8000
000F8000
000F8000
ENDCHAR
STARTCHAR 005A
ENCODING 90
SWIDTH 480 0
DWIDTH 32 0
BBX 31 47 1 0
BITMAP
7FFFFFFE
7FFFFFFE
7FFFFFFE
7FFFFFFC
7FFFFFFC
000001F8
000001F0
000003F0
000003E0
000007E0
00000FC0
00000F80
00001F80
00001F00
00003F00
00007E00
00007C00
0000FC00
0000F800
0001F800
0003F000
0003E000
0007E000
0007C000
000FC000
001F8000
001F0000
003F0000
003E0000
007E0000
00FC0000
00F80000
01F80000
01F00000
03F00000
07E00000
07C00000
0FC00000
0F800000
1F800000
3F000000
3E000000
7FFFFFF8
7FFFFFF8
FFFFFFF8
FFFFFFF8
FFFFFFF8
ENDCHAR
STARTCHAR 005B
ENCODING 91
SWIDTH 210 0
DWIDTH 14 0
BBX 8 63 3 -9
BITMAP
FF
FF
FF
F0
F0
F0
F0
F0
F0
F0
F0
F0
F0
F0
F0
F0
F0
F0
F0
F0
F0
F0
F0
F0
F0
F0
F0
F0
F0
F0
F0
F0
F0
F0
F0
F0
F0
F0
F0
F0
F0
F0
F0
F0
F0
F0
F0
F0
F0
F0
F0
F0
F0
F0
F0
F0
F0
F0
F0
F0
FF
FF
FF
ENDCHAR
STARTCHAR 005C
ENCODING 92
SWIDTH 375 0
DWIDTH 25 0
BBX 18 49 4 -1
BITMAP
F00000
F00000
F00000
F80000
780000
780000
780000
3C0000
3C0000
3C0000
3E0000
1E0000
1E0000
1F0000
0F0000
0F0000
0F0000
0F8000
078000
078000
07C000
03C000
03C000
03C000
03E000
01E000
01E000
01F000
00F000
00F000
00F000
00F800
007800
007800
007C00
003C00
003C00
003C00
003E00
001E00
001E00
001F00
000F00
000F00
000F00
000F80
000780
000780
0007C0
ENDCHAR
STARTCHAR 005D
ENCODING 93
SWIDTH 210 0
DWIDTH 14 0
BBX 8 63 3 -9
BITMAP
FF
FF
FF
0F
0F
0F
0F
0F
0F
0F
0F
0F
0F
0F
0F
0F
0F
0F
0F
0F
0F
0F
0F
0F
0F
0F
0F
0F
0F
0F
0F
0F
0F
0F
0F
0F
0F
0F
0F
0F
0F
0F
0F
0F
0F
0F
0F
0F
0F
0F
0F
0F
0F
0F
0F
0F
0F
0F
0F
0F
FF
FF
FF
ENDCHAR
STARTCHAR 005E
ENCODING 94
SWIDTH 450 0
DWIDTH 30 0
BBX 23 16 4 24
BITMAP
00FC00
00FE00
01FF00
01EF00
03CF80
03C780
0787C0
0F83C0
0F03E0
1F01E0
1E00F0
3C00F8
3C0078
78007C
F8003C
F0003E
ENDCHAR
STARTCHAR 005F
ENCODING 95
SWIDTH 510 0
DWIDTH 34 0
BBX 28 3 3 -6
BITMAP
FFFFFFF0
FFFFFFF0
FFFFFFF0
ENDCHAR
STARTCHAR 0060
ENCODING 96
SWIDTH 150 0
DWIDTH 10 0
BBX 10 8 0 51
BITMAP
F800
7C00
3C00
1E00
0F00
0F00
0780
03C0
ENDCHAR
STARTCHAR 0061
ENCODING 97
SWIDTH 540 0
DWIDTH 36 0
BBX 33 48 3 0
BITMAP
000F000000
00FFF00000
01FFFC0000
07FFFE0000
0FFFFF0000
1FE07F8000
1F801F8000
3F000FC000
3E0007C000
7E0003E000
7C0003E000
7C0003E000
7C0003F000
FC0001F000
F80001F000
F80001F000
F80001F000
F80001F000
F80001F000
F80001F000
F80001F000
F80001F000
F80001F000
F80001F000
F80001F000
F80001F000
F80001F000
F80001F000
F80001F000
F80001F000
F80001F000
F80001F000
F80001F000
F80001F000
F80001F000
F80001F000
F80001F000
F80001F000
F80001F000
F80001F000
F80001F000
F80001F000
F80001F000
FFFFFFFF80
FFFFFFFF80
FFFFFFFF80
FFFFFFFF80
FFFFFFFF80
ENDCHAR
STARTCHAR 0062
ENCODING 98
SWIDTH 585 0
DWIDTH 39 0
BBX 36 47 2 0
BITMAP
07FFF80000
07FFFFC000
07FFFFF800
07FFFFFC00
07FFFFFE00
07C001FF00
07C0003F80
07C0001F80
07C0000FC0
07C00007C0
07C00007C0
07C00007C0
07C00007C0
07C00007C0
07C00007C0
07C00007C0
07C0000FC0
07C0000F80
07C0001F80
07C0003F00
07C001FF00
FFFFFFFE00
FFFFFFFC00
FFFFFFFC00
FFFFFFFE00
07C007FF00
07C0003F80
07C0000FC0
07C00007C0
07C00007E0
07C00003E0
07C00003E0
07C00003F0
07C00003F0
07C00003F0
07C00003F0
07C00003E0
07C00003E0
07C00007E0
07C0000FC0
07C0001FC0
07C0007F80
07FFFFFF80
07FFFFFE00
07FFFFFC00
07FFFFF000
07FFFF8000
ENDCHAR
STARTCHAR 0063
ENCODING 99
SWIDTH 675 0
DWIDTH 45 0
BBX 43 49 2 -1
BITMAP
000001F00000
00007FFF0000
0003FFFFE000
000FFFFFF800
001FFFFFFC00
007FF007FF00
00FF8000FF80
01FE00003FC0
03F800001FC0
07F0000007C0
0FE000000380
0FC000000100
1F8000000000
1F0000000000
3F0000000000
3E0000000000
7E0000000000
7C0000000000
7C0000000000
7C0000000000
FC0000000000
F80000000000
F80000000000
F80000000000
F80000000000
F80000000000
F80000000000
F80000000000
F80000000000
7C0000000000
7C0000000000
7C0000000000
7E0000000000
3E0000000000
3F0000000000
1F0000000000
1F8000000000
0FC000000000
0FE000000300
07F0000007C0
03F800000FE0
01FC00003FC0
00FF00007F80
007FE003FF00
003FFFFFFE00
000FFFFFF800
0003FFFFE000
0000FFFF8000
00001FFC0000
ENDCHAR
STARTCHAR 0064
ENCODING 100
SWIDTH 630 0
DWIDTH 42 0
BBX 37 47 3 0
BITMAP
FFFC000000
FFFFF80000
FFFFFF0000
FFFFFFC000
FFFFFFF000
F8007FF800
F80007FC00
F80001FE00
F800007F00
F800003F80
F800001FC0
F800000FC0
F8000007E0
F8000003E0
F8000003F0
F8000001F0
F8000001F0
F8000001F0
F8000000F8
F8000000F8
F8000000F8
F8000000F8
F8000000F8
F8000000F8
F8000000F8
F8000000F8
F8000000F8
F8000000F8
F8000000F8
F8000001F8
F8000001F0
F8000001F0
F8000003F0
F8000003E0
F8000007E0
F8000007C0
F800000FC0
F800001F80
F800007F00
F80000FF00
F80003FE00
F8001FFC00
FFFFFFF000
FFFFFFE000
FFFFFF8000
FFFFFC0000
FFFFC00000
ENDCHAR
STARTCHAR 0065
ENCODING 101
SWIDTH 480 0
DWIDTH 32 0
BBX 31 47 1 0
BITMAP
07FFFF00
07FFFF00
07FFFF00
07FFFF00
07FFFF00
07C00000
07C00000
07C00000
07C00000
07C00000
07C00000
07C00000
07C00000
07C00000
07C00000
07C00000
07C00000
07C00000
07C00000
07C00000
07C00000
FFFFFFE0
FFFFFFE0
FFFFFFE0
FFFFFFE0
FFFFFFE0
07C00000
07C00000
07C00000
07C00000
07C00000
07C00000
07C00000
07C00000
07C00000
07C00000
07C00000
07C00000
07C00000
07C00000
07C00000
07C00000
07FFFFFE
07FFFFFE
07FFFFFE
07FFFFFE
07FFFFFE
ENDCHAR
STARTCHAR 0066
ENCODING 102
SWIDTH 435 0
DWIDTH 29 0
BBX 29 47 1 0
BITMAP
03FFFFF8
03FFFFF8
03FFFFF8
03FFFFF8
03FFFFF8
03E00000
03E00000
03E00000
03E00000
03E00000
03E00000
03E00000
03E00000
03E00000
03E00000
03E00000
03E00000
03E00000
03E00000
03E00000
03E00000
03E00000
FFFFFFF0
FFFFFFF0
FFFFFFF0
FFFFFFF0
FFFFFFF0
03E00000
03E00000
03E00000
03E00000
03E00000
03E00000
03E00000
03E00000
03E00000
03E00000
03E00000
03E00000
03E00000
03E00000
03E00000
03E00000
03E00000
03E00000
03E00000
03E00000
ENDCHAR
STARTCHAR 0067
ENCODING 103
SWIDTH 825 0
DWIDTH 55 0
BBX 53 49 2 -1
BITMAP
000001F0000000
00007FFF000000
0003FFFFE00000
000FFFFFF80000
001FFFFFFE0000
007FF003FF0000
00FF8000FF8000
01FE00003FC000
03F800000FE000
07F0000007C000
07E00000038000
0FC00000010000
1F800000000000
1F000000000000
3F000000000000
3E000000000000
7E000000000000
7C000000000000
7C000000000000
7C000000000000
FC000000000000
F8000000000000
F80001FFFFFFF8
F80001FFFFFFF8
F80001FFFFFFF8
F80001FFFFFFF8
F80001FFFFFFF8
F8000000000F80
F8000000001F80
7C000000001F80
7C000000001F00
7C000000001F00
7E000000003F00
3E000000003E00
3F000000007E00
1F000000007E00
1F80000000FC00
0FC0000000FC00
0FE0000001F800
07F0000003F000
03F800000FE000
01FC00001FE000
00FF00007FC000
007FE001FF8000
003FFFFFFE0000
000FFFFFFC0000
0003FFFFF00000
0000FFFFC00000
00000FFC000000
ENDCHAR
STARTCHAR 0068
ENCODING 104
SWIDTH 540 0
DWIDTH 36 0
BBX 32 47 1 0
BITMAP
07C0001F
07C0001F
07C0001F
07C0001F
07C0001F
07C0001F
07C0001F
07C0001F
07C0001F
07C0001F
07C0001F
07C0001F
07C0001F
07C0001F
07C0001F
07C0001F
07C0001F
07C0001F
07C0001F
FFFFFFFF
FFFFFFFF
FFFFFFFF
FFFFFFFF
07C0001F
07C0001F
07C0001F
07C0001F
07C0001F
07C0001F
07C0001F
07C0001F
07C0001F
07C0001F
07C0001F
07C0001F
07C0001F
07C0001F
07C0001F
07C0001F
07C0001F
07C0001F
07C0001F
07C0001F
07C0001F
07C0001F
07C0001F
07C0001F
ENDCHAR
STARTCHAR 0069
ENCODING 105
SWIDTH 165 0
DWIDTH 11 0
BBX 16 53 -2 0
BITMAP
0100
0100
0100
0180
0380
0380
FFFF
7FFC
1FF8
0FE0
0FE0
0FE0
0EF0
1C70
1010
0008
0000
0000
0000
0000
0000
0000
0000
0000
07C0
07C0
07C0
07C0
07C0
07C0
07C0
07C0
07C0
07C0
07C0
07C0
07C0
07C0
07C0
07C0
07C0
07C0
07C0
07C0
07C0
07C0
07C0
07C0
07C0
07C0
07C0
07C0
07C0
ENDCHAR
STARTCHAR 006A
ENCODING 106
SWIDTH 450 0
DWIDTH 30 0
BBX 26 48 1 -1
BITMAP
0000FFC0
0000FFC0
0000FFC0
0000FFC0
0000FFC0
000007C0
000007C0
000007C0
000007C0
000007C0
000007C0
000007C0
000007C0
000007C0
000007C0
000007C0
000007C0
000007C0
000007C0
000007C0
000007C0
000007C0
000007C0
000007C0
000007C0
000007C0
000007C0
000007C0
000007C0
000007C0
000007C0
000007C0
000007C0
000007C0
000007C0
000007C0
000007C0
30000F80
78000F80
F8001F80
FC001F00
7E003F00
7F80FE00
3FFFFE00
1FFFFC00
0FFFF800
03FFE000
00FF8000
ENDCHAR
STARTCHAR 006B
ENCODING 107
SWIDTH 510 0
DWIDTH 34 0
BBX 31 47 1 0
BITMAP
07C001F0
07C001F0
07C001F0
07C001F0
07C001F0
07C001F0
07C001F0
07C001F0
07C001F0
07C001F0
07C001F0
07C001F0
07C001F0
07C003E0
07C003E0
07C003E0
07C007E0
07C007C0
07C00FC0
07C01F80
07C07F80
FFFFFF00
FFFFFF00
FFFFFF80
FFFFFFE0
07C07FE0
07C007F0
07C003F8
07C001F8
07C000FC
07C0007C
07C0007C
07C0007C
07C0007C
07C0003E
07C0003E
07C0003E
07C0003E
07C0003E
07C0003E
07C0003E
07C0003E
07C0003E
07C0003E
07C0003E
07C0003E
07C0003E
ENDCHAR
STARTCHAR 006C
ENCODING 108
SWIDTH 420 0
DWIDTH 28 0
BBX 24 47 3 0
BITMAP
F80000
F80000
F80000
F80000
F80000
F80000
F80000
F80000
F80000
F80000
F80000
F80000
F80000
F80000
F80000
F80000
F80000
F80000
F80000
F80000
F80000
F80000
F80000
F80000
F80000
F80000
F80000
F80000
F80000
F80000
F80000
F80000
F80000
F80000
F80000
F80000
F80000
F80000
F80000
F80000
F80000
F80000
FFFFFF
FFFFFF
FFFFFF
FFFFFF
FFFFFF
ENDCHAR
STARTCHAR 006D
ENCODING 109
SWIDTH 855 0
DWIDTH 57 0
BBX 53 48 1 0
BITMAP
20000000000000
380000300000F8
7C0000380000F8
FE00003C0000F8
7F80003E0000F8
3FC0003F8000F8
1FE0003FC000F8
0FF0003FE000F8
0FFC003FF800F8
0FFE003FFC00F8
0FFF003EFE00F8
0FBF803E7F00F8
0F9FE03E3FC0F8
0F87F03E1FE0F8
0F83F83E07F0F8
0F81FE3E03FCF8
0F80FF3E01FEF8
0F803FBE007FF8
0F801FFE003FF8
0F800FFE001FF8
0F8003FE000FF8
0F8001FE0003F8
0F8000FE0001F8
0F80007E0000F8
0F80003E0000F8
0F80003E0000F8
0F80003E0000F8
0F80003E0000F8
0F80003E0000F8
0F80003E0000F8
0F80003E0000F8
0F80003E0000F8
0F80003E0000F8
0F80003E0000F8
0F80003E0000F8
0F80003E0000F8
0F80003E0000F8
0F80003E0000F8
0F80003E0000F8
0F80003E0000F8
0F80003E0000F8
0F80003E0000F8
0F80003E0000F8
0F80003E0000F8
0F80003E0000F8
0F80003E0000F8
0F80003E0000F8
0F80003E0000F8
ENDCHAR
STARTCHAR 006E
ENCODING 110
SWIDTH 495 0
DWIDTH 33 0
BBX 29 48 1 0
BITMAP
20000000
380000F8
7C0000F8
FE0000F8
7F8000F8
3FC000F8
3FE000F8
3FF000F8
3FFC00F8
3FFE00F8
3E7F00F8
3E3F80F8
3E1FE0F8
3E0FF0F8
3E03F8F8
3E01FEF8
3E00FFF8
3E007FF8
3E001FF8
3E000FF8
3E0007F8
3E0001F8
3E0000F8
3E0000F8
3E0000F8
3E0000F8
3E0000F8
3E0000F8
3E0000F8
3E0000F8
3E0000F8
3E0000F8
3E0000F8
3E0000F8
3E0000F8
3E0000F8
3E0000F8
3E0000F8
3E0000F8
3E0000F8
3E0000F8
3E0000F8
3E0000F8
3E0000F8
3E0000F8
3E0000F8
3E0000F8
3E0000F8
ENDCHAR
STARTCHAR 006F
ENCODING 111
SWIDTH 810 0
DWIDTH 54 0
BBX 50 49 2 -1
BITMAP
000001F0000000
00007FFF800000
0003FFFFF00000
000FFFFFFC0000
001FFFFFFE0000
007FF003FF8000
00FF80007FC000
01FE00001FE000
03F8000007F000
07F0000003F800
07E0000001FC00
0FC0000000FC00
1F800000007E00
1F000000003E00
3F000000003F00
3E000000001F00
7E000000001F80
7C000000000F80
7C000000000F80
7C000000000F80
FC0000000007C0
F80000000007C0
F80000000007C0
F80000000007C0
F80000000007C0
F80000000007C0
F80000000007C0
F80000000007C0
F80000000007C0
7C000000000FC0
7C000000000F80
7C000000000F80
7E000000001F80
3E000000001F00
3F000000003F00
1F000000003F00
1F800000007E00
0FC0000000FC00
0FE0000001FC00
07F0000003F800
03F8000007F000
01FC00000FE000
00FF00003FC000
007FE001FF8000
003FFFFFFF0000
000FFFFFFC0000
0003FFFFF00000
0000FFFFC00000
00000FFC000000
ENDCHAR
STARTCHAR 0070
ENCODING 112
SWIDTH 540 0
DWIDTH 36 0
BBX 35 47 1 0
BITMAP
0FFFE00000
0FFFFF8000
0FFFFFE000
0FFFFFF800
0FFFFFFC00
0F8003FE00
0F80007F00
0F80001F80
0F80000F80
0F80000FC0
0F800007C0
0F800007C0
0F800007C0
0F800007E0
0F800007E0
0F800007C0
0F800007C0
0F800007C0
0F800007C0
0F80000FC0
0F80001F80
0F80003F80
0F80007F00
0F8003FE00
FFFFFFFC00
FFFFFFF800
FFFFFFE000
FFFFFF8000
FFFFF80000
0F80000000
0F80000000
0F80000000
0F80000000
0F80000000
0F80000000
0F80000000
0F80000000
0F80000000
0F80000000
0F80000000
0F80000000
0F80000000
0F80000000
0F80000000
0F80000000
0F80000000
0F80000000
ENDCHAR
STARTCHAR 0071
ENCODING 113
SWIDTH 810 0
DWIDTH 54 0
BBX 50 49 2 -1
BITMAP
000001F0000000
00007FFF800000
0003FFFFF00000
000FFFFFFC0000
001FFFFFFE0000
007FF003FF8000
00FF80007FC000
01FE00001FE000
03F8000007F000
07F0000003F800
07E0000001FC00
0FC0000000FC00
1F800000007E00
1F000000003E00
3F000000003F00
3E000000001F00
7E000000001F80
7C000000000F80
7C000000000F80
7C000000000F80
FC0000000007C0
F80000000007C0
F80000000007C0
F80000000007C0
F80000000007C0
F80000000007C0
F80000000007C0
F80000000007C0
F80000000007C0
7C000000000FC0
7C000000000F80
7C000000000F80
7E000000001F80
3E000000601F00
3F000000F03F00
1F000001F83F00
1F800001FC7E00
0FC00000FEFC00
0FE000007FFC00
07F000003FF800
03F800001FF000
01FC00000FE000
00FF00003FF000
007FE001FFF800
003FFFFFFFFC00
000FFFFFFCFE00
0003FFFFF07E00
0000FFFFC03C00
00000FFC001800
ENDCHAR
STARTCHAR 0072
ENCODING 114
SWIDTH 570 0
DWIDTH 38 0
BBX 35 47 1 0
BITMAP
07FFF00000
07FFFFC000
07FFFFF000
07FFFFFC00
07FFFFFE00
07C003FF00
07C0007F80
07C0001F80
07C0000FC0
07C00007C0
07C00007E0
07C00003E0
07C00003E0
07C00003E0
07C00003E0
07C00003E0
07C00003E0
07C00007E0
07C00007C0
07C0000FC0
07C0001F80
07C0003F80
07C000FF00
07C01FFE00
FFFFFFFC00
FFFFFFF800
FFFFFFE000
FFFFFFF000
07C00FF800
07C001F800
07C000FC00
07C0007E00
07C0003E00
07C0003F00
07C0001F00
07C0001F00
07C0001F00
07C0000F80
07C0000F80
07C0000F80
07C0000F80
07C0000F80
07C0000F80
07C0000F80
07C0000F80
07C0000F80
07C0000F80
ENDCHAR
STARTCHAR 0073
ENCODING 115
SWIDTH 480 0
DWIDTH 32 0
BBX 28 49 2 -1
BITMAP
001F8000
00FFF000
03FFFC00
07FFFE00
0FFFFF00
0FE07F80
1F801F80
1F000FC0
3F0007C0
3E0007E0
3E0003E0
3E0003E0
3E000180
3E000000
1F000000
1F800000
1F800000
0FE00000
07F00000
03F80000
01FE0000
00FF8000
007FE000
001FF000
0007FC00
0003FE00
0000FF00
00003F80
00001FC0
00000FE0
000007E0
000003F0
000001F0
000001F0
000001F0
180001F0
F80001F0
F80001F0
FC0001F0
7C0001F0
7E0003F0
3F0007E0
3F800FE0
1FC01FC0
0FFFFFC0
07FFFF80
03FFFE00
00FFFC00
003FE000
ENDCHAR
STARTCHAR 0074
ENCODING 116
SWIDTH 480 0
DWIDTH 32 0
BBX 30 47 1 0
BITMAP
FFFFFFFC
FFFFFFFC
FFFFFFFC
FFFFFFFC
FFFFFFFC
0007C000
0007C000
0007C000
0007C000
0007C000
0007C000
0007C000
0007C000
0007C000
0007C000
0007C000
0007C000
0007C000
0007C000
0007C000
0007C000
0007C000
0007C000
0007C000
0007C000
0007C000
0007C000
0007C000
0007C000
0007C000
0007C000
0007C000
0007C000
0007C000
0007C000
0007C000
0007C000
0007C000
0007C000
0007C000
0007C000
0007C000
0007C000
0007C000
0007C000
0007C000
0007C000
ENDCHAR
STARTCHAR 0075
ENCODING 117
SWIDTH 495 0
DWIDTH 33 0
BBX 27 48 3 -1
BITMAP
F80003E0
F80003E0
F80003E0
F80003E0
F80003E0
F80003E0
F80003E0
F80003E0
F80003E0
F80003E0
F80003E0
F80003E0
F80003E0
F80003E0
F80003E0
F80003E0
F80003E0
F80003E0
F80003E0
F80003E0
F80003E0
F80003E0
F80003E0
F80003E0
F80003E0
F80003E0
F80003E0
F80003E0
F80003E0
F80003E0
F80003E0
F80003E0
F80003E0
F80003E0
F80003E0
F80003E0
F80003E0
FC0007E0
7C0007C0
7E0007C0
3E000FC0
3F001F80
1FC07F00
1FFFFF00
0FFFFE00
03FFFC00
01FFF000
003F8000
ENDCHAR
STARTCHAR 0076
ENCODING 118
SWIDTH 450 0
DWIDTH 30 0
BBX 26 47 1 0
BITMAP
F80007C0
F80007C0
F80007C0
F80007C0
F80007C0
F80007C0
F80007C0
F80007C0
F80007C0
F80007C0
F80007C0
F80007C0
F80007C0
F80007C0
F80007C0
F80007C0
F80007C0
F80007C0
F80007C0
F80007C0
F80007C0
F80007C0
F80007C0
F80007C0
F80007C0
F80007C0
F80007C0
F80007C0
F8000FC0
F8000F80
FC000F80
7C000F80
7C000F80
7C001F80
7E001F00
3E001F00
3E003F00
3F003E00
1F007E00
1F807C00
0FC0FC00
07C1F800
07E3F000
03F7E000
01FFE000
00FFC000
007F0000
ENDCHAR
STARTCHAR 0077
ENCODING 119
SWIDTH 765 0
DWIDTH 51 0
BBX 48 47 1 0
BITMAP
F80007C0001F
F80007C0001F
F80007C0001F
F80007C0001F
F80007C0001F
F80007C0001F
F80007C0001F
F80007C0001F
F80007C0001F
F80007C0001F
F80007C0001F
F80007C0001F
F80007C0001F
F80007C0001F
F80007C0001F
F80007C0001F
F80007C0001F
F80007C0001F
F80007C0001F
F80007C0001F
F80007C0001F
F80007C0003E
F80007C0003E
F80007C0003E
F80007C0003E
F80007C0003E
F80007C0003E
F80007E0003E
F8000FE0003E
F8000FE0003E
FC000FE0003E
7C000FE0007C
7C000FE0007C
7C001FF0007C
7E001FF0007C
3E001FF000F8
3E003FF800F8
3F003EF801F8
1F007EFC01F0
1F807C7E03F0
0FC0FC3E07E0
07C1F83F07C0
07E3F01F8FC0
03F7E00FDF80
01FFE007FF00
00FFC003FE00
007F0001FC00
ENDCHAR
STARTCHAR 0078
ENCODING 120
SWIDTH 495 0
DWIDTH 33 0
BBX 28 47 3 0
BITMAP
F80001F0
F80001F0
F80001F0
F80001F0
F80001F0
F80001F0
F80001F0
F80001F0
F80001F0
F80001F0
F80003E0
7C0003E0
7C0003E0
7C0007E0
7E0007C0
3E000FC0
3F001F80
1FC03F80
0FFFFF00
07FFFE00
03FFFC00
07FFFE00
0FFFFF00
1FE07F80
1F801F80
3F000FC0
3E0007C0
7C0007E0
7C0003E0
7C0003E0
F80003E0
F80003F0
F80001F0
F80001F0
F80001F0
F80001F0
F80001F0
F80001F0
F80001F0
F80001F0
F80001F0
F80001F0
F80001F0
F80001F0
F80001F0
F80001F0
F80001F0
ENDCHAR
STARTCHAR 0079
ENCODING 121
SWIDTH 480 0
DWIDTH 32 0
BBX 28 47 2 0
BITMAP
F80001F0
F80001F0
F80001F0
F80001F0
F80001F0
F80001F0
F80001F0
F80001F0
F80001F0
F80001F0
F80001F0
F80001F0
F80001F0
F80001F0
F80001F0
F80001F0
F80001F0
F80001F0
F80001F0
F80001F0
F80001F0
FC0001F0
7C0001F0
7C0001F0
7C0003F0
7C0003E0
7E0003E0
3E0007E0
3F0007C0
1F801FC0
1FC03F80
0FFFFF00
07FFFE00
03FFFC00
00FFF000
001FC000
000F8000
000F8000
000F8000
000F8000
000F8000
000F8000
000F8000
000F8000
000F8000
000F8000
000F8000
ENDCHAR
STARTCHAR 007A
ENCODING 122
SWIDTH 480 0
DWIDTH 32 0
BBX 31 47 1 0
BITMAP
7FFFFFFE
7FFFFFFE
7FFFFFFE
7FFFFFFC
7FFFFFFC
000001F8
000001F0
000003F0
000003E0
000007E0
00000FC0
00000F80
00001F80
00001F00
00003F00
00007E00
00007C00
0000FC00
0000F800
0001F800
0003F000
0003E000
0007E000
0007C000
000FC000
001F8000
001F0000
003F0000
003E0000
007E0000
00FC0000
00F80000
01F80000
01F00000
03F00000
07E00000
07C00000
0FC00000
0F800000
1F800000
3F000000
3E000000
7FFFFFF8
7FFFFFF8
FFFFFFF8
FFFFFFF8
FFFFFFF8
ENDCHAR
STARTCHAR 007B
ENCODING 123
SWIDTH 330 0
DWIDTH 22 0
BBX 16 63 3 -9
BITMAP
001F
00FF
01FF
01FF
03E0
03C0
03C0
03C0
03C0
03C0
03C0
03C0
03C0
03C0
03C0
03C0
03C0
03C0
03C0
03C0
03C0
03C0
03C0
03C0
03C0
07C0
0780
0F80
1F80
FF00
FE00
FC00
FE00
FF00
1F00
0F80
0780
07C0
03C0
03C0
03C0
03C0
03C0
03C0
03C0
03C0
03C0
03C0
03C0
03C0
03C0
03C0
03C0
03C0
03C0
03C0
03C0
03C0
03E0
01FF
01FF
00FF
003F
ENDCHAR
STARTCHAR 007C
ENCODING 124
SWIDTH 150 0
DWIDTH 10 0
BBX 4 54 3 -7
BITMAP
F0
F0
F0
F0
F0
F0
F0
F0
F0
F0
F0
F0
F0
F0
F0
F0
F0
F0
F0
F0
F0
F0
F0
F0
F0
F0
F0
F0
F0
F0
F0
F0
F0
F0
F0
F0
F0
F0
F0
F0
F0
F0
F0
F0
F0
F0
F0
F0
F0
F0
F0
F0
F0
F0
ENDCHAR
STARTCHAR 007D
ENCODING 125
SWIDTH 330 0
DWIDTH 22 0
BBX 16 63 3 -9
BITMAP
FC00
FF00
FF80
FFC0
07C0
03C0
03E0
03E0
03E0
03E0
03E0
03E0
03E0
03E0
03E0
03E0
03E0
03E0
03E0
03E0
03E0
03E0
03E0
03E0
01E0
01E0
01F0
01F0
00FC
007F
007F
001F
003F
007F
00FC
00F0
01F0
01E0
01E0
01E0
03E0
03E0
03E0
03E0
03E0
03E0
03E0
03E0
03E0
03E0
03E0
03E0
03E0
03E0
03E0
03E0
03E0
03C0
03C0
FFC0
FF80
FF00
FE00
ENDCHAR
STARTCHAR 007E
ENCODING 126
SWIDTH 525 0
DWIDTH 35 0
BBX 29 7 3 18
BITMAP
0FC00000
7FFE0000
FFFFF878
FFFFFFF8
FFFFFFF8
8007FFF8
00003FE0
ENDCHAR
STARTCHAR 00A1
ENCODING 161
SWIDTH 240 0
DWIDTH 16 0
BBX 10 47 3 -7
BITMAP
1E00
3F80
7F80
7FC0
FFC0
7FC0
7F80
3F80
1E00
0000
0000
0000
0000
0000
0000
0000
0000
1E00
1E00
1E00
1E00
1E00
1E00
1E00
1E00
1E00
1E00
1E00
1E00
1E00
1E00
1E00
1E00
1E00
1E00
1E00
1E00
1E00
1E00
1E00
1E00
1E00
1E00
1E00
1E00
1E00
1E00
ENDCHAR
STARTCHAR 00A2
ENCODING 162
SWIDTH 510 0
DWIDTH 34 0
BBX 28 41 3 3
BITMAP
0003C000
0003C000
0003C000
0003C000
0003C000
001FF800
007FFF00
01FFFF80
03FFFFC0
07F38FE0
0FC383F0
1F8380E0
1F038040
3E038000
3C038000
7C038000
78038000
78038000
78038000
F8038000
F8038000
F8038000
78038000
78038000
78038000
7C038000
7C038000
3E038000
3E038000
1F0380E0
0FC381F0
0FE387F0
07FFBFE0
01FFFF80
00FFFF00
003FFC00
0003C000
0003C000
0003C000
0003C000
0003C000
ENDCHAR
STARTCHAR 00A3
ENCODING 163
SWIDTH 525 0
DWIDTH 35 0
BBX 29 47 3 0
BITMAP
0001FFE0
000FFFF8
003FFFF8
007FFFF8
00FFF7F8
01FE0018
03F80000
03F00000
07E00000
07E00000
07C00000
0FC00000
0FC00000
0F800000
0F800000
0FC00000
07C00000
07C00000
07C00000
07E00000
03E00000
03E00000
FFFFFFC0
FFFFFFC0
FFFFFFC0
FFFFFFC0
00F80000
00FC0000
007C0000
007C0000
007E0000
003E0000
003E0000
003E0000
003E0000
003E0000
003E0000
007E0000
007C0000
00FC0000
01F80000
0FF00000
FFE00000
FFFFFFF8
FFFFFFF8
FFFFFFF8
FFFFFFF8
ENDCHAR
STARTCHAR 00A4
ENCODING 164
SWIDTH 555 0
DWIDTH 37 0
BBX 29 29 4 7
BITMAP
60000030
F0000078
F83FE0F8
7CFFFDF0
3FFFFFE0
1FF8FFC0
0FC01F80
1F0007C0
1E0003C0
3E0003E0
3C0001E0
3C0001E0
780000F0
780000F0
780000F0
780000F0
780000F0
3C0000E0
3C0001E0
3C0001E0
1E0003C0
1F0007C0
0F800F80
1FF07FC0
3FFFFFE0
7DFFFDF0
F87FF0F8
F0078078
60000030
ENDCHAR
STARTCHAR 00A5
ENCODING 165
SWIDTH 615 0
DWIDTH 41 0
BBX 34 47 4 0
BITMAP
F800000FC0
FC00000FC0
7C00001F80
7E00001F00
3E00003F00
3F00003E00
1F00007E00
1F80007C00
0F8000FC00
0FC000F800
07E001F800
07E001F000
03F003F000
03F003E000
01F807E000
01F807C000
00FC0FC000
00FC0F8000
007E1F8000
007E1F0000
003F3F0000
001F3E0000
001FFC0000
000FFC0000
000FF80000
0FFFFFF800
0FFFFFF800
0FFFFFF800
0FFFFFF800
0003E00000
0003E00000
0003E00000
0003E00000
0FFFFFF800
0FFFFFF800
0FFFFFF800
0FFFFFF800
0003E00000
0003E00000
0003E00000
0003E00000
0003E00000
0003E00000
0003E00000
0003E00000
0003E00000
0003E00000
ENDCHAR
STARTCHAR 00A6
ENCODING 166
SWIDTH 150 0
DWIDTH 10 0
BBX 4 54 3 -7
BITMAP
F0
F0
F0
F0
F0
F0
F0
F0
F0
F0
F0
F0
F0
F0
F0
F0
F0
F0
F0
F0
00
00
00
00
00
00
00
00
00
00
00
00
00
00
F0
F0
F0
F0
F0
F0
F0
F0
F0
F0
F0
F0
F0
F0
F0
F0
F0
F0
F0
F0
ENDCHAR
STARTCHAR 00A7
ENCODING 167
SWIDTH 465 0
DWIDTH 31 0
BBX 24 54 4 -7
BITMAP
01FF00
07FFC0
0FFFE0
1FFFF0
1FC7F8
3F00FC
3E007C
3E007C
3E003E
3E003E
3E0020
3F0000
1F8000
1FC000
0FE000
07F800
03FE00
00FF80
03FFC0
0FFFE0
1FFFF8
3FCFFC
7E00FC
FC007E
F8003E
F8001E
F0001F
F0001F
F8001E
F8003E
FC003E
7E00FC
3FE3FC
1FFFF8
0FFFE0
07FF80
01FE00
007F00
001FC0
000FE0
0003F0
0001F0
0000F8
0800F8
F80078
FC0078
7C00F8
7E00F8
7E01F8
3F87F8
1FFFF0
0FFFE0
07FFC0
01FF00
ENDCHAR
STARTCHAR 00A8
ENCODING 168
SWIDTH 345 0
DWIDTH 23 0
BBX 24 9 0 50
BITMAP
1E0078
7F00FE
7F81FE
FF81FF
FFC3FF
FF81FF
7F81FE
7F80FE
1E0078
ENDCHAR
STARTCHAR 00A9
ENCODING 169
SWIDTH 840 0
DWIDTH 56 0
BBX 50 49 3 -1
BITMAP
000001F8000000
00007FFF800000
0003FFFFF00000
000FFF3FFC0000
001FC000FE0000
007F00001F8000
00FC000007C000
01F0000003E000
03E0000001F000
03C0000000F800
07800000007800
0F000000003C00
0E0007FC001E00
1E003FFF001E00
1C007FFF800F00
3C00FE1FC00F00
3801F803E00780
7803E001C00780
7803C000000380
7007C000000380
700780000003C0
700780000003C0
700700000003C0
F00F00000003C0
F00F00000003C0
F00F00000003C0
F00F00000003C0
700780000003C0
700780000003C0
70078000000380
7803C000000380
7803E001800780
3801F003C00780
3C00FC0FE00700
3C007FFFC00F00
1E003FFF000F00
1E000FFE001E00
0F0000E0003C00
07800000003C00
07C00000007800
03E0000000F000
01F0000003E000
00F8000007C000
007E00001F8000
003F80007F0000
000FF803FC0000
0003FFFFF80000
0000FFFFC00000
00001FFE000000
ENDCHAR
STARTCHAR 00AB
ENCODING 171
SWIDTH 510 0
DWIDTH 34 0
BBX 27 29 4 6
BITMAP
003F03E0
003E07C0
007C0F80
00F80F80
01F01F00
01F03E00
03E07C00
07C0FC00
0F80F800
0F81F000
1F03E000
3E07C000
7C07C000
7C0F8000
F81F0000
FC0F8000
7C0FC000
3E07C000
1F03E000
1F81F000
0F80F800
07C0F800
03E07C00
01F03E00
01F01F00
00F81F80
007C0F80
003E07C0
003E03E0
ENDCHAR
STARTCHAR 00AC
ENCODING 172
SWIDTH 540 0
DWIDTH 36 0
BBX 30 17 3 7
BITMAP
FFFFFFFC
FFFFFFFC
FFFFFFFC
FFFFFFFC
0000003C
0000003C
0000003C
0000003C
0000003C
0000003C
0000003C
0000003C
0000003C
0000003C
0000003C
0000003C
0000003C
ENDCHAR
STARTCHAR 00AE
ENCODING 174
SWIDTH 480 0
DWIDTH 32 0
BBX 26 26 3 22
BITMAP
003F8000
01FFF000
03F1F800
0F003C00
1E000E00
1C000700
387F8380
307FC180
7070E1C0
6070E1C0
6070E0C0
6071E0C0
E1FFC0C0
E1FF80C0
6073C0C0
6071C0C0
6070C1C0
7070C1C0
3070C380
38000380
1C000700
0E000E00
07803C00
03FFF800
00FFE000
00060000
ENDCHAR
STARTCHAR 00AF
ENCODING 175
SWIDTH 270 0
DWIDTH 18 0
BBX 19 4 0 53
BITMAP
FFFFE0
FFFFE0
FFFFE0
FFFFE0
ENDCHAR
STARTCHAR 00B0
ENCODING 176
SWIDTH 315 0
DWIDTH 21 0
BBX 15 14 3 33
BITMAP
0FE0
1FF8
3FFC
781C
700E
700E
E00E
E00E
700E
700E
781E
3FFC
1FF8
0FF0
ENDCHAR
STARTCHAR 00B1
ENCODING 177
SWIDTH 540 0
DWIDTH 36 0
BBX 30 27 3 7
BITMAP
0007C000
0007C000
0007C000
0007C000
0007C000
0007C000
0007C000
FFFFFFFC
FFFFFFFC
FFFFFFFC
FFFFFFFC
FFFFFFFC
0007C000
0007C000
0007C000
0007C000
0007C000
0007C000
0007C000
00000000
00000000
00000000
00000000
FFFFFFFC
FFFFFFFC
FFFFFFFC
FFFFFFFC
ENDCHAR
STARTCHAR 00B4
ENCODING 180
SWIDTH 150 0
DWIDTH 10 0
BBX 10 8 0 51
BITMAP
07C0
0F80
0F00
1E00
3C00
3C00
7800
F000
ENDCHAR
STARTCHAR 00B6
ENCODING 182
SWIDTH 450 0
DWIDTH 30 0
BBX 24 54 3 -7
BITMAP
003F87
01FF87
03FF87
0FFF87
1FFF87
1FFF87
3FFF87
3FFF87
7FFF87
7FFF87
7FFF87
7FFF87
FFFF87
FFFF87
7FFF87
7FFF87
7FFF87
7FFF87
3FFF87
3FFF87
1FFF87
0FFF87
07FF87
03FF87
00FF87
000F87
000787
000787
000787
000787
000787
000787
000787
000787
000787
000787
000787
000787
000787
000787
000787
000787
000787
000787
000787
000787
000787
000787
000787
000787
000787
000787
000787
000787
ENDCHAR
STARTCHAR 00B7
ENCODING 183
SWIDTH 240 0
DWIDTH 16 0
BBX 10 9 3 13
BITMAP
0C00
3F00
7F80
7FC0
FFC0
FFC0
7F80
7F80
3F00
ENDCHAR
STARTCHAR 00B8
ENCODING 184
SWIDTH 210 0
DWIDTH 14 0
BBX 14 14 0 -14
BITMAP
01C0
0380
03C0
03F0
00F8
0038
001C
001C
601C
F01C
783C
7FF8
1FF0
07C0
ENDCHAR
STARTCHAR 00BB
ENCODING 187
SWIDTH 510 0
DWIDTH 34 0
BBX 27 29 4 6
BITMAP
F81F0000
7C0F8000
7E07C000
3E07E000
1F03E000
0F81F000
0FC0F800
07C0FC00
03E07C00
01F03E00
01F81F00
00F80F80
007C0F80
003E07C0
003F03E0
003E07C0
007C07C0
00F80F80
00F81F00
01F03E00
03E07E00
07C07C00
07C0F800
0F81F000
1F03E000
3E03E000
7E07C000
7C0F8000
F81F0000
ENDCHAR
STARTCHAR 00BF
ENCODING 191
SWIDTH 405 0
DWIDTH 27 0
BBX 21 48 3 -7
BITMAP
001800
007E00
00FF00
00FF00
01FF80
01FF80
00FF00
00FF00
007E00
000000
000000
000000
000000
000000
000000
000000
003C00
003C00
003C00
003C00
003C00
007C00
007C00
007800
00F800
00F800
01F000
03E000
03E000
07C000
0F8000
1F8000
1F0000
3E0000
7C0000
7C0000
7C0000
780000
F80060
F80078
7C00F8
7C00F8
7E01F0
3F07F0
3FFFE0
1FFFC0
0FFF80
03FE00
ENDCHAR
STARTCHAR 00C0
ENCODING 192
SWIDTH 540 0
DWIDTH 36 0
BBX 33 59 3 0
BITMAP
00F0000000
00F8000000
007C000000
003C000000
001E000000
001E000000
000F000000
0007800000
0000000000
0000000000
0000000000
000F000000
00FFF00000
01FFFC0000
07FFFE0000
0FFFFF0000
1FE07F8000
1F801F8000
3F000FC000
3E0007C000
7E0003E000
7C0003E000
7C0003E000
7C0003F000
FC0001F000
F80001F000
F80001F000
F80001F000
F80001F000
F80001F000
F80001F000
F80001F000
F80001F000
F80001F000
F80001F000
F80001F000
F80001F000
F80001F000
F80001F000
F80001F000
F80001F000
F80001F000
F80001F000
F80001F000
F80001F000
F80001F000
F80001F000
F80001F000
F80001F000
F80001F000
F80001F000
F80001F000
F80001F000
F80001F000
FFFFFFFF80
FFFFFFFF80
FFFFFFFF80
FFFFFFFF80
FFFFFFFF80
ENDCHAR
STARTCHAR 00C1
ENCODING 193
SWIDTH 540 0
DWIDTH 36 0
BBX 33 59 3 0
BITMAP
0000F80000
0001F00000
0001E00000
0003C00000
0007800000
0007800000
000F000000
001E000000
0000000000
0000000000
0000000000
000F000000
00FFF00000
01FFFC0000
07FFFE0000
0FFFFF0000
1FE07F8000
1F801F8000
3F000FC000
3E0007C000
7E0003E000
7C0003E000
7C0003E000
7C0003F000
FC0001F000
F80001F000
F80001F000
F80001F000
F80001F000
F80001F000
F80001F000
F80001F000
F80001F000
F80001F000
F80001F000
F80001F000
F80001F000
F80001F000
F80001F000
F80001F000
F80001F000
F80001F000
F80001F000
F80001F000
F80001F000
F80001F000
F80001F000
F80001F000
F80001F000
F80001F000
F80001F000
F80001F000
F80001F000
F80001F000
FFFFFFFF80
FFFFFFFF80
FFFFFFFF80
FFFFFFFF80
FFFFFFFF80
ENDCHAR
STARTCHAR 00C2
ENCODING 194
SWIDTH 540 0
DWIDTH 36 0
BBX 33 59 3 0
BITMAP
001FC00000
003FC00000
007FE00000
00F9F00000
01F0F80000
01E07C0000
03C03C0000
07801E0000
0000000000
0000000000
0000000000
000F000000
00FFF00000
01FFFC0000
07FFFE0000
0FFFFF0000
1FE07F8000
1F801F8000
3F000FC000
3E0007C000
7E0003E000
7C0003E000
7C0003E000
7C0003F000
FC0001F000
F80001F000
F80001F000
F80001F000
F80001F000
F80001F000
F80001F000
F80001F000
F80001F000
F80001F000
F80001F000
F80001F000
F80001F000
F80001F000
F80001F000
F80001F000
F80001F000
F80001F000
F80001F000
F80001F000
F80001F000
F80001F000
F80001F000
F80001F000
F80001F000
F80001F000
F80001F000
F80001F000
F80001F000
F80001F000
FFFFFFFF80
FFFFFFFF80
FFFFFFFF80
FFFFFFFF80
FFFFFFFF80
ENDCHAR
STARTCHAR 00C3
ENCODING 195
SWIDTH 540 0
DWIDTH 36 0
BBX 33 59 3 0
BITMAP
0040000000
07FC080000
07FFF80000
07FFF80000
0407F80000
0000000000
0000000000
0000000000
0000000000
0000000000
0000000000
000F000000
00FFF00000
01FFFC0000
07FFFE0000
0FFFFF0000
1FE07F8000
1F801F8000
3F000FC000
3E0007C000
7E0003E000
7C0003E000
7C0003E000
7C0003F000
FC0001F000
F80001F000
F80001F000
F80001F000
F80001F000
F80001F000
F80001F000
F80001F000
F80001F000
F80001F000
F80001F000
F80001F000
F80001F000
F80001F000
F80001F000
F80001F000
F80001F000
F80001F000
F80001F000
F80001F000
F80001F000
F80001F000
F80001F000
F80001F000
F80001F000
F80001F000
F80001F000
F80001F000
F80001F000
F80001F000
FFFFFFFF80
FFFFFFFF80
FFFFFFFF80
FFFFFFFF80
FFFFFFFF80
ENDCHAR
STARTCHAR 00C4
ENCODING 196
SWIDTH 540 0
DWIDTH 36 0
BBX 33 59 3 0
BITMAP
07C01F0000
0FE03F8000
1FF07FC000
1FF07FC000
1FF07FC000
1FF07FC000
1FF07FC000
0FE03F8000
07C01F0000
0000000000
0000000000
000F000000
00FFF00000
01FFFC0000
07FFFE0000
0FFFFF0000
1FE07F8000
1F801F8000
3F000FC000
3E0007C000
7E0003E000
7C0003E000
7C0003E000
7C0003F000
FC0001F000
F80001F000
F80001F000
F80001F000
F80001F000
F80001F000
F80001F000
F80001F000
F80001F000
F80001F000
F80001F000
F80001F000
F80001F000
F80001F000
F80001F000
F80001F000
F80001F000
F80001F000
F80001F000
F80001F000
F80001F000
F80001F000
F80001F000
F80001F000
F80001F000
F80001F000
F80001F000
F80001F000
F80001F000
F80001F000
FFFFFFFF80
FFFFFFFF80
FFFFFFFF80
FFFFFFFF80
FFFFFFFF80
ENDCHAR
STARTCHAR 00C5
ENCODING 197
SWIDTH 540 0
DWIDTH 36 0
BBX 33 64 3 0
BITMAP
000F000000
003FC00000
007FE00000
00F0F00000
00E0700000
00E0380000
01C0380000
01C0380000
00E0700000
00F0F00000
007FF00000
007FE00000
001F800000
0000000000
0000000000
0000000000
000F000000
00FFF00000
01FFFC0000
07FFFE0000
0FFFFF0000
1FE07F8000
1F801F8000
3F000FC000
3E0007C000
7E0003E000
7C0003E000
7C0003E000
7C0003F000
FC0001F000
F80001F000
F80001F000
F80001F000
F80001F000
F80001F000
F80001F000
F80001F000
F80001F000
F80001F000
F80001F000
F80001F000
F80001F000
F80001F000
F80001F000
F80001F000
F80001F000
F80001F000
F80001F000
F80001F000
F80001F000
F80001F000
F80001F000
F80001F000
F80001F000
F80001F000
F80001F000
F80001F000
F80001F000
F80001F000
FFFFFFFF80
FFFFFFFF80
FFFFFFFF80
FFFFFFFF80
FFFFFFFF80
ENDCHAR
STARTCHAR 00C7
ENCODING 199
SWIDTH 675 0
DWIDTH 45 0
BBX 43 62 2 -14
BITMAP
000001F00000
00007FFF0000
0003FFFFE000
000FFFFFF800
001FFFFFFC00
007FF007FF00
00FF8000FF80
01FE00003FC0
03F800001FC0
07F0000007C0
0FE000000380
0FC000000100
1F8000000000
1F0000000000
3F0000000000
3E0000000000
7E0000000000
7C0000000000
7C0000000000
7C0000000000
FC0000000000
F80000000000
F80000000000
F80000000000
F80000000000
F80000000000
F80000000000
F80000000000
F80000000000
7C0000000000
7C0000000000
7C0000000000
7E0000000000
3E0000000000
3F0000000000
1F0000000000
1F8000000000
0FC000000000
0FE000000300
07F0000007C0
03F800000FE0
01FC00003FC0
00FF00007F80
007FE003FF00
003FFFFFFE00
000FFFFFF800
0007FFFFE000
0000FFFF8000
00000FFC0000
000007000000
000007800000
000007E00000
000001F00000
000000700000
000000380000
000000380000
0000C0380000
0001C0380000
0001F0700000
0000FFF00000
00003FE00000
00001F800000
ENDCHAR
STARTCHAR 00C8
ENCODING 200
SWIDTH 480 0
DWIDTH 32 0
BBX 31 59 1 0
BITMAP
00F80000
00780000
003C0000
003C0000
001E0000
000F0000
00070000
00078000
00000000
00000000
00000000
00000000
07FFFF00
07FFFF00
07FFFF00
07FFFF00
07FFFF00
07C00000
07C00000
07C00000
07C00000
07C00000
07C00000
07C00000
07C00000
07C00000
07C00000
07C00000
07C00000
07C00000
07C00000
07C00000
07C00000
FFFFFFE0
FFFFFFE0
FFFFFFE0
FFFFFFE0
FFFFFFE0
07C00000
07C00000
07C00000
07C00000
07C00000
07C00000
07C00000
07C00000
07C00000
07C00000
07C00000
07C00000
07C00000
07C00000
07C00000
07C00000
07FFFFFE
07FFFFFE
07FFFFFE
07FFFFFE
07FFFFFE
ENDCHAR
STARTCHAR 00C9
ENCODING 201
SWIDTH 480 0
DWIDTH 32 0
BBX 31 59 1 0
BITMAP
0000F800
0000F000
0001E000
0003C000
0003C000
00078000
000F0000
000E0000
00000000
00000000
00000000
00000000
07FFFF00
07FFFF00
07FFFF00
07FFFF00
07FFFF00
07C00000
07C00000
07C00000
07C00000
07C00000
07C00000
07C00000
07C00000
07C00000
07C00000
07C00000
07C00000
07C00000
07C00000
07C00000
07C00000
FFFFFFE0
FFFFFFE0
FFFFFFE0
FFFFFFE0
FFFFFFE0
07C00000
07C00000
07C00000
07C00000
07C00000
07C00000
07C00000
07C00000
07C00000
07C00000
07C00000
07C00000
07C00000
07C00000
07C00000
07C00000
07FFFFFE
07FFFFFE
07FFFFFE
07FFFFFE
07FFFFFE
ENDCHAR
STARTCHAR 00CA
ENCODING 202
SWIDTH 480 0
DWIDTH 32 0
BBX 31 59 1 0
BITMAP
001FC000
003FE000
007DF000
0078F000
00F0F800
01F07C00
03E03E00
07C01F00
00000000
00000000
00000000
00000000
07FFFF00
07FFFF00
07FFFF00
07FFFF00
07FFFF00
07C00000
07C00000
07C00000
07C00000
07C00000
07C00000
07C00000
07C00000
07C00000
07C00000
07C00000
07C00000
07C00000
07C00000
07C00000
07C00000
FFFFFFE0
FFFFFFE0
FFFFFFE0
FFFFFFE0
FFFFFFE0
07C00000
07C00000
07C00000
07C00000
07C00000
07C00000
07C00000
07C00000
07C00000
07C00000
07C00000
07C00000
07C00000
07C00000
07C00000
07C00000
07FFFFFE
07FFFFFE
07FFFFFE
07FFFFFE
07FFFFFE
ENDCHAR
STARTCHAR 00CB
ENCODING 203
SWIDTH 480 0
DWIDTH 32 0
BBX 31 59 1 0
BITMAP
03C00F00
0FE03F80
0FF03FC0
1FF07FC0
1FF07FC0
1FF07FC0
0FF03FC0
0FE03F80
03C00F00
00000000
00000000
00000000
07FFFF00
07FFFF00
07FFFF00
07FFFF00
07FFFF00
07C00000
07C00000
07C00000
07C00000
07C00000
07C00000
07C00000
07C00000
07C00000
07C00000
07C00000
07C00000
07C00000
07C00000
07C00000
07C00000
FFFFFFE0
FFFFFFE0
FFFFFFE0
FFFFFFE0
FFFFFFE0
07C00000
07C00000
07C00000
07C00000
07C00000
07C00000
07C00000
07C00000
07C00000
07C00000
07C00000
07C00000
07C00000
07C00000
07C00000
07C00000
07FFFFFE
07FFFFFE
07FFFFFE
07FFFFFE
07FFFFFE
ENDCHAR
STARTCHAR 00CC
ENCODING 204
SWIDTH 165 0
DWIDTH 11 0
BBX 10 41 -1 0
BITMAP
F800
7C00
3C00
1E00
0F00
0F00
0780
0380
0040
0000
0000
0000
0F80
0F80
0F80
0F80
0F80
0F80
0F80
0F80
0F80
0F80
0F80
0F80
0F80
0F80
0F80
0F80
0F80
0F80
0F80
0F80
0F80
0F80
0F80
0F80
0F80
0F80
0F80
0F80
0F80
ENDCHAR
STARTCHAR 00CD
ENCODING 205
SWIDTH 165 0
DWIDTH 11 0
BBX 9 41 3 0
BITMAP
0780
0F00
1F00
1E00
3C00
3800
7800
F000
0000
0000
0000
0000
F800
F800
F800
F800
F800
F800
F800
F800
F800
F800
F800
F800
F800
F800
F800
F800
F800
F800
F800
F800
F800
F800
F800
F800
F800
F800
F800
F800
F800
ENDCHAR
STARTCHAR 00CE
ENCODING 206
SWIDTH 165 0
DWIDTH 11 0
BBX 18 41 -3 0
BITMAP
07F000
07F800
0FFC00
1F3E00
3E1F00
7C0F00
780780
F003C0
000000
000000
000000
000000
03E000
03E000
03E000
03E000
03E000
03E000
03E000
03E000
03E000
03E000
03E000
03E000
03E000
03E000
03E000
03E000
03E000
03E000
03E000
03E000
03E000
03E000
03E000
03E000
03E000
03E000
03E000
03E000
03E000
ENDCHAR
STARTCHAR 00CF
ENCODING 207
SWIDTH 165 0
DWIDTH 11 0
BBX 23 41 -5 0
BITMAP
3C00F0
7F01FC
FF03FE
FF83FE
FF83FE
FF83FE
FF03FE
7F01FC
3C00F8
000000
000000
000000
00F800
00F800
00F800
00F800
00F800
00F800
00F800
00F800
00F800
00F800
00F800
00F800
00F800
00F800
00F800
00F800
00F800
00F800
00F800
00F800
00F800
00F800
00F800
00F800
00F800
00F800
00F800
00F800
00F800
ENDCHAR
STARTCHAR 00D1
ENCODING 209
SWIDTH 495 0
DWIDTH 33 0
BBX 29 59 1 0
BITMAP
00300000
01FF0200
01FFFE00
01FFFE00
0003FC00
00000000
00000000
00000000
00000000
00000000
00000000
20000000
380000F8
7C0000F8
FE0000F8
7F8000F8
3FC000F8
3FE000F8
3FF000F8
3FFC00F8
3FFE00F8
3E7F00F8
3E3F80F8
3E1FE0F8
3E0FF0F8
3E03F8F8
3E01FEF8
3E00FFF8
3E007FF8
3E001FF8
3E000FF8
3E0007F8
3E0001F8
3E0000F8
3E0000F8
3E0000F8
3E0000F8
3E0000F8
3E0000F8
3E0000F8
3E0000F8
3E0000F8
3E0000F8
3E0000F8
3E0000F8
3E0000F8
3E0000F8
3E0000F8
3E0000F8
3E0000F8
3E0000F8
3E0000F8
3E0000F8
3E0000F8
3E0000F8
3E0000F8
3E0000F8
3E0000F8
3E0000F8
ENDCHAR
STARTCHAR 00D2
ENCODING 210
SWIDTH 810 0
DWIDTH 54 0
BBX 50 60 2 -1
BITMAP
00003E00000000
00001F00000000
00000F00000000
00000780000000
000003C0000000
000003C0000000
000001E0000000
000000F0000000
00000000000000
00000000000000
00000000000000
000001F0000000
00007FFF800000
0003FFFFF00000
000FFFFFFC0000
001FFFFFFE0000
007FF003FF8000
00FF80007FC000
01FE00001FE000
03F8000007F000
07F0000003F800
07E0000001FC00
0FC0000000FC00
1F800000007E00
1F000000003E00
3F000000003F00
3E000000001F00
7E000000001F80
7C000000000F80
7C000000000F80
7C000000000F80
FC0000000007C0
F80000000007C0
F80000000007C0
F80000000007C0
F80000000007C0
F80000000007C0
F80000000007C0
F80000000007C0
F80000000007C0
7C000000000FC0
7C000000000F80
7C000000000F80
7E000000001F80
3E000000001F00
3F000000003F00
1F000000003F00
1F800000007E00
0FC0000000FC00
0FE0000001FC00
07F0000003F800
03F8000007F000
01FC00000FE000
00FF00003FC000
007FE001FF8000
003FFFFFFF0000
000FFFFFFC0000
0003FFFFF00000
0000FFFFC00000
00000FFC000000
ENDCHAR
STARTCHAR 00D3
ENCODING 211
SWIDTH 810 0
DWIDTH 54 0
BBX 50 60 2 -1
BITMAP
0000001E000000
0000003E000000
0000007C000000
00000078000000
000000F0000000
000000F0000000
000001E0000000
000003C0000000
00000000000000
00000000000000
00000000000000
000001F0000000
00007FFF800000
0003FFFFF00000
000FFFFFFC0000
001FFFFFFE0000
007FF003FF8000
00FF80007FC000
01FE00001FE000
03F8000007F000
07F0000003F800
07E0000001FC00
0FC0000000FC00
1F800000007E00
1F000000003E00
3F000000003F00
3E000000001F00
7E000000001F80
7C000000000F80
7C000000000F80
7C000000000F80
FC0000000007C0
F80000000007C0
F80000000007C0
F80000000007C0
F80000000007C0
F80000000007C0
F80000000007C0
F80000000007C0
F80000000007C0
7C000000000FC0
7C000000000F80
7C000000000F80
7E000000001F80
3E000000001F00
3F000000003F00
1F000000003F00
1F800000007E00
0FC0000000FC00
0FE0000001FC00
07F0000003F800
03F8000007F000
01FC00000FE000
00FF00003FC000
007FE001FF8000
003FFFFFFF0000
000FFFFFFC0000
0003FFFFF00000
0000FFFFC00000
00000FFC000000
ENDCHAR
STARTCHAR 00D4
ENCODING 212
SWIDTH 810 0
DWIDTH 54 0
BBX 50 60 2 -1
BITMAP
000003F8000000
000007F8000000
00000FFC000000
00001F3E000000
00003E1F000000
00003C0F800000
00007807800000
0000F003C00000
00000000000000
00000000000000
00000000000000
000001F0000000
00007FFF800000
0003FFFFF00000
000FFFFFFC0000
001FFFFFFE0000
007FF003FF8000
00FF80007FC000
01FE00001FE000
03F8000007F000
07F0000003F800
07E0000001FC00
0FC0000000FC00
1F800000007E00
1F000000003E00
3F000000003F00
3E000000001F00
7E000000001F80
7C000000000F80
7C000000000F80
7C000000000F80
FC0000000007C0
F80000000007C0
F80000000007C0
F80000000007C0
F80000000007C0
F80000000007C0
F80000000007C0
F80000000007C0
F80000000007C0
7C000000000FC0
7C000000000F80
7C000000000F80
7E000000001F80
3E000000001F00
3F000000003F00
1F000000003F00
1F800000007E00
0FC0000000FC00
0FE0000001FC00
07F0000003F800
03F8000007F000
01FC00000FE000
00FF00003FC000
007FE001FF8000
003FFFFFFF0000
000FFFFFFC0000
0003FFFFF00000
0000FFFFC00000
00000FFC000000
ENDCHAR
STARTCHAR 00D5
ENCODING 213
SWIDTH 810 0
DWIDTH 54 0
BBX 50 60 2 -1
BITMAP
00000800000000
0000FF81000000
0000FFFF000000
0000FFFF000000
000080FF000000
00000000000000
00000000000000
00000000000000
00000000000000
00000000000000
00000000000000
000001F0000000
00007FFF800000
0003FFFFF00000
000FFFFFFC0000
001FFFFFFE0000
007FF003FF8000
00FF80007FC000
01FE00001FE000
03F8000007F000
07F0000003F800
07E0000001FC00
0FC0000000FC00
1F800000007E00
1F000000003E00
3F000000003F00
3E000000001F00
7E000000001F80
7C000000000F80
7C000000000F80
7C000000000F80
FC0000000007C0
F80000000007C0
F80000000007C0
F80000000007C0
F80000000007C0
F80000000007C0
F80000000007C0
F80000000007C0
F80000000007C0
7C000000000FC0
7C000000000F80
7C000000000F80
7E000000001F80
3E000000001F00
3F000000003F00
1F000000003F00
1F800000007E00
0FC0000000FC00
0FE0000001FC00
07F0000003F800
03F8000007F000
01FC00000FE000
00FF00003FC000
007FE001FF8000
003FFFFFFF0000
000FFFFFFC0000
0003FFFFF00000
0000FFFFC00000
00000FFC000000
ENDCHAR
STARTCHAR 00D6
ENCODING 214
SWIDTH 810 0
DWIDTH 54 0
BBX 50 60 2 -1
BITMAP
0000F803E00000
0001FC07F00000
0003FE0FF80000
0003FE0FF80000
0003FE0FF80000
0003FE0FF80000
0003FE0FF80000
0001FC07F00000
0000F803E00000
00000000000000
00000000000000
000001F0000000
00007FFF800000
0003FFFFF00000
000FFFFFFC0000
001FFFFFFE0000
007FF003FF8000
00FF80007FC000
01FE00001FE000
03F8000007F000
07F0000003F800
07E0000001FC00
0FC0000000FC00
1F800000007E00
1F000000003E00
3F000000003F00
3E000000001F00
7E000000001F80
7C000000000F80
7C000000000F80
7C000000000F80
FC0000000007C0
F80000000007C0
F80000000007C0
F80000000007C0
F80000000007C0
F80000000007C0
F80000000007C0
F80000000007C0
F80000000007C0
7C000000000FC0
7C000000000F80
7C000000000F80
7E000000001F80
3E000000001F00
3F000000003F00
1F000000003F00
1F800000007E00
0FC0000000FC00
0FE0000001FC00
07F0000003F800
03F8000007F000
01FC00000FE000
00FF00003FC000
007FE001FF8000
003FFFFFFF0000
000FFFFFFC0000
0003FFFFF00000
0000FFFFC00000
00000FFC000000
ENDCHAR
STARTCHAR 00D7
ENCODING 215
SWIDTH 495 0
DWIDTH 33 0
BBX 26 27 4 9
BITMAP
20000000
70000300
F8000780
FC000FC0
7E001F80
3F003F00
1F807E00
0FC0FC00
07E1F800
03F3F000
01FFE000
00FFC000
007F8000
003F0000
007F8000
00FFC000
01FFE000
03F3F000
07E1F800
0FC0FC00
1F807E00
3F003F00
7E001F80
FC000FC0
F80007C0
70000380
20000100
ENDCHAR
STARTCHAR 00D8
ENCODING 216
SWIDTH 780 0
DWIDTH 52 0
BBX 50 51 1 -2
BITMAP
00000000000800
000003F8001C00
00007FFF801E00
0001FFFFF03E00
0007FFFFFC7C00
001FFFFFFFF800
003FF803FFF000
00FF80007FE000
01FE00001FE000
03FC00000FF000
03F000000FF800
07E000001FFC00
0FC000003EFE00
0F8000007C7E00
1F800000F83F00
1F000001F01F00
3F000003E01F80
3E000007E00F80
7E000007C00F80
7C00000F800FC0
7C00001F0007C0
7C00003E0007C0
7C00007C0007C0
7C0000F80007C0
F80001F80007C0
F80001F00007C0
F80003E00007C0
FC0007C00007C0
7C000F800007C0
7C001F000007C0
7C003E000007C0
7C007C00000FC0
7E00FC00000F80
3E00F800000F80
3E01F000001F80
3F03E000001F00
1F87C000003F00
1F8F8000007E00
0FDF0000007E00
07FF000000FC00
07FE000001F800
03FC000007F000
01FE00000FF000
01FF80003FE000
03FFE001FF8000
07DFFFFFFF0000
0F8FFFFFFC0000
1F83FFFFF80000
1F007FFFC00000
0E000FFC000000
04000000000000
ENDCHAR
STARTCHAR 00D9
ENCODING 217
SWIDTH 495 0
DWIDTH 33 0
BBX 27 60 3 -1
BITMAP
01F00000
00F00000
00780000
007C0000
003C0000
001E0000
000E0000
000F0000
00000000
00000000
00000000
00000000
F80003E0
F80003E0
F80003E0
F80003E0
F80003E0
F80003E0
F80003E0
F80003E0
F80003E0
F80003E0
F80003E0
F80003E0
F80003E0
F80003E0
F80003E0
F80003E0
F80003E0
F80003E0
F80003E0
F80003E0
F80003E0
F80003E0
F80003E0
F80003E0
F80003E0
F80003E0
F80003E0
F80003E0
F80003E0
F80003E0
F80003E0
F80003E0
F80003E0
F80003E0
F80003E0
F80003E0
F80003E0
FC0007E0
7C0007C0
7E0007C0
3E000FC0
3F001F80
1FC07F00
1FFFFF00
0FFFFE00
03FFFC00
01FFF000
003F8000
ENDCHAR
STARTCHAR 00DA
ENCODING 218
SWIDTH 495 0
DWIDTH 33 0
BBX 27 60 3 -1
BITMAP
0001F000
0001E000
0003C000
0007C000
00078000
000F0000
001E0000
001C0000
00000000
00000000
00000000
00000000
F80003E0
F80003E0
F80003E0
F80003E0
F80003E0
F80003E0
F80003E0
F80003E0
F80003E0
F80003E0
F80003E0
F80003E0
F80003E0
F80003E0
F80003E0
F80003E0
F80003E0
F80003E0
F80003E0
F80003E0
F80003E0
F80003E0
F80003E0
F80003E0
F80003E0
F80003E0
F80003E0
F80003E0
F80003E0
F80003E0
F80003E0
F80003E0
F80003E0
F80003E0
F80003E0
F80003E0
F80003E0
FC0007E0
7C0007C0
7E0007C0
3E000FC0
3F001F80
1FC07F00
1FFFFF00
0FFFFE00
03FFFC00
01FFF000
003F8000
ENDCHAR
STARTCHAR 00DB
ENCODING 219
SWIDTH 495 0
DWIDTH 33 0
BBX 27 60 3 -1
BITMAP
003F8000
007FC000
00FBE000
00F1E000
01E0F000
03E0F800
07C07C00
0F803E00
00000000
00000000
00000000
00000000
F80003E0
F80003E0
F80003E0
F80003E0
F80003E0
F80003E0
F80003E0
F80003E0
F80003E0
F80003E0
F80003E0
F80003E0
F80003E0
F80003E0
F80003E0
F80003E0
F80003E0
F80003E0
F80003E0
F80003E0
F80003E0
F80003E0
F80003E0
F80003E0
F80003E0
F80003E0
F80003E0
F80003E0
F80003E0
F80003E0
F80003E0
F80003E0
F80003E0
F80003E0
F80003E0
F80003E0
F80003E0
FC0007E0
7C0007C0
7E0007C0
3E000FC0
3F001F80
1FC07F00
1FFFFF00
0FFFFE00
03FFFC00
01FFF000
003F8000
ENDCHAR
STARTCHAR 00DC
ENCODING 220
SWIDTH 495 0
DWIDTH 33 0
BBX 27 60 3 -1
BITMAP
07801E00
1FC07F00
1FE07F80
3FE0FF80
3FE0FFC0
3FE0FF80
1FE07F80
1FC07F00
07801E00
00000000
00000000
00000000
F80003E0
F80003E0
F80003E0
F80003E0
F80003E0
F80003E0
F80003E0
F80003E0
F80003E0
F80003E0
F80003E0
F80003E0
F80003E0
F80003E0
F80003E0
F80003E0
F80003E0
F80003E0
F80003E0
F80003E0
F80003E0
F80003E0
F80003E0
F80003E0
F80003E0
F80003E0
F80003E0
F80003E0
F80003E0
F80003E0
F80003E0
F80003E0
F80003E0
F80003E0
F80003E0
F80003E0
F80003E0
FC0007E0
7C0007C0
7E0007C0
3E000FC0
3F001F80
1FC07F00
1FFFFF00
0FFFFE00
03FFFC00
01FFF000
003F8000
ENDCHAR
STARTCHAR 00DD
ENCODING 221
SWIDTH 480 0
DWIDTH 32 0
BBX 28 59 2 0
BITMAP
0000F800
0001F000
0001E000
0003C000
00078000
00078000
000F0000
000E0000
00100000
00000000
00000000
00000000
F80001F0
F80001F0
F80001F0
F80001F0
F80001F0
F80001F0
F80001F0
F80001F0
F80001F0
F80001F0
F80001F0
F80001F0
F80001F0
F80001F0
F80001F0
F80001F0
F80001F0
F80001F0
F80001F0
F80001F0
F80001F0
FC0001F0
7C0001F0
7C0001F0
7C0003F0
7C0003E0
7E0003E0
3E0007E0
3F0007C0
1F801FC0
1FC03F80
0FFFFF00
07FFFE00
03FFFC00
00FFF000
001FC000
000F8000
000F8000
000F8000
000F8000
000F8000
000F8000
000F8000
000F8000
000F8000
000F8000
000F8000
ENDCHAR
STARTCHAR 00E0
ENCODING 224
SWIDTH 540 0
DWIDTH 36 0
BBX 33 59 3 0
BITMAP
00F0000000
00F8000000
007C000000
003C000000
001E000000
001E000000
000F000000
0007800000
0000000000
0000000000
0000000000
000F000000
00FFF00000
01FFFC0000
07FFFE0000
0FFFFF0000
1FE07F8000
1F801F8000
3F000FC000
3E0007C000
7E0003E000
7C0003E000
7C0003E000
7C0003F000
FC0001F000
F80001F000
F80001F000
F80001F000
F80001F000
F80001F000
F80001F000
F80001F000
F80001F000
F80001F000
F80001F000
F80001F000
F80001F000
F80001F000
F80001F000
F80001F000
F80001F000
F80001F000
F80001F000
F80001F000
F80001F000
F80001F000
F80001F000
F80001F000
F80001F000
F80001F000
F80001F000
F80001F000
F80001F000
F80001F000
FFFFFFFF80
FFFFFFFF80
FFFFFFFF80
FFFFFFFF80
FFFFFFFF80
ENDCHAR
STARTCHAR 00E1
ENCODING 225
SWIDTH 540 0
DWIDTH 36 0
BBX 33 59 3 0
BITMAP
0000F80000
0001F00000
0001E00000
0003C00000
0007800000
0007800000
000F000000
001E000000
0000000000
0000000000
0000000000
000F000000
00FFF00000
01FFFC0000
07FFFE0000
0FFFFF0000
1FE07F8000
1F801F8000
3F000FC000
3E0007C000
7E0003E000
7C0003E000
7C0003E000
7C0003F000
FC0001F000
F80001F000
F80001F000
F80001F000
F80001F000
F80001F000
F80001F000
F80001F000
F80001F000
F80001F000
F80001F000
F80001F000
F80001F000
F80001F000
F80001F000
F80001F000
F80001F000
F80001F000
F80001F000
F80001F000
F80001F000
F80001F000
F80001F000
F80001F000
F80001F000
F80001F000
F80001F000
F80001F000
F80001F000
F80001F000
FFFFFFFF80
FFFFFFFF80
FFFFFFFF80
FFFFFFFF80
FFFFFFFF80
ENDCHAR
STARTCHAR 00E2
ENCODING 226
SWIDTH 540 0
DWIDTH 36 0
BBX 33 59 3 0
BITMAP
001FC00000
003FC00000
007FE00000
00F9F00000
01F0F80000
01E07C0000
03C03C0000
07801E0000
0000000000
0000000000
0000000000
000F000000
00FFF00000
01FFFC0000
07FFFE0000
0FFFFF0000
1FE07F8000
1F801F8000
3F000FC000
3E0007C000
7E0003E000
7C0003E000
7C0003E000
7C0003F000
FC0001F000
F80001F000
F80001F000
F80001F000
F80001F000
F80001F000
F80001F000
F80001F000
F80001F000
F80001F000
F80001F000
F80001F000
F80001F000
F80001F000
F80001F000
F80001F000
F80001F000
F80001F000
F80001F000
F80001F000
F80001F000
F80001F000
F80001F000
F80001F000
F80001F000
F80001F000
F80001F000
F80001F000
F80001F000
F80001F000
FFFFFFFF80
FFFFFFFF80
FFFFFFFF80
FFFFFFFF80
FFFFFFFF80
ENDCHAR
STARTCHAR 00E3
ENCODING 227
SWIDTH 540 0
DWIDTH 36 0
BBX 33 59 3 0
BITMAP
0040000000
07FC080000
07FFF80000
07FFF80000
0407F80000
0000000000
0000000000
0000000000
0000000000
0000000000
0000000000
000F000000
00FFF00000
01FFFC0000
07FFFE0000
0FFFFF0000
1FE07F8000
1F801F8000
3F000FC000
3E0007C000
7E0003E000
7C0003E000
7C0003E000
7C0003F000
FC0001F000
F80001F000
F80001F000
F80001F000
F80001F000
F80001F000
F80001F000
F80001F000
F80001F000
F80001F000
F80001F000
F80001F000
F80001F000
F80001F000
F80001F000
F80001F000
F80001F000
F80001F000
F80001F000
F80001F000
F80001F000
F80001F000
F80001F000
F80001F000
F80001F000
F80001F000
F80001F000
F80001F000
F80001F000
F80001F000
FFFFFFFF80
FFFFFFFF80
FFFFFFFF80
FFFFFFFF80
FFFFFFFF80
ENDCHAR
STARTCHAR 00E4
ENCODING 228
SWIDTH 540 0
DWIDTH 36 0
BBX 33 59 3 0
BITMAP
07C01F0000
0FE03F8000
1FF07FC000
1FF07FC000
1FF07FC000
1FF07FC000
1FF07FC000
0FE03F8000
07C01F0000
0000000000
0000000000
000F000000
00FFF00000
01FFFC0000
07FFFE0000
0FFFFF0000
1FE07F8000
1F801F8000
3F000FC000
3E0007C000
7E0003E000
7C0003E000
7C0003E000
7C0003F000
FC0001F000
F80001F000
F80001F000
F80001F000
F80001F000
F80001F000
F80001F000
F80001F000
F80001F000
F80001F000
F80001F000
F80001F000
F80001F000
F80001F000
F80001F000
F80001F000
F80001F000
F80001F000
F80001F000
F80001F000
F80001F000
F80001F000
F80001F000
F80001F000
F80001F000
F80001F000
F80001F000
F80001F000
F80001F000
F80001F000
FFFFFFFF80
FFFFFFFF80
FFFFFFFF80
FFFFFFFF80
FFFFFFFF80
ENDCHAR
STARTCHAR 00E5
ENCODING 229
SWIDTH 540 0
DWIDTH 36 0
BBX 33 64 3 0
BITMAP
000F000000
003FC00000
007FE00000
00F0F00000
00E0700000
00E0380000
01C0380000
01C0380000
00E0700000
00F0F00000
007FF00000
007FE00000
001F800000
0000000000
0000000000
0000000000
000F000000
00FFF00000
01FFFC0000
07FFFE0000
0FFFFF0000
1FE07F8000
1F801F8000
3F000FC000
3E0007C000
7E0003E000
7C0003E000
7C0003E000
7C0003F000
FC0001F000
F80001F000
F80001F000
F80001F000
F80001F000
F80001F000
F80001F000
F80001F000
F80001F000
F80001F000
F80001F000
F80001F000
F80001F000
F80001F000
F80001F000
F80001F000
F80001F000
F80001F000
F80001F000
F80001F000
F80001F000
F80001F000
F80001F000
F80001F000
F80001F000
F80001F000
F80001F000
F80001F000
F80001F000
F80001F000
FFFFFFFF80
FFFFFFFF80
FFFFFFFF80
FFFFFFFF80
FFFFFFFF80
ENDCHAR
STARTCHAR 00E7
ENCODING 231
SWIDTH 675 0
DWIDTH 45 0
BBX 43 62 2 -14
BITMAP
000001F00000
00007FFF0000
0003FFFFE000
000FFFFFF800
001FFFFFFC00
007FF007FF00
00FF8000FF80
01FE00003FC0
03F800001FC0
07F0000007C0
0FE000000380
0FC000000100
1F8000000000
1F0000000000
3F0000000000
3E0000000000
7E0000000000
7C0000000000
7C0000000000
7C0000000000
FC0000000000
F80000000000
F80000000000
F80000000000
F80000000000
F80000000000
F80000000000
F80000000000
F80000000000
7C0000000000
7C0000000000
7C0000000000
7E0000000000
3E0000000000
3F0000000000
1F0000000000
1F8000000000
0FC000000000
0FE000000300
07F0000007C0
03F800000FE0
01FC00003FC0
00FF00007F80
007FE003FF00
003FFFFFFE00
000FFFFFF800
0007FFFFE000
0000FFFF8000
00000FFC0000
000007000000
000007800000
000007E00000
000001F00000
000000700000
000000380000
000000380000
0000C0380000
0001C0380000
0001F0700000
0000FFF00000
00003FE00000
00001F800000
ENDCHAR
STARTCHAR 00E8
ENCODING 232
SWIDTH 480 0
DWIDTH 32 0
BBX 31 59 1 0
BITMAP
00F80000
00780000
003C0000
003C0000
001E0000
000F0000
00070000
00078000
00000000
00000000
00000000
00000000
07FFFF00
07FFFF00
07FFFF00
07FFFF00
07FFFF00
07C00000
07C00000
07C00000
07C00000
07C00000
07C00000
07C00000
07C00000
07C00000
07C00000
07C00000
07C00000
07C00000
07C00000
07C00000
07C00000
FFFFFFE0
FFFFFFE0
FFFFFFE0
FFFFFFE0
FFFFFFE0
07C00000
07C00000
07C00000
07C00000
07C00000
07C00000
07C00000
07C00000
07C00000
07C00000
07C00000
07C00000
07C00000
07C00000
07C00000
07C00000
07FFFFFE
07FFFFFE
07FFFFFE
07FFFFFE
07FFFFFE
ENDCHAR
STARTCHAR 00E9
ENCODING 233
SWIDTH 480 0
DWIDTH 32 0
BBX 31 59 1 0
BITMAP
0000F800
0000F000
0001E000
0003C000
0003C000
00078000
000F0000
000E0000
00000000
00000000
00000000
00000000
07FFFF00
07FFFF00
07FFFF00
07FFFF00
07FFFF00
07C00000
07C00000
07C00000
07C00000
07C00000
07C00000
07C00000
07C00000
07C00000
07C00000
07C00000
07C00000
07C00000
07C00000
07C00000
07C00000
FFFFFFE0
FFFFFFE0
FFFFFFE0
FFFFFFE0
FFFFFFE0
07C00000
07C00000
07C00000
07C00000
07C00000
07C00000
07C00000
07C00000
07C00000
07C00000
07C00000
07C00000
07C00000
07C00000
07C00000
07C00000
07FFFFFE
07FFFFFE
07FFFFFE
07FFFFFE
07FFFFFE
ENDCHAR
STARTCHAR 00EA
ENCODING 234
SWIDTH 480 0
DWIDTH 32 0
BBX 31 59 1 0
BITMAP
001FC000
003FE000
007DF000
0078F000
00F0F800
01F07C00
03E03E00
07C01F00
00000000
00000000
00000000
00000000
07FFFF00
07FFFF00
07FFFF00
07FFFF00
07FFFF00
07C00000
07C00000
07C00000
07C00000
07C00000
07C00000
07C00000
07C00000
07C00000
07C00000
07C00000
07C00000
07C00000
07C00000
07C00000
07C00000
FFFFFFE0
FFFFFFE0
FFFFFFE0
FFFFFFE0
FFFFFFE0
07C00000
07C00000
07C00000
07C00000
07C00000
07C00000
07C00000
07C00000
07C00000
07C00000
07C00000
07C00000
07C00000
07C00000
07C00000
07C00000
07FFFFFE
07FFFFFE
07FFFFFE
07FFFFFE
07FFFFFE
ENDCHAR
STARTCHAR 00EB
ENCODING 235
SWIDTH 480 0
DWIDTH 32 0
BBX 31 59 1 0
BITMAP
03C00F00
0FE03F80
0FF03FC0
1FF07FC0
1FF07FC0
1FF07FC0
0FF03FC0
0FE03F80
03C00F00
00000000
00000000
00000000
07FFFF00
07FFFF00
07FFFF00
07FFFF00
07FFFF00
07C00000
07C00000
07C00000
07C00000
07C00000
07C00000
07C00000
07C00000
07C00000
07C00000
07C00000
07C00000
07C00000
07C00000
07C00000
07C00000
FFFFFFE0
FFFFFFE0
FFFFFFE0
FFFFFFE0
FFFFFFE0
07C00000
07C00000
07C00000
07C00000
07C00000
07C00000
07C00000
07C00000
07C00000
07C00000
07C00000
07C00000
07C00000
07C00000
07C00000
07C00000
07FFFFFE
07FFFFFE
07FFFFFE
07FFFFFE
07FFFFFE
ENDCHAR
STARTCHAR 00EC
ENCODING 236
SWIDTH 165 0
DWIDTH 11 0
BBX 10 41 -1 0
BITMAP
F800
7C00
3C00
1E00
0F00
0F00
0780
0380
0040
0000
0000
0000
0F80
0F80
0F80
0F80
0F80
0F80
0F80
0F80
0F80
0F80
0F80
0F80
0F80
0F80
0F80
0F80
0F80
0F80
0F80
0F80
0F80
0F80
0F80
0F80
0F80
0F80
0F80
0F80
0F80
ENDCHAR
STARTCHAR 00ED
ENCODING 237
SWIDTH 165 0
DWIDTH 11 0
BBX 9 41 3 0
BITMAP
0780
0F00
1F00
1E00
3C00
3800
7800
F000
0000
0000
0000
0000
F800
F800
F800
F800
F800
F800
F800
F800
F800
F800
F800
F800
F800
F800
F800
F800
F800
F800
F800
F800
F800
F800
F800
F800
F800
F800
F800
F800
F800
ENDCHAR
STARTCHAR 00EE
ENCODING 238
SWIDTH 165 0
DWIDTH 11 0
BBX 18 41 -3 0
BITMAP
07F000
07F800
0FFC00
1F3E00
3E1F00
7C0F00
780780
F003C0
000000
000000
000000
000000
03E000
03E000
03E000
03E000
03E000
03E000
03E000
03E000
03E000
03E000
03E000
03E000
03E000
03E000
03E000
03E000
03E000
03E000
03E000
03E000
03E000
03E000
03E000
03E000
03E000
03E000
03E000
03E000
03E000
ENDCHAR
STARTCHAR 00EF
ENCODING 239
SWIDTH 165 0
DWIDTH 11 0
BBX 23 41 -5 0
BITMAP
3C00F0
7F01FC
FF03FE
FF83FE
FF83FE
FF83FE
FF03FE
7F01FC
3C00F8
000000
000000
000000
00F800
00F800
00F800
00F800
00F800
00F800
00F800
00F800
00F800
00F800
00F800
00F800
00F800
00F800
00F800
00F800
00F800
00F800
00F800
00F800
00F800
00F800
00F800
00F800
00F800
00F800
00F800
00F800
00F800
ENDCHAR
STARTCHAR 00F1
ENCODING 241
SWIDTH 495 0
DWIDTH 33 0
BBX 29 59 1 0
BITMAP
00300000
01FF0200
01FFFE00
01FFFE00
0003FC00
00000000
00000000
00000000
00000000
00000000
00000000
20000000
380000F8
7C0000F8
FE0000F8
7F8000F8
3FC000F8
3FE000F8
3FF000F8
3FFC00F8
3FFE00F8
3E7F00F8
3E3F80F8
3E1FE0F8
3E0FF0F8
3E03F8F8
3E01FEF8
3E00FFF8
3E007FF8
3E001FF8
3E000FF8
3E0007F8
3E0001F8
3E0000F8
3E0000F8
3E0000F8
3E0000F8
3E0000F8
3E0000F8
3E0000F8
3E0000F8
3E0000F8
3E0000F8
3E0000F8
3E0000F8
3E0000F8
3E0000F8
3E0000F8
3E0000F8
3E0000F8
3E0000F8
3E0000F8
3E0000F8
3E0000F8
3E0000F8
3E0000F8
3E0000F8
3E0000F8
3E0000F8
ENDCHAR
STARTCHAR 00F2
ENCODING 242
SWIDTH 810 0
DWIDTH 54 0
BBX 50 60 2 -1
BITMAP
00003E00000000
00001F00000000
00000F00000000
00000780000000
000003C0000000
000003C0000000
000001E0000000
000000F0000000
00000000000000
00000000000000
00000000000000
000001F0000000
00007FFF800000
0003FFFFF00000
000FFFFFFC0000
001FFFFFFE0000
007FF003FF8000
00FF80007FC000
01FE00001FE000
03F8000007F000
07F0000003F800
07E0000001FC00
0FC0000000FC00
1F800000007E00
1F000000003E00
3F000000003F00
3E000000001F00
7E000000001F80
7C000000000F80
7C000000000F80
7C000000000F80
FC0000000007C0
F80000000007C0
F80000000007C0
F80000000007C0
F80000000007C0
F80000000007C0
F80000000007C0
F80000000007C0
F80000000007C0
7C000000000FC0
7C000000000F80
7C000000000F80
7E000000001F80
3E000000001F00
3F000000003F00
1F000000003F00
1F800000007E00
0FC0000000FC00
0FE0000001FC00
07F0000003F800
03F8000007F000
01FC00000FE000
00FF00003FC000
007FE001FF8000
003FFFFFFF0000
000FFFFFFC0000
0003FFFFF00000
0000FFFFC00000
00000FFC000000
ENDCHAR
STARTCHAR 00F3
ENCODING 243
SWIDTH 810 0
DWIDTH 54 0
BBX 50 60 2 -1
BITMAP
0000001E000000
0000003E000000
0000007C000000
00000078000000
000000F0000000
000000F0000000
000001E0000000
000003C0000000
00000000000000
00000000000000
00000000000000
000001F0000000
00007FFF800000
0003FFFFF00000
000FFFFFFC0000
001FFFFFFE0000
007FF003FF8000
00FF80007FC000
01FE00001FE000
03F8000007F000
07F0000003F800
07E0000001FC00
0FC0000000FC00
1F800000007E00
1F000000003E00
3F000000003F00
3E000000001F00
7E000000001F80
7C000000000F80
7C000000000F80
7C000000000F80
FC0000000007C0
F80000000007C0
F80000000007C0
F80000000007C0
F80000000007C0
F80000000007C0
F80000000007C0
F80000000007C0
F80000000007C0
7C000000000FC0
7C000000000F80
7C000000000F80
7E000000001F80
3E000000001F00
3F000000003F00
1F000000003F00
1F800000007E00
0FC0000000FC00
0FE0000001FC00
07F0000003F800
03F8000007F000
01FC00000FE000
00FF00003FC000
007FE001FF8000
003FFFFFFF0000
000FFFFFFC0000
0003FFFFF00000
0000FFFFC00000
00000FFC000000
ENDCHAR
STARTCHAR 00F4
ENCODING 244
SWIDTH 810 0
DWIDTH 54 0
BBX 50 60 2 -1
BITMAP
000003F8000000
000007F8000000
00000FFC000000
00001F3E000000
00003E1F000000
00003C0F800000
00007807800000
0000F003C00000
00000000000000
00000000000000
00000000000000
000001F0000000
00007FFF800000
0003FFFFF00000
000FFFFFFC0000
001FFFFFFE0000
007FF003FF8000
00FF80007FC000
01FE00001FE000
03F8000007F000
07F0000003F800
07E0000001FC00
0FC0000000FC00
1F800000007E00
1F000000003E00
3F000000003F00
3E000000001F00
7E000000001F80
7C000000000F80
7C000000000F80
7C000000000F80
FC0000000007C0
F80000000007C0
F80000000007C0
F80000000007C0
F80000000007C0
F80000000007C0
F80000000007C0
F80000000007C0
F80000000007C0
7C000000000FC0
7C000000000F80
7C000000000F80
7E000000001F80
3E000000001F00
3F000000003F00
1F000000003F00
1F800000007E00
0FC0000000FC00
0FE0000001FC00
07F0000003F800
03F8000007F000
01FC00000FE000
00FF00003FC000
007FE001FF8000
003FFFFFFF0000
000FFFFFFC0000
0003FFFFF00000
0000FFFFC00000
00000FFC000000
ENDCHAR
STARTCHAR 00F5
ENCODING 245
SWIDTH 810 0
DWIDTH 54 0
BBX 50 60 2 -1
BITMAP
00000800000000
0000FF81000000
0000FFFF000000
0000FFFF000000
000080FF000000
00000000000000
00000000000000
00000000000000
00000000000000
00000000000000
00000000000000
000001F0000000
00007FFF800000
0003FFFFF00000
000FFFFFFC0000
001FFFFFFE0000
007FF003FF8000
00FF80007FC000
01FE00001FE000
03F8000007F000
07F0000003F800
07E0000001FC00
0FC0000000FC00
1F800000007E00
1F000000003E00
3F000000003F00
3E000000001F00
7E000000001F80
7C000000000F80
7C000000000F80
7C000000000F80
FC0000000007C0
F80000000007C0
F80000000007C0
F80000000007C0
F80000000007C0
F80000000007C0
F80000000007C0
F80000000007C0
F80000000007C0
7C000000000FC0
7C000000000F80
7C000000000F80
7E000000001F80
3E000000001F00
3F000000003F00
1F000000003F00
1F800000007E00
0FC0000000FC00
0FE0000001FC00
07F0000003F800
03F8000007F000
01FC00000FE000
00FF00003FC000
007FE001FF8000
003FFFFFFF0000
000FFFFFFC0000
0003FFFFF00000
0000FFFFC00000
00000FFC000000
ENDCHAR
STARTCHAR 00F6
ENCODING 246
SWIDTH 810 0
DWIDTH 54 0
BBX 50 60 2 -1
BITMAP
0000F803E00000
0001FC07F00000
0003FE0FF80000
0003FE0FF80000
0003FE0FF80000
0003FE0FF80000
0003FE0FF80000
0001FC07F00000
0000F803E00000
00000000000000
00000000000000
000001F0000000
00007FFF800000
0003FFFFF00000
000FFFFFFC0000
001FFFFFFE0000
007FF003FF8000
00FF80007FC000
01FE00001FE000
03F8000007F000
07F0000003F800
07E0000001FC00
0FC0000000FC00
1F800000007E00
1F000000003E00
3F000000003F00
3E000000001F00
7E000000001F80
7C000000000F80
7C000000000F80
7C000000000F80
FC0000000007C0
F80000000007C0
F80000000007C0
F80000000007C0
F80000000007C0
F80000000007C0
F80000000007C0
F80000000007C0
F80000000007C0
7C000000000FC0
7C000000000F80
7C000000000F80
7E000000001F80
3E000000001F00
3F000000003F00
1F000000003F00
1F800000007E00
0FC0000000FC00
0FE0000001FC00
07F0000003F800
03F8000007F000
01FC00000FE000
00FF00003FC000
007FE001FF8000
003FFFFFFF0000
000FFFFFFC0000
0003FFFFF00000
0000FFFFC00000
00000FFC000000
ENDCHAR
STARTCHAR 00F7
ENCODING 247
SWIDTH 540 0
DWIDTH 36 0
BBX 30 28 3 7
BITMAP
0007C000
000FE000
001FE000
001FE000
001FE000
000FE000
0007C000
00010000
00000000
00000000
00000000
00000000
FFFFFFFC
FFFFFFFC
FFFFFFFC
FFFFFFFC
00000000
00000000
00000000
00000000
0007C000
000FE000
001FE000
001FE000
001FE000
000FE000
000FC000
00030000
ENDCHAR
STARTCHAR 00F8
ENCODING 248
SWIDTH 780 0
DWIDTH 52 0
BBX 50 51 1 -2
BITMAP
00000000000800
000003F8001C00
00007FFF801E00
0001FFFFF03E00
0007FFFFFC7C00
001FFFFFFFF800
003FF803FFF000
00FF80007FE000
01FE00001FE000
03FC00000FF000
03F000000FF800
07E000001FFC00
0FC000003EFE00
0F8000007C7E00
1F800000F83F00
1F000001F01F00
3F000003E01F80
3E000007E00F80
7E000007C00F80
7C00000F800FC0
7C00001F0007C0
7C00003E0007C0
7C00007C0007C0
7C0000F80007C0
F80001F80007C0
F80001F00007C0
F80003E00007C0
FC0007C00007C0
7C000F800007C0
7C001F000007C0
7C003E000007C0
7C007C00000FC0
7E00FC00000F80
3E00F800000F80
3E01F000001F80
3F03E000001F00
1F87C000003F00
1F8F8000007E00
0FDF0000007E00
07FF000000FC00
07FE000001F800
03FC000007F000
01FE00000FF000
01FF80003FE000
03FFE001FF8000
07DFFFFFFF0000
0F8FFFFFFC0000
1F83FFFFF80000
1F007FFFC00000
0E000FFC000000
04000000000000
ENDCHAR
STARTCHAR 00F9
ENCODING 249
SWIDTH 495 0
DWIDTH 33 0
BBX 27 60 3 -1
BITMAP
01F00000
00F00000
00780000
007C0000
003C0000
001E0000
000E0000
000F0000
00000000
00000000
00000000
00000000
F80003E0
F80003E0
F80003E0
F80003E0
F80003E0
F80003E0
F80003E0
F80003E0
F80003E0
F80003E0
F80003E0
F80003E0
F80003E0
F80003E0
F80003E0
F80003E0
F80003E0
F80003E0
F80003E0
F80003E0
F80003E0
F80003E0
F80003E0
F80003E0
F80003E0
F80003E0
F80003E0
F80003E0
F80003E0
F80003E0
F80003E0
F80003E0
F80003E0
F80003E0
F80003E0
F80003E0
F80003E0
FC0007E0
7C0007C0
7E0007C0
3E000FC0
3F001F80
1FC07F00
1FFFFF00
0FFFFE00
03FFFC00
01FFF000
003F8000
ENDCHAR
STARTCHAR 00FA
ENCODING 250
SWIDTH 495 0
DWIDTH 33 0
BBX 27 60 3 -1
BITMAP
0001F000
0001E000
0003C000
0007C000
00078000
000F0000
001E0000
001C0000
00000000
00000000
00000000
00000000
F80003E0
F80003E0
F80003E0
F80003E0
F80003E0
F80003E0
F80003E0
F80003E0
F80003E0
F80003E0
F80003E0
F80003E0
F80003E0
F80003E0
F80003E0
F80003E0
F80003E0
F80003E0
F80003E0
F80003E0
F80003E0
F80003E0
F80003E0
F80003E0
F80003E0
F80003E0
F80003E0
F80003E0
F80003E0
F80003E0
F80003E0
F80003E0
F80003E0
F80003E0
F80003E0
F80003E0
F80003E0
FC0007E0
7C0007C0
7E0007C0
3E000FC0
3F001F80
1FC07F00
1FFFFF00
0FFFFE00
03FFFC00
01FFF000
003F8000
ENDCHAR
STARTCHAR 00FB
ENCODING 251
SWIDTH 495 0
DWIDTH 33 0
BBX 27 60 3 -1
BITMAP
003F8000
007FC000
00FBE000
00F1E000
01E0F000
03E0F800
07C07C00
0F803E00
00000000
00000000
00000000
00000000
F80003E0
F80003E0
F80003E0
F80003E0
F80003E0
F80003E0
F80003E0
F80003E0
F80003E0
F80003E0
F80003E0
F80003E0
F80003E0
F80003E0
F80003E0
F80003E0
F80003E0
F80003E0
F80003E0
F80003E0
F80003E0
F80003E0
F80003E0
F80003E0
F80003E0
F80003E0
F80003E0
F80003E0
F80003E0
F80003E0
F80003E0
F80003E0
F80003E0
F80003E0
F80003E0
F80003E0
F80003E0
FC0007E0
7C0007C0
7E0007C0
3E000FC0
3F001F80
1FC07F00
1FFFFF00
0FFFFE00
03FFFC00
01FFF000
003F8000
ENDCHAR
STARTCHAR 00FC
ENCODING 252
SWIDTH 495 0
DWIDTH 33 0
BBX 27 60 3 -1
BITMAP
07801E00
1FC07F00
1FE07F80
3FE0FF80
3FE0FFC0
3FE0FF80
1FE07F80
1FC07F00
07801E00
00000000
00000000
00000000
F80003E0
F80003E0
F80003E0
F80003E0
F80003E0
F80003E0
F80003E0
F80003E0
F80003E0
F80003E0
F80003E0
F80003E0
F80003E0
F80003E0
F80003E0
F80003E0
F80003E0
F80003E0
F80003E0
F80003E0
F80003E0
F80003E0
F80003E0
F80003E0
F80003E0
F80003E0
F80003E0
F80003E0
F80003E0
F80003E0
F80003E0
F80003E0
F80003E0
F80003E0
F80003E0
F80003E0
F80003E0
FC0007E0
7C0007C0
7E0007C0
3E000FC0
3F001F80
1FC07F00
1FFFFF00
0FFFFE00
03FFFC00
01FFF000
003F8000
ENDCHAR
STARTCHAR 00FD
ENCODING 253
SWIDTH 480 0
DWIDTH 32 0
BBX 28 59 2 0
BITMAP
0000F800
0001F000
0001E000
0003C000
00078000
00078000
000F0000
000E0000
00100000
00000000
00000000
00000000
F80001F0
F80001F0
F80001F0
F80001F0
F80001F0
F80001F0
F80001F0
F80001F0
F80001F0
F80001F0
F80001F0
F80001F0
F80001F0
F80001F0
F80001F0
F80001F0
F80001F0
F80001F0
F80001F0
F80001F0
F80001F0
FC0001F0
7C0001F0
7C0001F0
7C0003F0
7C0003E0
7E0003E0
3E0007E0
3F0007C0
1F801FC0
1FC03F80
0FFFFF00
07FFFE00
03FFFC00
00FFF000
001FC000
000F8000
000F8000
000F8000
000F8000
000F8000
000F8000
000F8000
000F8000
000F8000
000F8000
000F8000
ENDCHAR
STARTCHAR 00FF
ENCODING 255
SWIDTH 480 0
DWIDTH 32 0
BBX 28 59 2 0
BITMAP
07C01F00
0FE03F80
1FF07FC0
1FF07FC0
1FF07FC0
1FF07FC0
1FF07FC0
0FE03F80
07C01F00
00000000
00000000
00000000
F80001F0
F80001F0
F80001F0
F80001F0
F80001F0
F80001F0
F80001F0
F80001F0
F80001F0
F80001F0
F80001F0
F80001F0
F80001F0
F80001F0
F80001F0
F80001F0
F80001F0
F80001F0
F80001F0
F80001F0
F80001F0
FC0001F0
7C0001F0
7C0001F0
7C0003F0
7C0003E0
7E0003E0
3E0007E0
3F0007C0
1F801FC0
1FC03F80
0FFFFF00
07FFFE00
03FFFC00
00FFF000
001FC000
000F8000
000F8000
000F8000
000F8000
000F8000
000F8000
000F8000
000F8000
000F8000
000F8000
000F8000
ENDCHAR
STARTCHAR 0100
ENCODING 256
SWIDTH 540 0
DWIDTH 36 0
BBX 33 57 3 0
BITMAP
07FFFE0000
07FFFE0000
07FFFE0000
07FFFE0000
0000000000
0000000000
0000000000
0000000000
0000000000
000F000000
00FFF00000
01FFFC0000
07FFFE0000
0FFFFF0000
1FE07F8000
1F801F8000
3F000FC000
3E0007C000
7E0003E000
7C0003E000
7C0003E000
7C0003F000
FC0001F000
F80001F000
F80001F000
F80001F000
F80001F000
F80001F000
F80001F000
F80001F000
F80001F000
F80001F000
F80001F000
F80001F000
F80001F000
F80001F000
F80001F000
F80001F000
F80001F000
F80001F000
F80001F000
F80001F000
F80001F000
F80001F000
F80001F000
F80001F000
F80001F000
F80001F000
F80001F000
F80001F000
F80001F000
F80001F000
FFFFFFFF80
FFFFFFFF80
FFFFFFFF80
FFFFFFFF80
FFFFFFFF80
ENDCHAR
STARTCHAR 0101
ENCODING 257
SWIDTH 540 0
DWIDTH 36 0
BBX 33 57 3 0
BITMAP
07FFFE0000
07FFFE0000
07FFFE0000
07FFFE0000
0000000000
0000000000
0000000000
0000000000
0000000000
000F000000
00FFF00000
01FFFC0000
07FFFE0000
0FFFFF0000
1FE07F8000
1F801F8000
3F000FC000
3E0007C000
7E0003E000
7C0003E000
7C0003E000
7C0003F000
FC0001F000
F80001F000
F80001F000
F80001F000
F80001F000
F80001F000
F80001F000
F80001F000
F80001F000
F80001F000
F80001F000
F80001F000
F80001F000
F80001F000
F80001F000
F80001F000
F80001F000
F80001F000
F80001F000
F80001F000
F80001F000
F80001F000
F80001F000
F80001F000
F80001F000
F80001F000
F80001F000
F80001F000
F80001F000
F80001F000
FFFFFFFF80
FFFFFFFF80
FFFFFFFF80
FFFFFFFF80
FFFFFFFF80
ENDCHAR
STARTCHAR 0102
ENCODING 258
SWIDTH 540 0
DWIDTH 36 0
BBX 33 59 3 0
BITMAP
07801E0000
07801E0000
03801C0000
03C03C0000
01E0780000
00FFF80000
007FF00000
003FC00000
0000000000
0000000000
0000000000
000F000000
00FFF00000
01FFFC0000
07FFFE0000
0FFFFF0000
1FE07F8000
1F801F8000
3F000FC000
3E0007C000
7E0003E000
7C0003E000
7C0003E000
7C0003F000
FC0001F000
F80001F000
F80001F000
F80001F000
F80001F000
F80001F000
F80001F000
F80001F000
F80001F000
F80001F000
F80001F000
F80001F000
F80001F000
F80001F000
F80001F000
F80001F000
F80001F000
F80001F000
F80001F000
F80001F000
F80001F000
F80001F000
F80001F000
F80001F000
F80001F000
F80001F000
F80001F000
F80001F000
F80001F000
F80001F000
FFFFFFFF80
FFFFFFFF80
FFFFFFFF80
FFFFFFFF80
FFFFFFFF80
ENDCHAR
STARTCHAR 0103
ENCODING 259
SWIDTH 540 0
DWIDTH 36 0
BBX 33 59 3 0
BITMAP
07801E0000
07801E0000
03801C0000
03C03C0000
01E0780000
00FFF80000
007FF00000
003FC00000
0000000000
0000000000
0000000000
000F000000
00FFF00000
01FFFC0000
07FFFE0000
0FFFFF0000
1FE07F8000
1F801F8000
3F000FC000
3E0007C000
7E0003E000
7C0003E000
7C0003E000
7C0003F000
FC0001F000
F80001F000
F80001F000
F80001F000
F80001F000
F80001F000
F80001F000
F80001F000
F80001F000
F80001F000
F80001F000
F80001F000
F80001F000
F80001F000
F80001F000
F80001F000
F80001F000
F80001F000
F80001F000
F80001F000
F80001F000
F80001F000
F80001F000
F80001F000
F80001F000
F80001F000
F80001F000
F80001F000
F80001F000
F80001F000
FFFFFFFF80
FFFFFFFF80
FFFFFFFF80
FFFFFFFF80
FFFFFFFF80
ENDCHAR
STARTCHAR 0104
ENCODING 260
SWIDTH 540 0
DWIDTH 36 0
BBX 35 60 3 -12
BITMAP
000F000000
00FFF00000
01FFFC0000
07FFFE0000
0FFFFF0000
1FE07F8000
1F801F8000
3F000FC000
3E0007C000
7E0003E000
7C0003E000
7C0003E000
7C0003F000
FC0001F000
F80001F000
F80001F000
F80001F000
F80001F000
F80001F000
F80001F000
F80001F000
F80001F000
F80001F000
F80001F000
F80001F000
F80001F000
F80001F000
F80001F000
F80001F000
F80001F000
F80001F000
F80001F000
F80001F000
F80001F000
F80001F000
F80001F000
F80001F000
F80001F000
F80001F000
F80001F000
F80001F000
F80001F000
F80001F000
FFFFFFFF80
FFFFFFFF80
FFFFFFFF80
FFFFFFFF80
FFFFFFFF80
0000003C00
0000007800
000000F000
000000E000
000001C000
000001C000
000001C000
000001C000
000001E1E0
000000FFE0
0000007FC0
0000001F00
ENDCHAR
STARTCHAR 0105
ENCODING 261
SWIDTH 540 0
DWIDTH 36 0
BBX 35 60 3 -12
BITMAP
000F000000
00FFF00000
01FFFC0000
07FFFE0000
0FFFFF0000
1FE07F8000
1F801F8000
3F000FC000
3E0007C000
7E0003E000
7C0003E000
7C0003E000
7C0003F000
FC0001F000
F80001F000
F80001F000
F80001F000
F80001F000
F80001F000
F80001F000
F80001F000
F80001F000
F80001F000
F80001F000
F80001F000
F80001F000
F80001F000
F80001F000
F80001F000
F80001F000
F80001F000
F80001F000
F80001F000
F80001F000
F80001F000
F80001F000
F80001F000
F80001F000
F80001F000
F80001F000
F80001F000
F80001F000
F80001F000
FFFFFFFF80
FFFFFFFF80
FFFFFFFF80
FFFFFFFF80
FFFFFFFF80
0000003C00
0000007800
000000F000
000000E000
000001C000
000001C000
000001C000
000001C000
000001E1E0
000000FFE0
0000007FC0
0000001F00
ENDCHAR
STARTCHAR 0106
ENCODING 262
SWIDTH 675 0
DWIDTH 45 0
BBX 43 60 2 -1
BITMAP
0000003E0000
0000003C0000
000000780000
000000F80000
000000F00000
000001E00000
000001C00000
000003C00000
000000000000
000000000000
000000000000
000001F00000
00007FFF0000
0003FFFFE000
000FFFFFF800
001FFFFFFC00
007FF007FF00
00FF8000FF80
01FE00003FC0
03F800001FC0
07F0000007C0
0FE000000380
0FC000000100
1F8000000000
1F0000000000
3F0000000000
3E0000000000
7E0000000000
7C0000000000
7C0000000000
7C0000000000
FC0000000000
F80000000000
F80000000000
F80000000000
F80000000000
F80000000000
F80000000000
F80000000000
F80000000000
7C0000000000
7C0000000000
7C0000000000
7E0000000000
3E0000000000
3F0000000000
1F0000000000
1F8000000000
0FC000000000
0FE000000300
07F0000007C0
03F800000FE0
01FC00003FC0
00FF00007F80
007FE003FF00
003FFFFFFE00
000FFFFFF800
0003FFFFE000
0000FFFF8000
00001FFC0000
ENDCHAR
STARTCHAR 0107
ENCODING 263
SWIDTH 675 0
DWIDTH 45 0
BBX 43 60 2 -1
BITMAP
0000003E0000
0000003C0000
000000780000
000000F80000
000000F00000
000001E00000
000001C00000
000003C00000
000000000000
000000000000
000000000000
000001F00000
00007FFF0000
0003FFFFE000
000FFFFFF800
001FFFFFFC00
007FF007FF00
00FF8000FF80
01FE00003FC0
03F800001FC0
07F0000007C0
0FE000000380
0FC000000100
1F8000000000
1F0000000000
3F0000000000
3E0000000000
7E0000000000
7C0000000000
7C0000000000
7C0000000000
FC0000000000
F80000000000
F80000000000
F80000000000
F80000000000
F80000000000
F80000000000
F80000000000
F80000000000
7C0000000000
7C0000000000
7C0000000000
7E0000000000
3E0000000000
3F0000000000
1F0000000000
1F8000000000
0FC000000000
0FE000000300
07F0000007C0
03F800000FE0
01FC00003FC0
00FF00007F80
007FE003FF00
003FFFFFFE00
000FFFFFF800
0003FFFFE000
0000FFFF8000
00001FFC0000
ENDCHAR
STARTCHAR 010A
ENCODING 266
SWIDTH 675 0
DWIDTH 45 0
BBX 43 62 2 -1
BITMAP
000001E00000
000003F00000
000007F80000
00000FF80000
00000FFC0000
00000FFC0000
000007F80000
000007F80000
000003F00000
000000000000
000000000000
000000000000
000000000000
000001F00000
00007FFF0000
0003FFFFE000
000FFFFFF800
001FFFFFFC00
007FF007FF00
00FF8000FF80
01FE00003FC0
03F800001FC0
07F0000007C0
0FE000000380
0FC000000100
1F8000000000
1F0000000000
3F0000000000
3E0000000000
7E0000000000
7C0000000000
7C0000000000
7C0000000000
FC0000000000
F80000000000
F80000000000
F80000000000
F80000000000
F80000000000
F80000000000
F80000000000
F80000000000
7C0000000000
7C0000000000
7C0000000000
7E0000000000
3E0000000000
3F0000000000
1F0000000000
1F8000000000
0FC000000000
0FE000000300
07F0000007C0
03F800000FE0
01FC00003FC0
00FF00007F80
007FE003FF00
003FFFFFFE00
000FFFFFF800
0003FFFFE000
0000FFFF8000
00001FFC0000
ENDCHAR
STARTCHAR 010B
ENCODING 267
SWIDTH 675 0
DWIDTH 45 0
BBX 43 62 2 -1
BITMAP
000001E00000
000003F00000
000007F80000
00000FF80000
00000FFC0000
00000FFC0000
000007F80000
000007F80000
000003F00000
000000000000
000000000000
000000000000
000000000000
000001F00000
00007FFF0000
0003FFFFE000
000FFFFFF800
001FFFFFFC00
007FF007FF00
00FF8000FF80
01FE00003FC0
03F800001FC0
07F0000007C0
0FE000000380
0FC000000100
1F8000000000
1F0000000000
3F0000000000
3E0000000000
7E0000000000
7C0000000000
7C0000000000
7C0000000000
FC0000000000
F80000000000
F80000000000
F80000000000
F80000000000
F80000000000
F80000000000
F80000000000
F80000000000
7C0000000000
7C0000000000
7C0000000000
7E0000000000
3E0000000000
3F0000000000
1F0000000000
1F8000000000
0FC000000000
0FE000000300
07F0000007C0
03F800000FE0
01FC00003FC0
00FF00007F80
007FE003FF00
003FFFFFFE00
000FFFFFF800
0003FFFFE000
0000FFFF8000
00001FFC0000
ENDCHAR
STARTCHAR 010C
ENCODING 268
SWIDTH 675 0
DWIDTH 45 0
BBX 43 61 2 -1
BITMAP
0001F007C000
0000F8078000
00007C0F0000
00003E1E0000
00001E3E0000
00001F7C0000
00000FF80000
000007F00000
000003E00000
000000000000
000000000000
000000000000
000001F00000
00007FFF0000
0003FFFFE000
000FFFFFF800
001FFFFFFC00
007FF007FF00
00FF8000FF80
01FE00003FC0
03F800001FC0
07F0000007C0
0FE000000380
0FC000000100
1F8000000000
1F0000000000
3F0000000000
3E0000000000
7E0000000000
7C0000000000
7C0000000000
7C0000000000
FC0000000000
F80000000000
F80000000000
F80000000000
F80000000000
F80000000000
F80000000000
F80000000000
F80000000000
7C0000000000
7C0000000000
7C0000000000
7E0000000000
3E0000000000
3F0000000000
1F0000000000
1F8000000000
0FC000000000
0FE000000300
07F0000007C0
03F800000FE0
01FC00003FC0
00FF00007F80
007FE003FF00
003FFFFFFE00
000FFFFFF800
0003FFFFE000
0000FFFF8000
00001FFC0000
ENDCHAR
STARTCHAR 010D
ENCODING 269
SWIDTH 675 0
DWIDTH 45 0
BBX 43 61 2 -1
BITMAP
0001F007C000
0000F8078000
00007C0F0000
00003E1E0000
00001E3E0000
00001F7C0000
00000FF80000
000007F00000
000003E00000
000000000000
000000000000
000000000000
000001F00000
00007FFF0000
0003FFFFE000
000FFFFFF800
001FFFFFFC00
007FF007FF00
00FF8000FF80
01FE00003FC0
03F800001FC0
07F0000007C0
0FE000000380
0FC000000100
1F8000000000
1F0000000000
3F0000000000
3E0000000000
7E0000000000
7C0000000000
7C0000000000
7C0000000000
FC0000000000
F80000000000
F80000000000
F80000000000
F80000000000
F80000000000
F80000000000
F80000000000
F80000000000
7C0000000000
7C0000000000
7C0000000000
7E0000000000
3E0000000000
3F0000000000
1F0000000000
1F8000000000
0FC000000000
0FE000000300
07F0000007C0
03F800000FE0
01FC00003FC0
00FF00007F80
007FE003FF00
003FFFFFFE00
000FFFFFF800
0003FFFFE000
0000FFFF8000
00001FFC0000
ENDCHAR
STARTCHAR 010E
ENCODING 270
SWIDTH 630 0
DWIDTH 42 0
BBX 37 60 3 0
BITMAP
07C00F0000
03E01E0000
01F03C0000
00F87C0000
007CF80000
003DF00000
003FE00000
001FC00000
000FC00000
0000000000
0000000000
0000000000
0000000000
FFFC000000
FFFFF80000
FFFFFF0000
FFFFFFC000
FFFFFFF000
F8007FF800
F80007FC00
F80001FE00
F800007F00
F800003F80
F800001FC0
F800000FC0
F8000007E0
F8000003E0
F8000003F0
F8000001F0
F8000001F0
F8000001F0
F8000000F8
F8000000F8
F8000000F8
F8000000F8
F8000000F8
F8000000F8
F8000000F8
F8000000F8
F8000000F8
F8000000F8
F8000000F8
F8000001F8
F8000001F0
F8000001F0
F8000003F0
F8000003E0
F8000007E0
F8000007C0
F800000FC0
F800001F80
F800007F00
F80000FF00
F80003FE00
F8001FFC00
FFFFFFF000
FFFFFFE000
FFFFFF8000
FFFFFC0000
FFFFC00000
ENDCHAR
STARTCHAR 010F
ENCODING 271
SWIDTH 630 0
DWIDTH 42 0
BBX 37 60 3 0
BITMAP
07C00F0000
03E01E0000
01F03C0000
00F87C0000
007CF80000
003DF00000
003FE00000
001FC00000
000FC00000
0000000000
0000000000
0000000000
0000000000
FFFC000000
FFFFF80000
FFFFFF0000
FFFFFFC000
FFFFFFF000
F8007FF800
F80007FC00
F80001FE00
F800007F00
F800003F80
F800001FC0
F800000FC0
F8000007E0
F8000003E0
F8000003F0
F8000001F0
F8000001F0
F8000001F0
F8000000F8
F8000000F8
F8000000F8
F8000000F8
F8000000F8
F8000000F8
F8000000F8
F8000000F8
F8000000F8
F8000000F8
F8000000F8
F8000001F8
F8000001F0
F8000001F0
F8000003F0
F8000003E0
F8000007E0
F8000007C0
F800000FC0
F800001F80
F800007F00
F80000FF00
F80003FE00
F8001FFC00
FFFFFFF000
FFFFFFE000
FFFFFF8000
FFFFFC0000
FFFFC00000
ENDCHAR
STARTCHAR 0110
ENCODING 272
SWIDTH 675 0
DWIDTH 45 0
BBX 42 47 1 0
BITMAP
07FFE0000000
07FFFF800000
07FFFFF00000
07FFFFFE0000
07FFFFFF0000
07C003FFC000
07C0003FE000
07C0000FF000
07C00003F800
07C00001FC00
07C00000FC00
07C000007E00
07C000003E00
07C000003F00
07C000001F00
07C000001F80
07C000000F80
07C000000F80
07C000000F80
07C000000FC0
07C0000007C0
FFFFFE0007C0
FFFFFE0007C0
FFFFFE0007C0
FFFFFE0007C0
07C0000007C0
07C0000007C0
07C0000007C0
07C000000F80
07C000000F80
07C000000F80
07C000001F80
07C000001F00
07C000001F00
07C000003F00
07C000007E00
07C00000FE00
07C00001FC00
07C00003F800
07C0000FF000
07C0003FE000
07C001FFC000
07FFFFFF8000
07FFFFFE0000
07FFFFF80000
07FFFFE00000
07FFFE000000
ENDCHAR
STARTCHAR 0111
ENCODING 273
SWIDTH 675 0
DWIDTH 45 0
BBX 42 47 1 0
BITMAP
07FFE0000000
07FFFF800000
07FFFFF00000
07FFFFFE0000
07FFFFFF0000
07C003FFC000
07C0003FE000
07C0000FF000
07C00003F800
07C00001FC00
07C00000FC00
07C000007E00
07C000003E00
07C000003F00
07C000001F00
07C000001F80
07C000000F80
07C000000F80
07C000000F80
07C000000FC0
07C0000007C0
FFFFFE0007C0
FFFFFE0007C0
FFFFFE0007C0
FFFFFE0007C0
07C0000007C0
07C0000007C0
07C0000007C0
07C000000F80
07C000000F80
07C000000F80
07C000001F80
07C000001F00
07C000001F00
07C000003F00
07C000007E00
07C00000FE00
07C00001FC00
07C00003F800
07C0000FF000
07C0003FE000
07C001FFC000
07FFFFFF8000
07FFFFFE0000
07FFFFF80000
07FFFFE00000
07FFFE000000
ENDCHAR
STARTCHAR 0112
ENCODING 274
SWIDTH 480 0
DWIDTH 32 0
BBX 31 57 1 0
BITMAP
07FFFF00
07FFFF00
07FFFF00
07FFFF00
00000000
00000000
00000000
00000000
00000000
00000000
07FFFF00
07FFFF00
07FFFF00
07FFFF00
07FFFF00
07C00000
07C00000
07C00000
07C00000
07C00000
07C00000
07C00000
07C00000
07C00000
07C00000
07C00000
07C00000
07C00000
07C00000
07C00000
07C00000
FFFFFFE0
FFFFFFE0
FFFFFFE0
FFFFFFE0
FFFFFFE0
07C00000
07C00000
07C00000
07C00000
07C00000
07C00000
07C00000
07C00000
07C00000
07C00000
07C00000
07C00000
07C00000
07C00000
07C00000
07C00000
07FFFFFE
07FFFFFE
07FFFFFE
07FFFFFE
07FFFFFE
ENDCHAR
STARTCHAR 0113
ENCODING 275
SWIDTH 480 0
DWIDTH 32 0
BBX 31 57 1 0
BITMAP
07FFFF00
07FFFF00
07FFFF00
07FFFF00
00000000
00000000
00000000
00000000
00000000
00000000
07FFFF00
07FFFF00
07FFFF00
07FFFF00
07FFFF00
07C00000
07C00000
07C00000
07C00000
07C00000
07C00000
07C00000
07C00000
07C00000
07C00000
07C00000
07C00000
07C00000
07C00000
07C00000
07C00000
FFFFFFE0
FFFFFFE0
FFFFFFE0
FFFFFFE0
FFFFFFE0
07C00000
07C00000
07C00000
07C00000
07C00000
07C00000
07C00000
07C00000
07C00000
07C00000
07C00000
07C00000
07C00000
07C00000
07C00000
07C00000
07FFFFFE
07FFFFFE
07FFFFFE
07FFFFFE
07FFFFFE
ENDCHAR
STARTCHAR 0116
ENCODING 278
SWIDTH 480 0
DWIDTH 32 0
BBX 31 61 1 0
BITMAP
00078000
001FC000
001FE000
003FE000
003FE000
003FE000
003FE000
001FC000
000F8000
00000000
00000000
00000000
00000000
00000000
07FFFF00
07FFFF00
07FFFF00
07FFFF00
07FFFF00
07C00000
07C00000
07C00000
07C00000
07C00000
07C00000
07C00000
07C00000
07C00000
07C00000
07C00000
07C00000
07C00000
07C00000
07C00000
07C00000
FFFFFFE0
FFFFFFE0
FFFFFFE0
FFFFFFE0
FFFFFFE0
07C00000
07C00000
07C00000
07C00000
07C00000
07C00000
07C00000
07C00000
07C00000
07C00000
07C00000
07C00000
07C00000
07C00000
07C00000
07C00000
07FFFFFE
07FFFFFE
07FFFFFE
07FFFFFE
07FFFFFE
ENDCHAR
STARTCHAR 0117
ENCODING 279
SWIDTH 480 0
DWIDTH 32 0
BBX 31 61 1 0
BITMAP
00078000
001FC000
001FE000
003FE000
003FE000
003FE000
003FE000
001FC000
000F8000
00000000
00000000
00000000
00000000
00000000
07FFFF00
07FFFF00
07FFFF00
07FFFF00
07FFFF00
07C00000
07C00000
07C00000
07C00000
07C00000
07C00000
07C00000
07C00000
07C00000
07C00000
07C00000
07C00000
07C00000
07C00000
07C00000
07C00000
FFFFFFE0
FFFFFFE0
FFFFFFE0
FFFFFFE0
FFFFFFE0
07C00000
07C00000
07C00000
07C00000
07C00000
07C00000
07C00000
07C00000
07C00000
07C00000
07C00000
07C00000
07C00000
07C00000
07C00000
07C00000
07FFFFFE
07FFFFFE
07FFFFFE
07FFFFFE
07FFFFFE
ENDCHAR
STARTCHAR 0118
ENCODING 280
SWIDTH 480 0
DWIDTH 32 0
BBX 33 59 1 -12
BITMAP
07FFFF0000
07FFFF0000
07FFFF0000
07FFFF0000
07FFFF0000
07C0000000
07C0000000
07C0000000
07C0000000
07C0000000
07C0000000
07C0000000
07C0000000
07C0000000
07C0000000
07C0000000
07C0000000
07C0000000
07C0000000
07C0000000
07C0000000
FFFFFFE000
FFFFFFE000
FFFFFFE000
FFFFFFE000
FFFFFFE000
07C0000000
07C0000000
07C0000000
07C0000000
07C0000000
07C0000000
07C0000000
07C0000000
07C0000000
07C0000000
07C0000000
07C0000000
07C0000000
07C0000000
07C0000000
07C0000000
07FFFFFE00
07FFFFFE00
07FFFFFE00
07FFFFFE00
07FFFFFE00
0000007800
000000F000
000001C000
000003C000
0000038000
0000038000
0000038000
0000038100
000003C380
000001FF80
000000FF00
0000007C00
ENDCHAR
STARTCHAR 0119
ENCODING 281
SWIDTH 480 0
DWIDTH 32 0
BBX 33 59 1 -12
BITMAP
07FFFF0000
07FFFF0000
07FFFF0000
07FFFF0000
07FFFF0000
07C0000000
07C0000000
07C0000000
07C0000000
07C0000000
07C0000000
07C0000000
07C0000000
07C0000000
07C0000000
07C0000000
07C0000000
07C0000000
07C0000000
07C0000000
07C0000000
FFFFFFE000
FFFFFFE000
FFFFFFE000
FFFFFFE000
FFFFFFE000
07C0000000
07C0000000
07C0000000
07C0000000
07C0000000
07C0000000
07C0000000
07C0000000
07C0000000
07C0000000
07C0000000
07C0000000
07C0000000
07C0000000
07C0000000
07C0000000
07FFFFFE00
07FFFFFE00
07FFFFFE00
07FFFFFE00
07FFFFFE00
0000007800
000000F000
000001C000
000003C000
0000038000
0000038000
0000038000
0000038100
000003C380
000001FF80
000000FF00
0000007C00
ENDCHAR
STARTCHAR 011A
ENCODING 282
SWIDTH 480 0
DWIDTH 32 0
BBX 31 60 1 0
BITMAP
07C01F00
03E03E00
01E03C00
00F07800
00F8F000
007DF000
003FE000
001FC000
000F8000
00000000
00000000
00000000
00000000
07FFFF00
07FFFF00
07FFFF00
07FFFF00
07FFFF00
07C00000
07C00000
07C00000
07C00000
07C00000
07C00000
07C00000
07C00000
07C00000
07C00000
07C00000
07C00000
07C00000
07C00000
07C00000
07C00000
FFFFFFE0
FFFFFFE0
FFFFFFE0
FFFFFFE0
FFFFFFE0
07C00000
07C00000
07C00000
07C00000
07C00000
07C00000
07C00000
07C00000
07C00000
07C00000
07C00000
07C00000
07C00000
07C00000
07C00000
07C00000
07FFFFFE
07FFFFFE
07FFFFFE
07FFFFFE
07FFFFFE
ENDCHAR
STARTCHAR 011B
ENCODING 283
SWIDTH 480 0
DWIDTH 32 0
BBX 31 60 1 0
BITMAP
07C01F00
03E03E00
01E03C00
00F07800
00F8F000
007DF000
003FE000
001FC000
000F8000
00000000
00000000
00000000
00000000
07FFFF00
07FFFF00
07FFFF00
07FFFF00
07FFFF00
07C00000
07C00000
07C00000
07C00000
07C00000
07C00000
07C00000
07C00000
07C00000
07C00000
07C00000
07C00000
07C00000
07C00000
07C00000
07C00000
FFFFFFE0
FFFFFFE0
FFFFFFE0
FFFFFFE0
FFFFFFE0
07C00000
07C00000
07C00000
07C00000
07C00000
07C00000
07C00000
07C00000
07C00000
07C00000
07C00000
07C00000
07C00000
07C00000
07C00000
07C00000
07FFFFFE
07FFFFFE
07FFFFFE
07FFFFFE
07FFFFFE
ENDCHAR
STARTCHAR 011E
ENCODING 286
SWIDTH 825 0
DWIDTH 55 0
BBX 53 60 2 -1
BITMAP
0000E003C00000
0000F003800000
0000F007800000
0000780F800000
00007C1F000000
00003FFE000000
00001FFC000000
000007F0000000
00000000000000
00000000000000
00000000000000
000001F0000000
00007FFF000000
0003FFFFE00000
000FFFFFF80000
001FFFFFFE0000
007FF003FF0000
00FF8000FF8000
01FE00003FC000
03F800000FE000
07F0000007C000
07E00000038000
0FC00000010000
1F800000000000
1F000000000000
3F000000000000
3E000000000000
7E000000000000
7C000000000000
7C000000000000
7C000000000000
FC000000000000
F8000000000000
F80001FFFFFFF8
F80001FFFFFFF8
F80001FFFFFFF8
F80001FFFFFFF8
F80001FFFFFFF8
F8000000000F80
F8000000001F80
7C000000001F80
7C000000001F00
7C000000001F00
7E000000003F00
3E000000003E00
3F000000007E00
1F000000007E00
1F80000000FC00
0FC0000000FC00
0FE0000001F800
07F0000003F000
03F800000FE000
01FC00001FE000
00FF00007FC000
007FE001FF8000
003FFFFFFE0000
000FFFFFFC0000
0003FFFFF00000
0000FFFFC00000
00000FFC000000
ENDCHAR
STARTCHAR 011F
ENCODING 287
SWIDTH 825 0
DWIDTH 55 0
BBX 53 60 2 -1
BITMAP
0000E003C00000
0000F003800000
0000F007800000
0000780F800000
00007C1F000000
00003FFE000000
00001FFC000000
000007F0000000
00000000000000
00000000000000
00000000000000
000001F0000000
00007FFF000000
0003FFFFE00000
000FFFFFF80000
001FFFFFFE0000
007FF003FF0000
00FF8000FF8000
01FE00003FC000
03F800000FE000
07F0000007C000
07E00000038000
0FC00000010000
1F800000000000
1F000000000000
3F000000000000
3E000000000000
7E000000000000
7C000000000000
7C000000000000
7C000000000000
FC000000000000
F8000000000000
F80001FFFFFFF8
F80001FFFFFFF8
F80001FFFFFFF8
F80001FFFFFFF8
F80001FFFFFFF8
F8000000000F80
F8000000001F80
7C000000001F80
7C000000001F00
7C000000001F00
7E000000003F00
3E000000003E00
3F000000007E00
1F000000007E00
1F80000000FC00
0FC0000000FC00
0FE0000001F800
07F0000003F000
03F800000FE000
01FC00001FE000
00FF00007FC000
007FE001FF8000
003FFFFFFE0000
000FFFFFFC0000
0003FFFFF00000
0000FFFFC00000
00000FFC000000
ENDCHAR
STARTCHAR 0120
ENCODING 288
SWIDTH 825 0
DWIDTH 55 0
BBX 53 62 2 -1
BITMAP
000001E0000000
000003F0000000
000007F8000000
000007F8000000
00000FFC000000
00000FFC000000
000007F8000000
000007F8000000
000003F0000000
00000000000000
00000000000000
00000000000000
00000000000000
000001F0000000
00007FFF000000
0003FFFFE00000
000FFFFFF80000
001FFFFFFE0000
007FF003FF0000
00FF8000FF8000
01FE00003FC000
03F800000FE000
07F0000007C000
07E00000038000
0FC00000010000
1F800000000000
1F000000000000
3F000000000000
3E000000000000
7E000000000000
7C000000000000
7C000000000000
7C000000000000
FC000000000000
F8000000000000
F80001FFFFFFF8
F80001FFFFFFF8
F80001FFFFFFF8
F80001FFFFFFF8
F80001FFFFFFF8
F8000000000F80
F8000000001F80
7C000000001F80
7C000000001F00
7C000000001F00
7E000000003F00
3E000000003E00
3F000000007E00
1F000000007E00
1F80000000FC00
0FC0000000FC00
0FE0000001F800
07F0000003F000
03F800000FE000
01FC00001FE000
00FF00007FC000
007FE001FF8000
003FFFFFFE0000
000FFFFFFC0000
0003FFFFF00000
0000FFFFC00000
00000FFC000000
ENDCHAR
STARTCHAR 0121
ENCODING 289
SWIDTH 825 0
DWIDTH 55 0
BBX 53 62 2 -1
BITMAP
000001E0000000
000003F0000000
000007F8000000
000007F8000000
00000FFC000000
00000FFC000000
000007F8000000
000007F8000000
000003F0000000
00000000000000
00000000000000
00000000000000
00000000000000
000001F0000000
00007FFF000000
0003FFFFE00000
000FFFFFF80000
001FFFFFFE0000
007FF003FF0000
00FF8000FF8000
01FE00003FC000
03F800000FE000
07F0000007C000
07E00000038000
0FC00000010000
1F800000000000
1F000000000000
3F000000000000
3E000000000000
7E000000000000
7C000000000000
7C000000000000
7C000000000000
FC000000000000
F8000000000000
F80001FFFFFFF8
F80001FFFFFFF8
F80001FFFFFFF8
F80001FFFFFFF8
F80001FFFFFFF8
F8000000000F80
F8000000001F80
7C000000001F80
7C000000001F00
7C000000001F00
7E000000003F00
3E000000003E00
3F000000007E00
1F000000007E00
1F80000000FC00
0FC0000000FC00
0FE0000001F800
07F0000003F000
03F800000FE000
01FC00001FE000
00FF00007FC000
007FE001FF8000
003FFFFFFE0000
000FFFFFFC0000
0003FFFFF00000
0000FFFFC00000
00000FFC000000
ENDCHAR
STARTCHAR 0124
ENCODING 292
SWIDTH 540 0
DWIDTH 36 0
BBX 32 59 1 0
BITMAP
0001FC00
0003FE00
0003DF00
00078F80
000F8780
001F03C0
003E03E0
003C01F0
00400000
00000000
00000000
00000000
07C0001F
07C0001F
07C0001F
07C0001F
07C0001F
07C0001F
07C0001F
07C0001F
07C0001F
07C0001F
07C0001F
07C0001F
07C0001F
07C0001F
07C0001F
07C0001F
07C0001F
07C0001F
07C0001F
FFFFFFFF
FFFFFFFF
FFFFFFFF
FFFFFFFF
07C0001F
07C0001F
07C0001F
07C0001F
07C0001F
07C0001F
07C0001F
07C0001F
07C0001F
07C0001F
07C0001F
07C0001F
07C0001F
07C0001F
07C0001F
07C0001F
07C0001F
07C0001F
07C0001F
07C0001F
07C0001F
07C0001F
07C0001F
07C0001F
ENDCHAR
STARTCHAR 0125
ENCODING 293
SWIDTH 540 0
DWIDTH 36 0
BBX 32 59 1 0
BITMAP
0001FC00
0003FE00
0003DF00
00078F80
000F8780
001F03C0
003E03E0
003C01F0
00400000
00000000
00000000
00000000
07C0001F
07C0001F
07C0001F
07C0001F
07C0001F
07C0001F
07C0001F
07C0001F
07C0001F
07C0001F
07C0001F
07C0001F
07C0001F
07C0001F
07C0001F
07C0001F
07C0001F
07C0001F
07C0001F
FFFFFFFF
FFFFFFFF
FFFFFFFF
FFFFFFFF
07C0001F
07C0001F
07C0001F
07C0001F
07C0001F
07C0001F
07C0001F
07C0001F
07C0001F
07C0001F
07C0001F
07C0001F
07C0001F
07C0001F
07C0001F
07C0001F
07C0001F
07C0001F
07C0001F
07C0001F
07C0001F
07C0001F
07C0001F
07C0001F
ENDCHAR
STARTCHAR 0128
ENCODING 296
SWIDTH 165 0
DWIDTH 11 0
BBX 16 41 -3 0
BITMAP
1800
FF81
FFFF
FFFF
00FF
0000
0000
0000
0000
0000
0000
0000
03E0
03E0
03E0
03E0
03E0
03E0
03E0
03E0
03E0
03E0
03E0
03E0
03E0
03E0
03E0
03E0
03E0
03E0
03E0
03E0
03E0
03E0
03E0
03E0
03E0
03E0
03E0
03E0
03E0
ENDCHAR
STARTCHAR 0129
ENCODING 297
SWIDTH 165 0
DWIDTH 11 0
BBX 16 41 -3 0
BITMAP
1800
FF81
FFFF
FFFF
00FF
0000
0000
0000
0000
0000
0000
0000
03E0
03E0
03E0
03E0
03E0
03E0
03E0
03E0
03E0
03E0
03E0
03E0
03E0
03E0
03E0
03E0
03E0
03E0
03E0
03E0
03E0
03E0
03E0
03E0
03E0
03E0
03E0
03E0
03E0
ENDCHAR
STARTCHAR 012A
ENCODING 298
SWIDTH 165 0
DWIDTH 11 0
BBX 18 39 -3 0
BITMAP
FFFFC0
FFFFC0
FFFFC0
FFFFC0
000000
000000
000000
000000
000000
000000
03E000
03E000
03E000
03E000
03E000
03E000
03E000
03E000
03E000
03E000
03E000
03E000
03E000
03E000
03E000
03E000
03E000
03E000
03E000
03E000
03E000
03E000
03E000
03E000
03E000
03E000
03E000
03E000
03E000
ENDCHAR
STARTCHAR 012B
ENCODING 299
SWIDTH 165 0
DWIDTH 11 0
BBX 18 39 -3 0
BITMAP
FFFFC0
FFFFC0
FFFFC0
FFFFC0
000000
000000
000000
000000
000000
000000
03E000
03E000
03E000
03E000
03E000
03E000
03E000
03E000
03E000
03E000
03E000
03E000
03E000
03E000
03E000
03E000
03E000
03E000
03E000
03E000
03E000
03E000
03E000
03E000
03E000
03E000
03E000
03E000
03E000
ENDCHAR
STARTCHAR 012E
ENCODING 302
SWIDTH 165 0
DWIDTH 11 0
BBX 16 65 -2 -12
BITMAP
0100
0100
0100
0180
0380
0380
FFFF
7FFC
1FF8
0FE0
0FE0
0FE0
0EF0
1C70
1010
0008
0000
0000
0000
0000
0000
0000
0000
0000
07C0
07C0
07C0
07C0
07C0
07C0
07C0
07C0
07C0
07C0
07C0
07C0
07C0
07C0
07C0
07C0
07C0
07C0
07C0
07C0
07C0
07C0
07C0
07C0
07C0
07C0
07C0
07C0
07C0
0F00
3C00
3800
7000
7000
E000
E000
7020
7870
7FF0
3FE0
0F80
ENDCHAR
STARTCHAR 012F
ENCODING 303
SWIDTH 165 0
DWIDTH 11 0
BBX 16 65 -2 -12
BITMAP
0100
0100
0100
0180
0380
0380
FFFF
7FFC
1FF8
0FE0
0FE0
0FE0
0EF0
1C70
1010
0008
0000
0000
0000
0000
0000
0000
0000
0000
07C0
07C0
07C0
07C0
07C0
07C0
07C0
07C0
07C0
07C0
07C0
07C0
07C0
07C0
07C0
07C0
07C0
07C0
07C0
07C0
07C0
07C0
07C0
07C0
07C0
07C0
07C0
07C0
07C0
0F00
3C00
3800
7000
7000
E000
E000
7020
7870
7FF0
3FE0
0F80
ENDCHAR
STARTCHAR 0130
ENCODING 304
SWIDTH 165 0
DWIDTH 11 0
BBX 9 43 2 0
BITMAP
1C00
7F00
FF00
FF80
FF80
FF80
FF80
7F00
3E00
0000
0000
0000
0000
0000
7C00
7C00
7C00
7C00
7C00
7C00
7C00
7C00
7C00
7C00
7C00
7C00
7C00
7C00
7C00
7C00
7C00
7C00
7C00
7C00
7C00
7C00
7C00
7C00
7C00
7C00
7C00
7C00
7C00
ENDCHAR
STARTCHAR 0139
ENCODING 313
SWIDTH 420 0
DWIDTH 28 0
BBX 24 59 3 0
BITMAP
078000
0F0000
1F0000
1E0000
3C0000
380000
780000
F00000
000000
000000
000000
000000
F80000
F80000
F80000
F80000
F80000
F80000
F80000
F80000
F80000
F80000
F80000
F80000
F80000
F80000
F80000
F80000
F80000
F80000
F80000
F80000
F80000
F80000
F80000
F80000
F80000
F80000
F80000
F80000
F80000
F80000
F80000
F80000
F80000
F80000
F80000
F80000
F80000
F80000
F80000
F80000
F80000
F80000
FFFFFF
FFFFFF
FFFFFF
FFFFFF
FFFFFF
ENDCHAR
STARTCHAR 013A
ENCODING 314
SWIDTH 420 0
DWIDTH 28 0
BBX 24 59 3 0
BITMAP
078000
0F0000
1F0000
1E0000
3C0000
380000
780000
F00000
000000
000000
000000
000000
F80000
F80000
F80000
F80000
F80000
F80000
F80000
F80000
F80000
F80000
F80000
F80000
F80000
F80000
F80000
F80000
F80000
F80000
F80000
F80000
F80000
F80000
F80000
F80000
F80000
F80000
F80000
F80000
F80000
F80000
F80000
F80000
F80000
F80000
F80000
F80000
F80000
F80000
F80000
F80000
F80000
F80000
FFFFFF
FFFFFF
FFFFFF
FFFFFF
FFFFFF
ENDCHAR
STARTCHAR 013D
ENCODING 317
SWIDTH 420 0
DWIDTH 28 0
BBX 30 60 -3 0
BITMAP
F003C000
78078000
7C0F8000
3E1F0000
1F3E0000
0FFC0000
07F80000
07F80000
03F00000
00000000
00000000
00000000
00000000
03E00000
03E00000
03E00000
03E00000
03E00000
03E00000
03E00000
03E00000
03E00000
03E00000
03E00000
03E00000
03E00000
03E00000
03E00000
03E00000
03E00000
03E00000
03E00000
03E00000
03E00000
03E00000
03E00000
03E00000
03E00000
03E00000
03E00000
03E00000
03E00000
03E00000
03E00000
03E00000
03E00000
03E00000
03E00000
03E00000
03E00000
03E00000
03E00000
03E00000
03E00000
03E00000
03FFFFFC
03FFFFFC
03FFFFFC
03FFFFFC
03FFFFFC
ENDCHAR
STARTCHAR 013E
ENCODING 318
SWIDTH 420 0
DWIDTH 28 0
BBX 30 60 -3 0
BITMAP
F003C000
78078000
7C0F8000
3E1F0000
1F3E0000
0FFC0000
07F80000
07F80000
03F00000
00000000
00000000
00000000
00000000
03E00000
03E00000
03E00000
03E00000
03E00000
03E00000
03E00000
03E00000
03E00000
03E00000
03E00000
03E00000
03E00000
03E00000
03E00000
03E00000
03E00000
03E00000
03E00000
03E00000
03E00000
03E00000
03E00000
03E00000
03E00000
03E00000
03E00000
03E00000
03E00000
03E00000
03E00000
03E00000
03E00000
03E00000
03E00000
03E00000
03E00000
03E00000
03E00000
03E00000
03E00000
03E00000
03FFFFFC
03FFFFFC
03FFFFFC
03FFFFFC
03FFFFFC
ENDCHAR
STARTCHAR 0141
ENCODING 321
SWIDTH 465 0
DWIDTH 31 0
BBX 29 47 1 0
BITMAP
03E00000
03E00000
03E00000
03E00000
03E00000
03E00000
03E00000
03E00000
03E00000
03E00000
03E00000
03E00000
03E00000
03E00000
03E00000
03E00000
03E00000
03E0C000
03E3E000
03EFE000
03FFC000
03FF8000
03FE0000
07F80000
1FE00000
7FE00000
FFE00000
FBE00000
63E00000
03E00000
03E00000
03E00000
03E00000
03E00000
03E00000
03E00000
03E00000
03E00000
03E00000
03E00000
03E00000
03E00000
03FFFFF8
03FFFFF8
03FFFFF8
03FFFFF8
03FFFFF8
ENDCHAR
STARTCHAR 0142
ENCODING 322
SWIDTH 465 0
DWIDTH 31 0
BBX 29 47 1 0
BITMAP
03E00000
03E00000
03E00000
03E00000
03E00000
03E00000
03E00000
03E00000
03E00000
03E00000
03E00000
03E00000
03E00000
03E00000
03E00000
03E00000
03E00000
03E0C000
03E3E000
03EFE000
03FFC000
03FF8000
03FE0000
07F80000
1FE00000
7FE00000
FFE00000
FBE00000
63E00000
03E00000
03E00000
03E00000
03E00000
03E00000
03E00000
03E00000
03E00000
03E00000
03E00000
03E00000
03E00000
03E00000
03FFFFF8
03FFFFF8
03FFFFF8
03FFFFF8
03FFFFF8
ENDCHAR
STARTCHAR 0143
ENCODING 323
SWIDTH 495 0
DWIDTH 33 0
BBX 29 59 1 0
BITMAP
00007C00
00007800
0000F000
0001F000
0001E000
0003C000
00038000
00078000
00000000
00000000
00000000
20000000
380000F8
7C0000F8
FE0000F8
7F8000F8
3FC000F8
3FE000F8
3FF000F8
3FFC00F8
3FFE00F8
3E7F00F8
3E3F80F8
3E1FE0F8
3E0FF0F8
3E03F8F8
3E01FEF8
3E00FFF8
3E007FF8
3E001FF8
3E000FF8
3E0007F8
3E0001F8
3E0000F8
3E0000F8
3E0000F8
3E0000F8
3E0000F8
3E0000F8
3E0000F8
3E0000F8
3E0000F8
3E0000F8
3E0000F8
3E0000F8
3E0000F8
3E0000F8
3E0000F8
3E0000F8
3E0000F8
3E0000F8
3E0000F8
3E0000F8
3E0000F8
3E0000F8
3E0000F8
3E0000F8
3E0000F8
3E0000F8
ENDCHAR
STARTCHAR 0144
ENCODING 324
SWIDTH 495 0
DWIDTH 33 0
BBX 29 59 1 0
BITMAP
00007C00
00007800
0000F000
0001F000
0001E000
0003C000
00038000
00078000
00000000
00000000
00000000
20000000
380000F8
7C0000F8
FE0000F8
7F8000F8
3FC000F8
3FE000F8
3FF000F8
3FFC00F8
3FFE00F8
3E7F00F8
3E3F80F8
3E1FE0F8
3E0FF0F8
3E03F8F8
3E01FEF8
3E00FFF8
3E007FF8
3E001FF8
3E000FF8
3E0007F8
3E0001F8
3E0000F8
3E0000F8
3E0000F8
3E0000F8
3E0000F8
3E0000F8
3E0000F8
3E0000F8
3E0000F8
3E0000F8
3E0000F8
3E0000F8
3E0000F8
3E0000F8
3E0000F8
3E0000F8
3E0000F8
3E0000F8
3E0000F8
3E0000F8
3E0000F8
3E0000F8
3E0000F8
3E0000F8
3E0000F8
3E0000F8
ENDCHAR
STARTCHAR 0147
ENCODING 327
SWIDTH 495 0
DWIDTH 33 0
BBX 29 60 1 0
BITMAP
03E00F80
01F00F00
00F81E00
007C3C00
003C7C00
003EF800
001FF000
000FE000
0007C000
00000000
00000000
00000000
20000000
380000F8
7C0000F8
FE0000F8
7F8000F8
3FC000F8
3FE000F8
3FF000F8
3FFC00F8
3FFE00F8
3E7F00F8
3E3F80F8
3E1FE0F8
3E0FF0F8
3E03F8F8
3E01FEF8
3E00FFF8
3E007FF8
3E001FF8
3E000FF8
3E0007F8
3E0001F8
3E0000F8
3E0000F8
3E0000F8
3E0000F8
3E0000F8
3E0000F8
3E0000F8
3E0000F8
3E0000F8
3E0000F8
3E0000F8
3E0000F8
3E0000F8
3E0000F8
3E0000F8
3E0000F8
3E0000F8
3E0000F8
3E0000F8
3E0000F8
3E0000F8
3E0000F8
3E0000F8
3E0000F8
3E0000F8
3E0000F8
ENDCHAR
STARTCHAR 0148
ENCODING 328
SWIDTH 495 0
DWIDTH 33 0
BBX 29 60 1 0
BITMAP
03E00F80
01F00F00
00F81E00
007C3C00
003C7C00
003EF800
001FF000
000FE000
0007C000
00000000
00000000
00000000
20000000
380000F8
7C0000F8
FE0000F8
7F8000F8
3FC000F8
3FE000F8
3FF000F8
3FFC00F8
3FFE00F8
3E7F00F8
3E3F80F8
3E1FE0F8
3E0FF0F8
3E03F8F8
3E01FEF8
3E00FFF8
3E007FF8
3E001FF8
3E000FF8
3E0007F8
3E0001F8
3E0000F8
3E0000F8
3E0000F8
3E0000F8
3E0000F8
3E0000F8
3E0000F8
3E0000F8
3E0000F8
3E0000F8
3E0000F8
3E0000F8
3E0000F8
3E0000F8
3E0000F8
3E0000F8
3E0000F8
3E0000F8
3E0000F8
3E0000F8
3E0000F8
3E0000F8
3E0000F8
3E0000F8
3E0000F8
3E0000F8
ENDCHAR
STARTCHAR 014C
ENCODING 332
SWIDTH 810 0
DWIDTH 54 0
BBX 50 58 2 -1
BITMAP
0000FFFFC00000
0000FFFFC00000
0000FFFFC00000
0000FFFFC00000
00000000000000
00000000000000
00000000000000
00000000000000
00000000000000
000001F0000000
00007FFF800000
0003FFFFF00000
000FFFFFFC0000
001FFFFFFE0000
007FF003FF8000
00FF80007FC000
01FE00001FE000
03F8000007F000
07F0000003F800
07E0000001FC00
0FC0000000FC00
1F800000007E00
1F000000003E00
3F000000003F00
3E000000001F00
7E000000001F80
7C000000000F80
7C000000000F80
7C000000000F80
FC0000000007C0
F80000000007C0
F80000000007C0
F80000000007C0
F80000000007C0
F80000000007C0
F80000000007C0
F80000000007C0
F80000000007C0
7C000000000FC0
7C000000000F80
7C000000000F80
7E000000001F80
3E000000001F00
3F000000003F00
1F000000003F00
1F800000007E00
0FC0000000FC00
0FE0000001FC00
07F0000003F800
03F8000007F000
01FC00000FE000
00FF00003FC000
007FE001FF8000
003FFFFFFF0000
000FFFFFFC0000
0003FFFFF00000
0000FFFFC00000
00000FFC000000
ENDCHAR
STARTCHAR 014D
ENCODING 333
SWIDTH 810 0
DWIDTH 54 0
BBX 50 58 2 -1
BITMAP
0000FFFFC00000
0000FFFFC00000
0000FFFFC00000
0000FFFFC00000
00000000000000
00000000000000
00000000000000
00000000000000
00000000000000
000001F0000000
00007FFF800000
0003FFFFF00000
000FFFFFFC0000
001FFFFFFE0000
007FF003FF8000
00FF80007FC000
01FE00001FE000
03F8000007F000
07F0000003F800
07E0000001FC00
0FC0000000FC00
1F800000007E00
1F000000003E00
3F000000003F00
3E000000001F00
7E000000001F80
7C000000000F80
7C000000000F80
7C000000000F80
FC0000000007C0
F80000000007C0
F80000000007C0
F80000000007C0
F80000000007C0
F80000000007C0
F80000000007C0
F80000000007C0
F80000000007C0
7C000000000FC0
7C000000000F80
7C000000000F80
7E000000001F80
3E000000001F00
3F000000003F00
1F000000003F00
1F800000007E00
0FC0000000FC00
0FE0000001FC00
07F0000003F800
03F8000007F000
01FC00000FE000
00FF00003FC000
007FE001FF8000
003FFFFFFF0000
000FFFFFFC0000
0003FFFFF00000
0000FFFFC00000
00000FFC000000
ENDCHAR
STARTCHAR 0150
ENCODING 336
SWIDTH 810 0
DWIDTH 54 0
BBX 50 60 2 -1
BITMAP
000003C07C0000
00000780F80000
00000F80F00000
00000F01E00000
00001E03C00000
00001C03C00000
00003C07800000
00007807000000
00000008000000
00000000000000
00000000000000
000001F0000000
00007FFF800000
0003FFFFF00000
000FFFFFFC0000
001FFFFFFE0000
007FF003FF8000
00FF80007FC000
01FE00001FE000
03F8000007F000
07F0000003F800
07E0000001FC00
0FC0000000FC00
1F800000007E00
1F000000003E00
3F000000003F00
3E000000001F00
7E000000001F80
7C000000000F80
7C000000000F80
7C000000000F80
FC0000000007C0
F80000000007C0
F80000000007C0
F80000000007C0
F80000000007C0
F80000000007C0
F80000000007C0
F80000000007C0
F80000000007C0
7C000000000FC0
7C000000000F80
7C000000000F80
7E000000001F80
3E000000001F00
3F000000003F00
1F000000003F00
1F800000007E00
0FC0000000FC00
0FE0000001FC00
07F0000003F800
03F8000007F000
01FC00000FE000
00FF00003FC000
007FE001FF8000
003FFFFFFF0000
000FFFFFFC0000
0003FFFFF00000
0000FFFFC00000
00000FFC000000
ENDCHAR
STARTCHAR 0151
ENCODING 337
SWIDTH 810 0
DWIDTH 54 0
BBX 50 60 2 -1
BITMAP
000003C07C0000
00000780F80000
00000F80F00000
00000F01E00000
00001E03C00000
00001C03C00000
00003C07800000
00007807000000
00000008000000
00000000000000
00000000000000
000001F0000000
00007FFF800000
0003FFFFF00000
000FFFFFFC0000
001FFFFFFE0000
007FF003FF8000
00FF80007FC000
01FE00001FE000
03F8000007F000
07F0000003F800
07E0000001FC00
0FC0000000FC00
1F800000007E00
1F000000003E00
3F000000003F00
3E000000001F00
7E000000001F80
7C000000000F80
7C000000000F80
7C000000000F80
FC0000000007C0
F80000000007C0
F80000000007C0
F80000000007C0
F80000000007C0
F80000000007C0
F80000000007C0
F80000000007C0
F80000000007C0
7C000000000FC0
7C000000000F80
7C000000000F80
7E000000001F80
3E000000001F00
3F000000003F00
1F000000003F00
1F800000007E00
0FC0000000FC00
0FE0000001FC00
07F0000003F800
03F8000007F000
01FC00000FE000
00FF00003FC000
007FE001FF8000
003FFFFFFF0000
000FFFFFFC0000
0003FFFFF00000
0000FFFFC00000
00000FFC000000
ENDCHAR
STARTCHAR 0154
ENCODING 340
SWIDTH 570 0
DWIDTH 38 0
BBX 35 59 1 0
BITMAP
00001F0000
00001E0000
00003C0000
00007C0000
0000780000
0000F00000
0001E00000
0001C00000
0000000000
0000000000
0000000000
0000000000
07FFF00000
07FFFFC000
07FFFFF000
07FFFFFC00
07FFFFFE00
07C003FF00
07C0007F80
07C0001F80
07C0000FC0
07C00007C0
07C00007E0
07C00003E0
07C00003E0
07C00003E0
07C00003E0
07C00003E0
07C00003E0
07C00007E0
07C00007C0
07C0000FC0
07C0001F80
07C0003F80
07C000FF00
07C01FFE00
FFFFFFFC00
FFFFFFF800
FFFFFFE000
FFFFFFF000
07C00FF800
07C001F800
07C000FC00
07C0007E00
07C0003E00
07C0003F00
07C0001F00
07C0001F00
07C0001F00
07C0000F80
07C0000F80
07C0000F80
07C0000F80
07C0000F80
07C0000F80
07C0000F80
07C0000F80
07C0000F80
07C0000F80
ENDCHAR
STARTCHAR 0155
ENCODING 341
SWIDTH 570 0
DWIDTH 38 0
BBX 35 59 1 0
BITMAP
00001F0000
00001E0000
00003C0000
00007C0000
0000780000
0000F00000
0001E00000
0001C00000
0000000000
0000000000
0000000000
0000000000
07FFF00000
07FFFFC000
07FFFFF000
07FFFFFC00
07FFFFFE00
07C003FF00
07C0007F80
07C0001F80
07C0000FC0
07C00007C0
07C00007E0
07C00003E0
07C00003E0
07C00003E0
07C00003E0
07C00003E0
07C00003E0
07C00007E0
07C00007C0
07C0000FC0
07C0001F80
07C0003F80
07C000FF00
07C01FFE00
FFFFFFFC00
FFFFFFF800
FFFFFFE000
FFFFFFF000
07C00FF800
07C001F800
07C000FC00
07C0007E00
07C0003E00
07C0003F00
07C0001F00
07C0001F00
07C0001F00
07C0000F80
07C0000F80
07C0000F80
07C0000F80
07C0000F80
07C0000F80
07C0000F80
07C0000F80
07C0000F80
07C0000F80
ENDCHAR
STARTCHAR 0158
ENCODING 344
SWIDTH 570 0
DWIDTH 38 0
BBX 35 60 1 0
BITMAP
00F803E000
007C03C000
003E078000
001E0F0000
000F1F0000
000FBE0000
0007FC0000
0003F80000
0001F00000
0000000000
0000000000
0000000000
0000000000
07FFF00000
07FFFFC000
07FFFFF000
07FFFFFC00
07FFFFFE00
07C003FF00
07C0007F80
07C0001F80
07C0000FC0
07C00007C0
07C00007E0
07C00003E0
07C00003E0
07C00003E0
07C00003E0
07C00003E0
07C00003E0
07C00007E0
07C00007C0
07C0000FC0
07C0001F80
07C0003F80
07C000FF00
07C01FFE00
FFFFFFFC00
FFFFFFF800
FFFFFFE000
FFFFFFF000
07C00FF800
07C001F800
07C000FC00
07C0007E00
07C0003E00
07C0003F00
07C0001F00
07C0001F00
07C0001F00
07C0000F80
07C0000F80
07C0000F80
07C0000F80
07C0000F80
07C0000F80
07C0000F80
07C0000F80
07C0000F80
07C0000F80
ENDCHAR
STARTCHAR 0159
ENCODING 345
SWIDTH 570 0
DWIDTH 38 0
BBX 35 60 1 0
BITMAP
00F803E000
007C03C000
003E078000
001E0F0000
000F1F0000
000FBE0000
0007FC0000
0003F80000
0001F00000
0000000000
0000000000
0000000000
0000000000
07FFF00000
07FFFFC000
07FFFFF000
07FFFFFC00
07FFFFFE00
07C003FF00
07C0007F80
07C0001F80
07C0000FC0
07C00007C0
07C00007E0
07C00003E0
07C00003E0
07C00003E0
07C00003E0
07C00003E0
07C00003E0
07C00007E0
07C00007C0
07C0000FC0
07C0001F80
07C0003F80
07C000FF00
07C01FFE00
FFFFFFFC00
FFFFFFF800
FFFFFFE000
FFFFFFF000
07C00FF800
07C001F800
07C000FC00
07C0007E00
07C0003E00
07C0003F00
07C0001F00
07C0001F00
07C0001F00
07C0000F80
07C0000F80
07C0000F80
07C0000F80
07C0000F80
07C0000F80
07C0000F80
07C0000F80
07C0000F80
07C0000F80
ENDCHAR
STARTCHAR 015A
ENCODING 346
SWIDTH 480 0
DWIDTH 32 0
BBX 28 60 2 -1
BITMAP
0000F000
0001E000
0003E000
0003C000
00078000
00070000
000F0000
001E0000
00000000
00000000
00000000
001F8000
00FFF000
03FFFC00
07FFFE00
0FFFFF00
0FE07F80
1F801F80
1F000FC0
3F0007C0
3E0007E0
3E0003E0
3E0003E0
3E000180
3E000000
1F000000
1F800000
1F800000
0FE00000
07F00000
03F80000
01FE0000
00FF8000
007FE000
001FF000
0007FC00
0003FE00
0000FF00
00003F80
00001FC0
00000FE0
000007E0
000003F0
000001F0
000001F0
000001F0
180001F0
F80001F0
F80001F0
FC0001F0
7C0001F0
7E0003F0
3F0007E0
3F800FE0
1FC01FC0
0FFFFFC0
07FFFF80
03FFFE00
00FFFC00
003FE000
ENDCHAR
STARTCHAR 015B
ENCODING 347
SWIDTH 480 0
DWIDTH 32 0
BBX 28 60 2 -1
BITMAP
0000F000
0001E000
0003E000
0003C000
00078000
00070000
000F0000
001E0000
00000000
00000000
00000000
001F8000
00FFF000
03FFFC00
07FFFE00
0FFFFF00
0FE07F80
1F801F80
1F000FC0
3F0007C0
3E0007E0
3E0003E0
3E0003E0
3E000180
3E000000
1F000000
1F800000
1F800000
0FE00000
07F00000
03F80000
01FE0000
00FF8000
007FE000
001FF000
0007FC00
0003FE00
0000FF00
00003F80
00001FC0
00000FE0
000007E0
000003F0
000001F0
000001F0
000001F0
180001F0
F80001F0
F80001F0
FC0001F0
7C0001F0
7E0003F0
3F0007E0
3F800FE0
1FC01FC0
0FFFFFC0
07FFFF80
03FFFE00
00FFFC00
003FE000
ENDCHAR
STARTCHAR 015E
ENCODING 350
SWIDTH 480 0
DWIDTH 32 0
BBX 28 62 2 -14
BITMAP
001F8000
00FFF000
03FFFC00
07FFFE00
0FFFFF00
0FE07F80
1F801F80
1F000FC0
3F0007C0
3E0007E0
3E0003E0
3E0003E0
3E000180
3E000000
1F000000
1F800000
1F800000
0FE00000
07F00000
03F80000
01FE0000
00FF8000
007FE000
001FF000
0007FC00
0003FE00
0000FF00
00003F80
00001FC0
00000FE0
000007E0
000003F0
000001F0
000001F0
000001F0
180001F0
F80001F0
F80001F0
FC0001F0
7C0001F0
7E0003F0
3F0007E0
3F800FE0
1FC01FC0
0FFFFFC0
07FFFF80
03FFFE00
00FFFC00
001FE000
00070000
000F0000
000FC000
0001E000
0000F000
00007000
00007000
00807000
01C07000
01E0F000
00FFE000
007FC000
001F8000
ENDCHAR
STARTCHAR 015F
ENCODING 351
SWIDTH 480 0
DWIDTH 32 0
BBX 28 62 2 -14
BITMAP
001F8000
00FFF000
03FFFC00
07FFFE00
0FFFFF00
0FE07F80
1F801F80
1F000FC0
3F0007C0
3E0007E0
3E0003E0
3E0003E0
3E000180
3E000000
1F000000
1F800000
1F800000
0FE00000
07F00000
03F80000
01FE0000
00FF8000
007FE000
001FF000
0007FC00
0003FE00
0000FF00
00003F80
00001FC0
00000FE0
000007E0
000003F0
000001F0
000001F0
000001F0
180001F0
F80001F0
F80001F0
FC0001F0
7C0001F0
7E0003F0
3F0007E0
3F800FE0
1FC01FC0
0FFFFFC0
07FFFF80
03FFFE00
00FFFC00
001FE000
00070000
000F0000
000FC000
0001E000
0000F000
00007000
00007000
00807000
01C07000
01E0F000
00FFE000
007FC000
001F8000
ENDCHAR
STARTCHAR 0160
ENCODING 352
SWIDTH 480 0
DWIDTH 32 0
BBX 28 61 2 -1
BITMAP
07801E00
03C03C00
03E07C00
01F0F800
00F9F000
007FE000
003FC000
003FC000
001F8000
00000000
00000000
00000000
001F8000
00FFF000
03FFFC00
07FFFE00
0FFFFF00
0FE07F80
1F801F80
1F000FC0
3F0007C0
3E0007E0
3E0003E0
3E0003E0
3E000180
3E000000
1F000000
1F800000
1F800000
0FE00000
07F00000
03F80000
01FE0000
00FF8000
007FE000
001FF000
0007FC00
0003FE00
0000FF00
00003F80
00001FC0
00000FE0
000007E0
000003F0
000001F0
000001F0
000001F0
180001F0
F80001F0
F80001F0
FC0001F0
7C0001F0
7E0003F0
3F0007E0
3F800FE0
1FC01FC0
0FFFFFC0
07FFFF80
03FFFE00
00FFFC00
003FE000
ENDCHAR
STARTCHAR 0161
ENCODING 353
SWIDTH 480 0
DWIDTH 32 0
BBX 28 61 2 -1
BITMAP
07801E00
03C03C00
03E07C00
01F0F800
00F9F000
007FE000
003FC000
003FC000
001F8000
00000000
00000000
00000000
001F8000
00FFF000
03FFFC00
07FFFE00
0FFFFF00
0FE07F80
1F801F80
1F000FC0
3F0007C0
3E0007E0
3E0003E0
3E0003E0
3E000180
3E000000
1F000000
1F800000
1F800000
0FE00000
07F00000
03F80000
01FE0000
00FF8000
007FE000
001FF000
0007FC00
0003FE00
0000FF00
00003F80
00001FC0
00000FE0
000007E0
000003F0
000001F0
000001F0
000001F0
180001F0
F80001F0
F80001F0
FC0001F0
7C0001F0
7E0003F0
3F0007E0
3F800FE0
1FC01FC0
0FFFFFC0
07FFFF80
03FFFE00
00FFFC00
003FE000
ENDCHAR
STARTCHAR 0162
ENCODING 354
SWIDTH 480 0
DWIDTH 32 0
BBX 30 61 1 -14
BITMAP
FFFFFFFC
FFFFFFFC
FFFFFFFC
FFFFFFFC
FFFFFFFC
0007C000
0007C000
0007C000
0007C000
0007C000
0007C000
0007C000
0007C000
0007C000
0007C000
0007C000
0007C000
0007C000
0007C000
0007C000
0007C000
0007C000
0007C000
0007C000
0007C000
0007C000
0007C000
0007C000
0007C000
0007C000
0007C000
0007C000
0007C000
0007C000
0007C000
0007C000
0007C000
0007C000
0007C000
0007C000
0007C000
0007C000
0007C000
0007C000
0007C000
0007C000
0007C000
00038000
00070000
00078000
0007E000
0001F000
00007000
00003800
00003800
00C03800
01C03800
01F07000
00FFF000
003FE000
001F8000
ENDCHAR
STARTCHAR 0163
ENCODING 355
SWIDTH 480 0
DWIDTH 32 0
BBX 30 61 1 -14
BITMAP
FFFFFFFC
FFFFFFFC
FFFFFFFC
FFFFFFFC
FFFFFFFC
0007C000
0007C000
0007C000
0007C000
0007C000
0007C000
0007C000
0007C000
0007C000
0007C000
0007C000
0007C000
0007C000
0007C000
0007C000
0007C000
0007C000
0007C000
0007C000
0007C000
0007C000
0007C000
0007C000
0007C000
0007C000
0007C000
0007C000
0007C000
0007C000
0007C000
0007C000
0007C000
0007C000
0007C000
0007C000
0007C000
0007C000
0007C000
0007C000
0007C000
0007C000
0007C000
00038000
00070000
00078000
0007E000
0001F000
00007000
00003800
00003800
00C03800
01C03800
01F07000
00FFF000
003FE000
001F8000
ENDCHAR
STARTCHAR 0164
ENCODING 356
SWIDTH 480 0
DWIDTH 32 0
BBX 30 60 1 0
BITMAP
03E00F80
01E01F00
00F03E00
00783C00
007C7800
003EF800
001FF000
000FE000
0007C000
00000000
00000000
00000000
00000000
FFFFFFFC
FFFFFFFC
FFFFFFFC
FFFFFFFC
FFFFFFFC
0007C000
0007C000
0007C000
0007C000
0007C000
0007C000
0007C000
0007C000
0007C000
0007C000
0007C000
0007C000
0007C000
0007C000
0007C000
0007C000
0007C000
0007C000
0007C000
0007C000
0007C000
0007C000
0007C000
0007C000
0007C000
0007C000
0007C000
0007C000
0007C000
0007C000
0007C000
0007C000
0007C000
0007C000
0007C000
0007C000
0007C000
0007C000
0007C000
0007C000
0007C000
0007C000
ENDCHAR
STARTCHAR 0165
ENCODING 357
SWIDTH 480 0
DWIDTH 32 0
BBX 30 60 1 0
BITMAP
03E00F80
01E01F00
00F03E00
00783C00
007C7800
003EF800
001FF000
000FE000
0007C000
00000000
00000000
00000000
00000000
FFFFFFFC
FFFFFFFC
FFFFFFFC
FFFFFFFC
FFFFFFFC
0007C000
0007C000
0007C000
0007C000
0007C000
0007C000
0007C000
0007C000
0007C000
0007C000
0007C000
0007C000
0007C000
0007C000
0007C000
0007C000
0007C000
0007C000
0007C000
0007C000
0007C000
0007C000
0007C000
0007C000
0007C000
0007C000
0007C000
0007C000
0007C000
0007C000
0007C000
0007C000
0007C000
0007C000
0007C000
0007C000
0007C000
0007C000
0007C000
0007C000
0007C000
0007C000
ENDCHAR
STARTCHAR 0168
ENCODING 360
SWIDTH 495 0
DWIDTH 33 0
BBX 27 60 3 -1
BITMAP
00C00000
07FC1800
07FFF800
07FFF800
000FF000
00000000
00000000
00000000
00000000
00000000
00000000
00000000
F80003E0
F80003E0
F80003E0
F80003E0
F80003E0
F80003E0
F80003E0
F80003E0
F80003E0
F80003E0
F80003E0
F80003E0
F80003E0
F80003E0
F80003E0
F80003E0
F80003E0
F80003E0
F80003E0
F80003E0
F80003E0
F80003E0
F80003E0
F80003E0
F80003E0
F80003E0
F80003E0
F80003E0
F80003E0
F80003E0
F80003E0
F80003E0
F80003E0
F80003E0
F80003E0
F80003E0
F80003E0
FC0007E0
7C0007C0
7E0007C0
3E000FC0
3F001F80
1FC07F00
1FFFFF00
0FFFFE00
03FFFC00
01FFF000
003F8000
ENDCHAR
STARTCHAR 0169
ENCODING 361
SWIDTH 495 0
DWIDTH 33 0
BBX 27 60 3 -1
BITMAP
00C00000
07FC1800
07FFF800
07FFF800
000FF000
00000000
00000000
00000000
00000000
00000000
00000000
00000000
F80003E0
F80003E0
F80003E0
F80003E0
F80003E0
F80003E0
F80003E0
F80003E0
F80003E0
F80003E0
F80003E0
F80003E0
F80003E0
F80003E0
F80003E0
F80003E0
F80003E0
F80003E0
F80003E0
F80003E0
F80003E0
F80003E0
F80003E0
F80003E0
F80003E0
F80003E0
F80003E0
F80003E0
F80003E0
F80003E0
F80003E0
F80003E0
F80003E0
F80003E0
F80003E0
F80003E0
F80003E0
FC0007E0
7C0007C0
7E0007C0
3E000FC0
3F001F80
1FC07F00
1FFFFF00
0FFFFE00
03FFFC00
01FFF000
003F8000
ENDCHAR
STARTCHAR 016A
ENCODING 362
SWIDTH 495 0
DWIDTH 33 0
BBX 27 58 3 -1
BITMAP
0FFFFE00
0FFFFE00
0FFFFE00
0FFFFE00
00000000
00000000
00000000
00000000
00000000
00000000
F80003E0
F80003E0
F80003E0
F80003E0
F80003E0
F80003E0
F80003E0
F80003E0
F80003E0
F80003E0
F80003E0
F80003E0
F80003E0
F80003E0
F80003E0
F80003E0
F80003E0
F80003E0
F80003E0
F80003E0
F80003E0
F80003E0
F80003E0
F80003E0
F80003E0
F80003E0
F80003E0
F80003E0
F80003E0
F80003E0
F80003E0
F80003E0
F80003E0
F80003E0
F80003E0
F80003E0
F80003E0
FC0007E0
7C0007C0
7E0007C0
3E000FC0
3F001F80
1FC07F00
1FFFFF00
0FFFFE00
03FFFC00
01FFF000
003F8000
ENDCHAR
STARTCHAR 016B
ENCODING 363
SWIDTH 495 0
DWIDTH 33 0
BBX 27 58 3 -1
BITMAP
0FFFFE00
0FFFFE00
0FFFFE00
0FFFFE00
00000000
00000000
00000000
00000000
00000000
00000000
F80003E0
F80003E0
F80003E0
F80003E0
F80003E0
F80003E0
F80003E0
F80003E0
F80003E0
F80003E0
F80003E0
F80003E0
F80003E0
F80003E0
F80003E0
F80003E0
F80003E0
F80003E0
F80003E0
F80003E0
F80003E0
F80003E0
F80003E0
F80003E0
F80003E0
F80003E0
F80003E0
F80003E0
F80003E0
F80003E0
F80003E0
F80003E0
F80003E0
F80003E0
F80003E0
F80003E0
F80003E0
FC0007E0
7C0007C0
7E0007C0
3E000FC0
3F001F80
1FC07F00
1FFFFF00
0FFFFE00
03FFFC00
01FFF000
003F8000
ENDCHAR
STARTCHAR 016E
ENCODING 366
SWIDTH 495 0
DWIDTH 33 0
BBX 27 65 3 -1
BITMAP
001F0000
007FC000
00FFE000
00F1E000
01E0F000
01C07000
01C07000
01C07000
01C07000
01E0F000
00FFE000
007FC000
003F8000
00000000
00000000
00000000
00000000
F80003E0
F80003E0
F80003E0
F80003E0
F80003E0
F80003E0
F80003E0
F80003E0
F80003E0
F80003E0
F80003E0
F80003E0
F80003E0
F80003E0
F80003E0
F80003E0
F80003E0
F80003E0
F80003E0
F80003E0
F80003E0
F80003E0
F80003E0
F80003E0
F80003E0
F80003E0
F80003E0
F80003E0
F80003E0
F80003E0
F80003E0
F80003E0
F80003E0
F80003E0
F80003E0
F80003E0
F80003E0
FC0007E0
7C0007C0
7E0007C0
3E000FC0
3F001F80
1FC07F00
1FFFFF00
0FFFFE00
03FFFC00
01FFF000
003F8000
ENDCHAR
STARTCHAR 016F
ENCODING 367
SWIDTH 495 0
DWIDTH 33 0
BBX 27 65 3 -1
BITMAP
001F0000
007FC000
00FFE000
00F1E000
01E0F000
01C07000
01C07000
01C07000
01C07000
01E0F000
00FFE000
007FC000
003F8000
00000000
00000000
00000000
00000000
F80003E0
F80003E0
F80003E0
F80003E0
F80003E0
F80003E0
F80003E0
F80003E0
F80003E0
F80003E0
F80003E0
F80003E0
F80003E0
F80003E0
F80003E0
F80003E0
F80003E0
F80003E0
F80003E0
F80003E0
F80003E0
F80003E0
F80003E0
F80003E0
F80003E0
F80003E0
F80003E0
F80003E0
F80003E0
F80003E0
F80003E0
F80003E0
F80003E0
F80003E0
F80003E0
F80003E0
F80003E0
FC0007E0
7C0007C0
7E0007C0
3E000FC0
3F001F80
1FC07F00
1FFFFF00
0FFFFE00
03FFFC00
01FFF000
003F8000
ENDCHAR
STARTCHAR 0170
ENCODING 368
SWIDTH 495 0
DWIDTH 33 0
BBX 27 60 3 -1
BITMAP
003E07C0
003C0780
00780F80
00F80F00
00F01E00
01E03C00
03C03C00
03807800
00000000
00000000
00000000
00000000
F80003E0
F80003E0
F80003E0
F80003E0
F80003E0
F80003E0
F80003E0
F80003E0
F80003E0
F80003E0
F80003E0
F80003E0
F80003E0
F80003E0
F80003E0
F80003E0
F80003E0
F80003E0
F80003E0
F80003E0
F80003E0
F80003E0
F80003E0
F80003E0
F80003E0
F80003E0
F80003E0
F80003E0
F80003E0
F80003E0
F80003E0
F80003E0
F80003E0
F80003E0
F80003E0
F80003E0
F80003E0
FC0007E0
7C0007C0
7E0007C0
3E000FC0
3F001F80
1FC07F00
1FFFFF00
0FFFFE00
03FFFC00
01FFF000
003F8000
ENDCHAR
STARTCHAR 0171
ENCODING 369
SWIDTH 495 0
DWIDTH 33 0
BBX 27 60 3 -1
BITMAP
003E07C0
003C0780
00780F80
00F80F00
00F01E00
01E03C00
03C03C00
03807800
00000000
00000000
00000000
00000000
F80003E0
F80003E0
F80003E0
F80003E0
F80003E0
F80003E0
F80003E0
F80003E0
F80003E0
F80003E0
F80003E0
F80003E0
F80003E0
F80003E0
F80003E0
F80003E0
F80003E0
F80003E0
F80003E0
F80003E0
F80003E0
F80003E0
F80003E0
F80003E0
F80003E0
F80003E0
F80003E0
F80003E0
F80003E0
F80003E0
F80003E0
F80003E0
F80003E0
F80003E0
F80003E0
F80003E0
F80003E0
FC0007E0
7C0007C0
7E0007C0
3E000FC0
3F001F80
1FC07F00
1FFFFF00
0FFFFE00
03FFFC00
01FFF000
003F8000
ENDCHAR
STARTCHAR 0172
ENCODING 370
SWIDTH 495 0
DWIDTH 33 0
BBX 27 59 3 -12
BITMAP
F80003E0
F80003E0
F80003E0
F80003E0
F80003E0
F80003E0
F80003E0
F80003E0
F80003E0
F80003E0
F80003E0
F80003E0
F80003E0
F80003E0
F80003E0
F80003E0
F80003E0
F80003E0
F80003E0
F80003E0
F80003E0
F80003E0
F80003E0
F80003E0
F80003E0
F80003E0
F80003E0
F80003E0
F80003E0
F80003E0
F80003E0
F80003E0
F80003E0
F80003E0
F80003E0
F80003E0
F80003E0
FC0007E0
7C0007C0
7E0007C0
3E000FC0
3F001F80
1FC07F00
1FFFFF00
0FFFFE00
03FFFC00
01FFF000
003F8000
003C0000
00780000
00700000
00E00000
00E00000
00E00000
00E00000
00F06000
007FF000
007FE000
001F8000
ENDCHAR
STARTCHAR 0173
ENCODING 371
SWIDTH 495 0
DWIDTH 33 0
BBX 27 59 3 -12
BITMAP
F80003E0
F80003E0
F80003E0
F80003E0
F80003E0
F80003E0
F80003E0
F80003E0
F80003E0
F80003E0
F80003E0
F80003E0
F80003E0
F80003E0
F80003E0
F80003E0
F80003E0
F80003E0
F80003E0
F80003E0
F80003E0
F80003E0
F80003E0
F80003E0
F80003E0
F80003E0
F80003E0
F80003E0
F80003E0
F80003E0
F80003E0
F80003E0
F80003E0
F80003E0
F80003E0
F80003E0
F80003E0
FC0007E0
7C0007C0
7E0007C0
3E000FC0
3F001F80
1FC07F00
1FFFFF00
0FFFFE00
03FFFC00
01FFF000
003F8000
003C0000
00780000
00700000
00E00000
00E00000
00E00000
00E00000
00F06000
007FF000
007FE000
001F8000
ENDCHAR
STARTCHAR 0176
ENCODING 374
SWIDTH 480 0
DWIDTH 32 0
BBX 28 59 2 0
BITMAP
001FC000
003FE000
007DE000
00F9F000
00F0F800
01E07C00
03C03E00
07C01E00
00000100
00000000
00000000
00000000
F80001F0
F80001F0
F80001F0
F80001F0
F80001F0
F80001F0
F80001F0
F80001F0
F80001F0
F80001F0
F80001F0
F80001F0
F80001F0
F80001F0
F80001F0
F80001F0
F80001F0
F80001F0
F80001F0
F80001F0
F80001F0
FC0001F0
7C0001F0
7C0001F0
7C0003F0
7C0003E0
7E0003E0
3E0007E0
3F0007C0
1F801FC0
1FC03F80
0FFFFF00
07FFFE00
03FFFC00
00FFF000
001FC000
000F8000
000F8000
000F8000
000F8000
000F8000
000F8000
000F8000
000F8000
000F8000
000F8000
000F8000
ENDCHAR
STARTCHAR 0177
ENCODING 375
SWIDTH 480 0
DWIDTH 32 0
BBX 28 59 2 0
BITMAP
001FC000
003FE000
007DE000
00F9F000
00F0F800
01E07C00
03C03E00
07C01E00
00000100
00000000
00000000
00000000
F80001F0
F80001F0
F80001F0
F80001F0
F80001F0
F80001F0
F80001F0
F80001F0
F80001F0
F80001F0
F80001F0
F80001F0
F80001F0
F80001F0
F80001F0
F80001F0
F80001F0
F80001F0
F80001F0
F80001F0
F80001F0
FC0001F0
7C0001F0
7C0001F0
7C0003F0
7C0003E0
7E0003E0
3E0007E0
3F0007C0
1F801FC0
1FC03F80
0FFFFF00
07FFFE00
03FFFC00
00FFF000
001FC000
000F8000
000F8000
000F8000
000F8000
000F8000
000F8000
000F8000
000F8000
000F8000
000F8000
000F8000
ENDCHAR
STARTCHAR 0178
ENCODING 376
SWIDTH 480 0
DWIDTH 32 0
BBX 28 59 2 0
BITMAP
07C01F00
0FE03F80
1FF07FC0
1FF07FC0
1FF07FC0
1FF07FC0
1FF07FC0
0FE03F80
07C01F00
00000000
00000000
00000000
F80001F0
F80001F0
F80001F0
F80001F0
F80001F0
F80001F0
F80001F0
F80001F0
F80001F0
F80001F0
F80001F0
F80001F0
F80001F0
F80001F0
F80001F0
F80001F0
F80001F0
F80001F0
F80001F0
F80001F0
F80001F0
FC0001F0
7C0001F0
7C0001F0
7C0003F0
7C0003E0
7E0003E0
3E0007E0
3F0007C0
1F801FC0
1FC03F80
0FFFFF00
07FFFE00
03FFFC00
00FFF000
001FC000
000F8000
000F8000
000F8000
000F8000
000F8000
000F8000
000F8000
000F8000
000F8000
000F8000
000F8000
ENDCHAR
STARTCHAR 0179
ENCODING 377
SWIDTH 480 0
DWIDTH 32 0
BBX 31 59 1 0
BITMAP
00007C00
00007800
0000F000
0001F000
0001E000
0003C000
00038000
00078000
00000000
00000000
00000000
00000000
7FFFFFFE
7FFFFFFE
7FFFFFFE
7FFFFFFC
7FFFFFFC
000001F8
000001F0
000003F0
000003E0
000007E0
00000FC0
00000F80
00001F80
00001F00
00003F00
00007E00
00007C00
0000FC00
0000F800
0001F800
0003F000
0003E000
0007E000
0007C000
000FC000
001F8000
001F0000
003F0000
003E0000
007E0000
00FC0000
00F80000
01F80000
01F00000
03F00000
07E00000
07C00000
0FC00000
0F800000
1F800000
3F000000
3E000000
7FFFFFF8
7FFFFFF8
FFFFFFF8
FFFFFFF8
FFFFFFF8
ENDCHAR
STARTCHAR 017A
ENCODING 378
SWIDTH 480 0
DWIDTH 32 0
BBX 31 59 1 0
BITMAP
00007C00
00007800
0000F000
0001F000
0001E000
0003C000
00038000
00078000
00000000
00000000
00000000
00000000
7FFFFFFE
7FFFFFFE
7FFFFFFE
7FFFFFFC
7FFFFFFC
000001F8
000001F0
000003F0
000003E0
000007E0
00000FC0
00000F80
00001F80
00001F00
00003F00
00007E00
00007C00
0000FC00
0000F800
0001F800
0003F000
0003E000
0007E000
0007C000
000FC000
001F8000
001F0000
003F0000
003E0000
007E0000
00FC0000
00F80000
01F80000
01F00000
03F00000
07E00000
07C00000
0FC00000
0F800000
1F800000
3F000000
3E000000
7FFFFFF8
7FFFFFF8
FFFFFFF8
FFFFFFF8
FFFFFFF8
ENDCHAR
STARTCHAR 017B
ENCODING 379
SWIDTH 480 0
DWIDTH 32 0
BBX 31 61 1 0
BITMAP
0003C000
0007E000
000FF000
001FF000
001FF800
001FF800
000FF000
000FF000
0007E000
00000000
00000000
00000000
00000000
00000000
7FFFFFFE
7FFFFFFE
7FFFFFFE
7FFFFFFC
7FFFFFFC
000001F8
000001F0
000003F0
000003E0
000007E0
00000FC0
00000F80
00001F80
00001F00
00003F00
00007E00
00007C00
0000FC00
0000F800
0001F800
0003F000
0003E000
0007E000
0007C000
000FC000
001F8000
001F0000
003F0000
003E0000
007E0000
00FC0000
00F80000
01F80000
01F00000
03F00000
07E00000
07C00000
0FC00000
0F800000
1F800000
3F000000
3E000000
7FFFFFF8
7FFFFFF8
FFFFFFF8
FFFFFFF8
FFFFFFF8
ENDCHAR
STARTCHAR 017C
ENCODING 380
SWIDTH 480 0
DWIDTH 32 0
BBX 31 61 1 0
BITMAP
0003C000
0007E000
000FF000
001FF000
001FF800
001FF800
000FF000
000FF000
0007E000
00000000
00000000
00000000
00000000
00000000
7FFFFFFE
7FFFFFFE
7FFFFFFE
7FFFFFFC
7FFFFFFC
000001F8
000001F0
000003F0
000003E0
000007E0
00000FC0
00000F80
00001F80
00001F00
00003F00
00007E00
00007C00
0000FC00
0000F800
0001F800
0003F000
0003E000
0007E000
0007C000
000FC000
001F8000
001F0000
003F0000
003E0000
007E0000
00FC0000
00F80000
01F80000
01F00000
03F00000
07E00000
07C00000
0FC00000
0F800000
1F800000
3F000000
3E000000
7FFFFFF8
7FFFFFF8
FFFFFFF8
FFFFFFF8
FFFFFFF8
ENDCHAR
STARTCHAR 017D
ENCODING 381
SWIDTH 480 0
DWIDTH 32 0
BBX 31 60 1 0
BITMAP
03E00780
01F00F00
00F81E00
007C3C00
003C7C00
001EF800
001FF000
000FE000
0007E000
00000000
00000000
00000000
00000000
7FFFFFFE
7FFFFFFE
7FFFFFFE
7FFFFFFC
7FFFFFFC
000001F8
000001F0
000003F0
000003E0
000007E0
00000FC0
00000F80
00001F80
00001F00
00003F00
00007E00
00007C00
0000FC00
0000F800
0001F800
0003F000
0003E000
0007E000
0007C000
000FC000
001F8000
001F0000
003F0000
003E0000
007E0000
00FC0000
00F80000
01F80000
01F00000
03F00000
07E00000
07C00000
0FC00000
0F800000
1F800000
3F000000
3E000000
7FFFFFF8
7FFFFFF8
FFFFFFF8
FFFFFFF8
FFFFFFF8
ENDCHAR
STARTCHAR 017E
ENCODING 382
SWIDTH 480 0
DWIDTH 32 0
BBX 31 60 1 0
BITMAP
03E00780
01F00F00
00F81E00
007C3C00
003C7C00
001EF800
001FF000
000FE000
0007E000
00000000
00000000
00000000
00000000
7FFFFFFE
7FFFFFFE
7FFFFFFE
7FFFFFFC
7FFFFFFC
000001F8
000001F0
000003F0
000003E0
000007E0
00000FC0
00000F80
00001F80
00001F00
00003F00
00007E00
00007C00
0000FC00
0000F800
0001F800
0003F000
0003E000
0007E000
0007C000
000FC000
001F8000
001F0000
003F0000
003E0000
007E0000
00FC0000
00F80000
01F80000
01F00000
03F00000
07E00000
07C00000
0FC00000
0F800000
1F800000
3F000000
3E000000
7FFFFFF8
7FFFFFF8
FFFFFFF8
FFFFFFF8
FFFFFFF8
ENDCHAR
STARTCHAR 01A0
ENCODING 416
SWIDTH 810 0
DWIDTH 54 0
BBX 50 54 2 -1
BITMAP
0000000000F000
0000000000F000
0000000001F000
0000000001E000
0000000001E000
000001E003E000
00007FFF87C000
0003FFFFFF8000
000FFFFFFE0000
001FFFFFFE0000
007FF003FF8000
00FF80007FC000
01FE00001FE000
03F8000007F000
07F0000003F800
07E0000001FC00
0FC0000000FC00
1F800000007E00
1F000000003E00
3F000000003F00
3E000000001F00
7E000000001F80
7C000000000F80
7C000000000F80
7C000000000F80
FC0000000007C0
F80000000007C0
F80000000007C0
F80000000007C0
F80000000007C0
F80000000007C0
F80000000007C0
F80000000007C0
F80000000007C0
7C000000000FC0
7C000000000F80
7C000000000F80
7E000000001F80
3E000000001F00
3F000000003F00
1F000000003F00
1F800000007E00
0FC0000000FC00
0FE0000001FC00
07F0000003F800
03F8000007F000
01FC00000FE000
00FF00003FC000
007FE001FF8000
003FFFFFFF0000
000FFFFFFC0000
0003FFFFF00000
0000FFFFC00000
00000FFC000000
ENDCHAR
STARTCHAR 01A1
ENCODING 417
SWIDTH 810 0
DWIDTH 54 0
BBX 50 54 2 -1
BITMAP
0000000000F000
0000000000F000
0000000001F000
0000000001E000
0000000001E000
000001E003E000
00007FFF87C000
0003FFFFFF8000
000FFFFFFE0000
001FFFFFFE0000
007FF003FF8000
00FF80007FC000
01FE00001FE000
03F8000007F000
07F0000003F800
07E0000001FC00
0FC0000000FC00
1F800000007E00
1F000000003E00
3F000000003F00
3E000000001F00
7E000000001F80
7C000000000F80
7C000000000F80
7C000000000F80
FC0000000007C0
F80000000007C0
F80000000007C0
F80000000007C0
F80000000007C0
F80000000007C0
F80000000007C0
F80000000007C0
F80000000007C0
7C000000000FC0
7C000000000F80
7C000000000F80
7E000000001F80
3E000000001F00
3F000000003F00
1F000000003F00
1F800000007E00
0FC0000000FC00
0FE0000001FC00
07F0000003F800
03F8000007F000
01FC00000FE000
00FF00003FC000
007FE001FF8000
003FFFFFFF0000
000FFFFFFC0000
0003FFFFF00000
0000FFFFC00000
00000FFC000000
ENDCHAR
STARTCHAR 01AF
ENCODING 431
SWIDTH 495 0
DWIDTH 33 0
BBX 32 54 3 -1
BITMAP
0000000F
0000000F
0000000F
0000000F
0000001E
0000001E
F80003FC
F80003F8
F80003E0
F80003E0
F80003E0
F80003E0
F80003E0
F80003E0
F80003E0
F80003E0
F80003E0
F80003E0
F80003E0
F80003E0
F80003E0
F80003E0
F80003E0
F80003E0
F80003E0
F80003E0
F80003E0
F80003E0
F80003E0
F80003E0
F80003E0
F80003E0
F80003E0
F80003E0
F80003E0
F80003E0
F80003E0
F80003E0
F80003E0
F80003E0
F80003E0
F80003E0
F80003E0
FC0007E0
7C0007C0
7E0007C0
3E000FC0
3F001F80
1FC07F00
1FFFFF00
0FFFFE00
03FFFC00
01FFF000
003F8000
ENDCHAR
STARTCHAR 01B0
ENCODING 432
SWIDTH 495 0
DWIDTH 33 0
BBX 32 54 3 -1
BITMAP
0000000F
0000000F
0000000F
0000000F
0000001E
0000001E
F80003FC
F80003F8
F80003E0
F80003E0
F80003E0
F80003E0
F80003E0
F80003E0
F80003E0
F80003E0
F80003E0
F80003E0
F80003E0
F80003E0
F80003E0
F80003E0
F80003E0
F80003E0
F80003E0
F80003E0
F80003E0
F80003E0
F80003E0
F80003E0
F80003E0
F80003E0
F80003E0
F80003E0
F80003E0
F80003E0
F80003E0
F80003E0
F80003E0
F80003E0
F80003E0
F80003E0
F80003E0
FC0007E0
7C0007C0
7E0007C0
3E000FC0
3F001F80
1FC07F00
1FFFFF00
0FFFFE00
03FFFC00
01FFF000
003F8000
ENDCHAR
STARTCHAR 01CD
ENCODING 461
SWIDTH 540 0
DWIDTH 36 0
BBX 33 60 3 0
BITMAP
07801E0000
03C03C0000
01E07C0000
01F0F80000
00F9F00000
007DE00000
003FE00000
003FC00000
001F800000
0000000000
0000000000
0000000000
000F000000
00FFF00000
01FFFC0000
07FFFE0000
0FFFFF0000
1FE07F8000
1F801F8000
3F000FC000
3E0007C000
7E0003E000
7C0003E000
7C0003E000
7C0003F000
FC0001F000
F80001F000
F80001F000
F80001F000
F80001F000
F80001F000
F80001F000
F80001F000
F80001F000
F80001F000
F80001F000
F80001F000
F80001F000
F80001F000
F80001F000
F80001F000
F80001F000
F80001F000
F80001F000
F80001F000
F80001F000
F80001F000
F80001F000
F80001F000
F80001F000
F80001F000
F80001F000
F80001F000
F80001F000
F80001F000
FFFFFFFF80
FFFFFFFF80
FFFFFFFF80
FFFFFFFF80
FFFFFFFF80
ENDCHAR
STARTCHAR 01CE
ENCODING 462
SWIDTH 540 0
DWIDTH 36 0
BBX 33 60 3 0
BITMAP
07801E0000
03C03C0000
01E07C0000
01F0F80000
00F9F00000
007DE00000
003FE00000
003FC00000
001F800000
0000000000
0000000000
0000000000
000F000000
00FFF00000
01FFFC0000
07FFFE0000
0FFFFF0000
1FE07F8000
1F801F8000
3F000FC000
3E0007C000
7E0003E000
7C0003E000
7C0003E000
7C0003F000
FC0001F000
F80001F000
F80001F000
F80001F000
F80001F000
F80001F000
F80001F000
F80001F000
F80001F000
F80001F000
F80001F000
F80001F000
F80001F000
F80001F000
F80001F000
F80001F000
F80001F000
F80001F000
F80001F000
F80001F000
F80001F000
F80001F000
F80001F000
F80001F000
F80001F000
F80001F000
F80001F000
F80001F000
F80001F000
F80001F000
FFFFFFFF80
FFFFFFFF80
FFFFFFFF80
FFFFFFFF80
FFFFFFFF80
ENDCHAR
STARTCHAR 01CF
ENCODING 463
SWIDTH 165 0
DWIDTH 11 0
BBX 18 42 -3 0
BITMAP
F003C0
780780
7C0F80
3E1F00
1F3E00
0FFC00
07F800
07F800
03F000
000000
000000
000000
000000
03E000
03E000
03E000
03E000
03E000
03E000
03E000
03E000
03E000
03E000
03E000
03E000
03E000
03E000
03E000
03E000
03E000
03E000
03E000
03E000
03E000
03E000
03E000
03E000
03E000
03E000
03E000
03E000
03E000
ENDCHAR
STARTCHAR 01D0
ENCODING 464
SWIDTH 165 0
DWIDTH 11 0
BBX 18 42 -3 0
BITMAP
F003C0
780780
7C0F80
3E1F00
1F3E00
0FFC00
07F800
07F800
03F000
000000
000000
000000
000000
03E000
03E000
03E000
03E000
03E000
03E000
03E000
03E000
03E000
03E000
03E000
03E000
03E000
03E000
03E000
03E000
03E000
03E000
03E000
03E000
03E000
03E000
03E000
03E000
03E000
03E000
03E000
03E000
03E000
ENDCHAR
STARTCHAR 01D1
ENCODING 465
SWIDTH 810 0
DWIDTH 54 0
BBX 50 61 2 -1
BITMAP
0000F003C00000
00007807800000
00007C0F800000
00003E1F000000
00001F3E000000
00000FFC000000
000007F8000000
000007F8000000
000003F0000000
00000000000000
00000000000000
00000000000000
000001F0000000
00007FFF800000
0003FFFFF00000
000FFFFFFC0000
001FFFFFFE0000
007FF003FF8000
00FF80007FC000
01FE00001FE000
03F8000007F000
07F0000003F800
07E0000001FC00
0FC0000000FC00
1F800000007E00
1F000000003E00
3F000000003F00
3E000000001F00
7E000000001F80
7C000000000F80
7C000000000F80
7C000000000F80
FC0000000007C0
F80000000007C0
F80000000007C0
F80000000007C0
F80000000007C0
F80000000007C0
F80000000007C0
F80000000007C0
F80000000007C0
7C000000000FC0
7C000000000F80
7C000000000F80
7E000000001F80
3E000000001F00
3F000000003F00
1F000000003F00
1F800000007E00
0FC0000000FC00
0FE0000001FC00
07F0000003F800
03F8000007F000
01FC00000FE000
00FF00003FC000
007FE001FF8000
003FFFFFFF0000
000FFFFFFC0000
0003FFFFF00000
0000FFFFC00000
00000FFC000000
ENDCHAR
STARTCHAR 01D2
ENCODING 466
SWIDTH 810 0
DWIDTH 54 0
BBX 50 61 2 -1
BITMAP
0000F003C00000
00007807800000
00007C0F800000
00003E1F000000
00001F3E000000
00000FFC000000
000007F8000000
000007F8000000
000003F0000000
00000000000000
00000000000000
00000000000000
000001F0000000
00007FFF800000
0003FFFFF00000
000FFFFFFC0000
001FFFFFFE0000
007FF003FF8000
00FF80007FC000
01FE00001FE000
03F8000007F000
07F0000003F800
07E0000001FC00
0FC0000000FC00
1F800000007E00
1F000000003E00
3F000000003F00
3E000000001F00
7E000000001F80
7C000000000F80
7C000000000F80
7C000000000F80
FC0000000007C0
F80000000007C0
F80000000007C0
F80000000007C0
F80000000007C0
F80000000007C0
F80000000007C0
F80000000007C0
F80000000007C0
7C000000000FC0
7C000000000F80
7C000000000F80
7E000000001F80
3E000000001F00
3F000000003F00
1F000000003F00
1F800000007E00
0FC0000000FC00
0FE0000001FC00
07F0000003F800
03F8000007F000
01FC00000FE000
00FF00003FC000
007FE001FF8000
003FFFFFFF0000
000FFFFFFC0000
0003FFFFF00000
0000FFFFC00000
00000FFC000000
ENDCHAR
STARTCHAR 01D3
ENCODING 467
SWIDTH 495 0
DWIDTH 33 0
BBX 27 61 3 -1
BITMAP
0F803E00
07C03C00
03E07800
01E0F000
00F1F000
00FBE000
007FC000
003F8000
001F0000
00000000
00000000
00000000
00000000
F80003E0
F80003E0
F80003E0
F80003E0
F80003E0
F80003E0
F80003E0
F80003E0
F80003E0
F80003E0
F80003E0
F80003E0
F80003E0
F80003E0
F80003E0
F80003E0
F80003E0
F80003E0
F80003E0
F80003E0
F80003E0
F80003E0
F80003E0
F80003E0
F80003E0
F80003E0
F80003E0
F80003E0
F80003E0
F80003E0
F80003E0
F80003E0
F80003E0
F80003E0
F80003E0
F80003E0
F80003E0
FC0007E0
7C0007C0
7E0007C0
3E000FC0
3F001F80
1FC07F00
1FFFFF00
0FFFFE00
03FFFC00
01FFF000
003F8000
ENDCHAR
STARTCHAR 01D4
ENCODING 468
SWIDTH 495 0
DWIDTH 33 0
BBX 27 61 3 -1
BITMAP
0F803E00
07C03C00
03E07800
01E0F000
00F1F000
00FBE000
007FC000
003F8000
001F0000
00000000
00000000
00000000
00000000
F80003E0
F80003E0
F80003E0
F80003E0
F80003E0
F80003E0
F80003E0
F80003E0
F80003E0
F80003E0
F80003E0
F80003E0
F80003E0
F80003E0
F80003E0
F80003E0
F80003E0
F80003E0
F80003E0
F80003E0
F80003E0
F80003E0
F80003E0
F80003E0
F80003E0
F80003E0
F80003E0
F80003E0
F80003E0
F80003E0
F80003E0
F80003E0
F80003E0
F80003E0
F80003E0
F80003E0
F80003E0
FC0007E0
7C0007C0
7E0007C0
3E000FC0
3F001F80
1FC07F00
1FFFFF00
0FFFFE00
03FFFC00
01FFF000
003F8000
ENDCHAR
STARTCHAR 02C6
ENCODING 710
SWIDTH 285 0
DWIDTH 19 0
BBX 19 8 0 51
BITMAP
03F800
07FC00
07BE00
0F9F00
1F0F00
3E0780
7C03C0
F803E0
ENDCHAR
STARTCHAR 02C7
ENCODING 711
SWIDTH 285 0
DWIDTH 19 0
BBX 19 9 0 51
BITMAP
F801E0
7C03C0
3E0780
1F0F80
0F9F00
07BE00
07FC00
03F800
01F800
ENDCHAR
STARTCHAR 02D8
ENCODING 728
SWIDTH 255 0
DWIDTH 17 0
BBX 18 8 0 51
BITMAP
F003C0
F003C0
F00780
780780
3C1F00
3FFE00
1FFC00
07F800
ENDCHAR
STARTCHAR 02D9
ENCODING 729
SWIDTH 135 0
DWIDTH 9 0
BBX 10 9 0 52
BITMAP
3F00
7F80
7F80
FFC0
FFC0
FF80
7F80
3F00
0E00
ENDCHAR
STARTCHAR 02DA
ENCODING 730
SWIDTH 195 0
DWIDTH 13 0
BBX 13 13 0 51
BITMAP
0F80
1FE0
7FF0
78F0
F038
E038
E038
E038
E038
7078
7FF0
3FE0
1FC0
ENDCHAR
STARTCHAR 02DB
ENCODING 731
SWIDTH 180 0
DWIDTH 12 0
BBX 12 13 0 -12
BITMAP
07C0
1E00
3C00
7800
7000
E000
E000
E000
E000
F0F0
7FF0
3FE0
0F80
ENDCHAR
STARTCHAR 02DC
ENCODING 732
SWIDTH 225 0
DWIDTH 15 0
BBX 16 5 0 54
BITMAP
1800
FF81
FFFF
FFFF
00FF
ENDCHAR
STARTCHAR 02DD
ENCODING 733
SWIDTH 315 0
DWIDTH 21 0
BBX 21 8 0 51
BITMAP
07C0F8
0F80F0
0F01E0
1E03E0
3C03C0
3C0780
780F00
F00E00
ENDCHAR
STARTCHAR 0300
ENCODING 768
SWIDTH 0 0
DWIDTH 0 0
BBX 10 8 -10 51
BITMAP
F800
7C00
3C00
1E00
0F00
0F00
0780
03C0
ENDCHAR
STARTCHAR 0301
ENCODING 769
SWIDTH 0 0
DWIDTH 0 0
BBX 10 8 -10 51
BITMAP
07C0
0F80
0F00
1E00
3C00
3C00
7800
F000
ENDCHAR
STARTCHAR 0302
ENCODING 770
SWIDTH 0 0
DWIDTH 0 0
BBX 19 8 -19 51
BITMAP
03F800
07FC00
0FBC00
1F3E00
1E1F00
3C0F80
7807C0
F803E0
ENDCHAR
STARTCHAR 0303
ENCODING 771
SWIDTH 0 0
DWIDTH 0 0
BBX 16 5 -16 54
BITMAP
1C00
FF81
FFFF
FFFF
80FF
ENDCHAR
STARTCHAR 0304
ENCODING 772
SWIDTH 0 0
DWIDTH 0 0
BBX 19 4 -19 53
BITMAP
FFFFE0
FFFFE0
FFFFE0
FFFFE0
ENDCHAR
STARTCHAR 0306
ENCODING 774
SWIDTH 0 0
DWIDTH 0 0
BBX 18 8 -18 51
BITMAP
F003C0
F003C0
700380
780780
3C0F00
1FFF00
0FFE00
07F800
ENDCHAR
STARTCHAR 0307
ENCODING 775
SWIDTH 0 0
DWIDTH 0 0
BBX 9 9 -9 52
BITMAP
3E00
7F00
FF80
FF80
FF80
FF80
7F80
7F00
1C00
ENDCHAR
STARTCHAR 0308
ENCODING 776
SWIDTH 0 0
DWIDTH 0 0
BBX 23 9 -23 50
BITMAP
3E0078
7F01FC
FF81FE
FF83FE
FF83FE
FF83FE
FF83FE
7F01FC
3E00F8
ENDCHAR
STARTCHAR 0309
ENCODING 777
SWIDTH 0 0
DWIDTH 0 0
BBX 5 12 -5 51
BITMAP
70
78
38
78
78
70
F0
E0
E0
E0
F0
F0
ENDCHAR
STARTCHAR 030A
ENCODING 778
SWIDTH 0 0
DWIDTH 0 0
BBX 13 13 -13 51
BITMAP
0F80
3FE0
7FF0
78F0
E078
E038
E038
E038
E038
F070
7FF0
3FE0
1FC0
ENDCHAR
STARTCHAR 030B
ENCODING 779
SWIDTH 0 0
DWIDTH 0 0
BBX 21 8 -21 51
BITMAP
0780F8
0F01F0
1F01E0
1E03C0
3C0780
780780
780F00
F01E00
ENDCHAR
STARTCHAR 030C
ENCODING 780
SWIDTH 0 0
DWIDTH 0 0
BBX 19 9 -19 51
BITMAP
F003E0
7807C0
3C0F80
3E1F00
1F1E00
0FBC00
07FC00
03F800
03F000
ENDCHAR
STARTCHAR 031B
ENCODING 795
SWIDTH 0 0
DWIDTH 0 0
BBX 8 9 -8 44
BITMAP
0F
0F
0F
0F
0E
1E
FC
F8
C0
ENDCHAR
STARTCHAR 0323
ENCODING 803
SWIDTH 0 0
DWIDTH 0 0
BBX 9 9 -9 -18
BITMAP
3E00
7F00
FF80
FF80
FF80
FF80
FF00
7F00
1C00
ENDCHAR
STARTCHAR 0326
ENCODING 806
SWIDTH 0 0
DWIDTH 0 0
BBX 9 11 -9 -15
BITMAP
0F80
0F00
1F00
1E00
1E00
3C00
3C00
7800
7800
7000
F000
ENDCHAR
STARTCHAR 0327
ENCODING 807
SWIDTH 0 0
DWIDTH 0 0
BBX 14 14 -14 -14
BITMAP
01C0
0380
03C0
03F0
00F8
0038
001C
001C
601C
E01C
F83C
7FF8
1FF0
0FC0
ENDCHAR
STARTCHAR 0328
ENCODING 808
SWIDTH 0 0
DWIDTH 0 0
BBX 12 13 -12 -12
BITMAP
07C0
1E00
3C00
7000
F000
E000
E000
E000
E040
F0F0
7FF0
3FC0
0F00
ENDCHAR
STARTCHAR 0335
ENCODING 821
SWIDTH 0 0
DWIDTH 0 0
BBX 22 4 -22 13
BITMAP
FFFFFC
FFFFFC
FFFFFC
FFFFFC
ENDCHAR
STARTCHAR 1EA0
ENCODING 7840
SWIDTH 540 0
DWIDTH 36 0
BBX 33 66 3 -18
BITMAP
000F000000
00FFF00000
01FFFC0000
07FFFE0000
0FFFFF0000
1FE07F8000
1F801F8000
3F000FC000
3E0007C000
7E0003E000
7C0003E000
7C0003E000
7C0003F000
FC0001F000
F80001F000
F80001F000
F80001F000
F80001F000
F80001F000
F80001F000
F80001F000
F80001F000
F80001F000
F80001F000
F80001F000
F80001F000
F80001F000
F80001F000
F80001F000
F80001F000
F80001F000
F80001F000
F80001F000
F80001F000
F80001F000
F80001F000
F80001F000
F80001F000
F80001F000
F80001F000
F80001F000
F80001F000
F80001F000
FFFFFFFF80
FFFFFFFF80
FFFFFFFF80
FFFFFFFF80
FFFFFFFF80
0000000000
0000000000
0000000000
0000000000
0000000000
0000000000
0000000000
0000000000
0000000000
001F800000
003FC00000
003FC00000
003FE00000
003FE00000
003FE00000
003FC00000
001F800000
0006000000
ENDCHAR
STARTCHAR 1EA1
ENCODING 7841
SWIDTH 540 0
DWIDTH 36 0
BBX 33 66 3 -18
BITMAP
000F000000
00FFF00000
01FFFC0000
07FFFE0000
0FFFFF0000
1FE07F8000
1F801F8000
3F000FC000
3E0007C000
7E0003E000
7C0003E000
7C0003E000
7C0003F000
FC0001F000
F80001F000
F80001F000
F80001F000
F80001F000
F80001F000
F80001F000
F80001F000
F80001F000
F80001F000
F80001F000
F80001F000
F80001F000
F80001F000
F80001F000
F80001F000
F80001F000
F80001F000
F80001F000
F80001F000
F80001F000
F80001F000
F80001F000
F80001F000
F80001F000
F80001F000
F80001F000
F80001F000
F80001F000
F80001F000
FFFFFFFF80
FFFFFFFF80
FFFFFFFF80
FFFFFFFF80
FFFFFFFF80
0000000000
0000000000
0000000000
0000000000
0000000000
0000000000
0000000000
0000000000
0000000000
001F800000
003FC00000
003FC00000
003FE00000
003FE00000
003FE00000
003FC00000
001F800000
0006000000
ENDCHAR
STARTCHAR 1EA2
ENCODING 7842
SWIDTH 540 0
DWIDTH 36 0
BBX 33 63 3 0
BITMAP
0007000000
0007000000
0007800000
0007000000
0007000000
000F000000
000E000000
001E000000
001E000000
001E000000
000E000000
000E000000
0000000000
0000000000
0000000000
000F000000
00FFF00000
01FFFC0000
07FFFE0000
0FFFFF0000
1FE07F8000
1F801F8000
3F000FC000
3E0007C000
7E0003E000
7C0003E000
7C0003E000
7C0003F000
FC0001F000
F80001F000
F80001F000
F80001F000
F80001F000
F80001F000
F80001F000
F80001F000
F80001F000
F80001F000
F80001F000
F80001F000
F80001F000
F80001F000
F80001F000
F80001F000
F80001F000
F80001F000
F80001F000
F80001F000
F80001F000
F80001F000
F80001F000
F80001F000
F80001F000
F80001F000
F80001F000
F80001F000
F80001F000
F80001F000
FFFFFFFF80
FFFFFFFF80
FFFFFFFF80
FFFFFFFF80
FFFFFFFF80
ENDCHAR
STARTCHAR 1EA3
ENCODING 7843
SWIDTH 540 0
DWIDTH 36 0
BBX 33 63 3 0
BITMAP
0007000000
0007000000
0007800000
0007000000
0007000000
000F000000
000E000000
001E000000
001E000000
001E000000
000E000000
000E000000
0000000000
0000000000
0000000000
000F000000
00FFF00000
01FFFC0000
07FFFE0000
0FFFFF0000
1FE07F8000
1F801F8000
3F000FC000
3E0007C000
7E0003E000
7C0003E000
7C0003E000
7C0003F000
FC0001F000
F80001F000
F80001F000
F80001F000
F80001F000
F80001F000
F80001F000
F80001F000
F80001F000
F80001F000
F80001F000
F80001F000
F80001F000
F80001F000
F80001F000
F80001F000
F80001F000
F80001F000
F80001F000
F80001F000
F80001F000
F80001F000
F80001F000
F80001F000
F80001F000
F80001F000
F80001F000
F80001F000
F80001F000
F80001F000
FFFFFFFF80
FFFFFFFF80
FFFFFFFF80
FFFFFFFF80
FFFFFFFF80
ENDCHAR
STARTCHAR 1EA4
ENCODING 7844
SWIDTH 540 0
DWIDTH 36 0
BBX 33 65 3 0
BITMAP
0000001F00
0000003E00
0000003C00
0000007800
000000F000
000000F000
001FC1E000
003FC3C000
007FE00000
00F9F00000
01F0F80000
01E07C0000
03C03C0000
07801E0000
0000000000
0000000000
0000000000
000F000000
00FFF00000
01FFFC0000
07FFFE0000
0FFFFF0000
1FE07F8000
1F801F8000
3F000FC000
3E0007C000
7E0003E000
7C0003E000
7C0003E000
7C0003F000
FC0001F000
F80001F000
F80001F000
F80001F000
F80001F000
F80001F000
F80001F000
F80001F000
F80001F000
F80001F000
F80001F000
F80001F000
F80001F000
F80001F000
F80001F000
F80001F000
F80001F000
F80001F000
F80001F000
F80001F000
F80001F000
F80001F000
F80001F000
F80001F000
F80001F000
F80001F000
F80001F000
F80001F000
F80001F000
F80001F000
FFFFFFFF80
FFFFFFFF80
FFFFFFFF80
FFFFFFFF80
FFFFFFFF80
ENDCHAR
STARTCHAR 1EA5
ENCODING 7845
SWIDTH 540 0
DWIDTH 36 0
BBX 33 65 3 0
BITMAP
0000001F00
0000003E00
0000003C00
0000007800
000000F000
000000F000
001FC1E000
003FC3C000
007FE00000
00F9F00000
01F0F80000
01E07C0000
03C03C0000
07801E0000
0000000000
0000000000
0000000000
000F000000
00FFF00000
01FFFC0000
07FFFE0000
0FFFFF0000
1FE07F8000
1F801F8000
3F000FC000
3E0007C000
7E0003E000
7C0003E000
7C0003E000
7C0003F000
FC0001F000
F80001F000
F80001F000
F80001F000
F80001F000
F80001F000
F80001F000
F80001F000
F80001F000
F80001F000
F80001F000
F80001F000
F80001F000
F80001F000
F80001F000
F80001F000
F80001F000
F80001F000
F80001F000
F80001F000
F80001F000
F80001F000
F80001F000
F80001F000
F80001F000
F80001F000
F80001F000
F80001F000
F80001F000
F80001F000
FFFFFFFF80
FFFFFFFF80
FFFFFFFF80
FFFFFFFF80
FFFFFFFF80
ENDCHAR
STARTCHAR 1EA6
ENCODING 7846
SWIDTH 540 0
DWIDTH 36 0
BBX 37 65 -1 0
BITMAP
F000000000
F800000000
7C00000000
3C00000000
1E00000000
0E00000000
0F01FC0000
0783FC0000
0007FE0000
000F9F0000
001F0F8000
001E07C000
003C03C000
007801E000
0000000000
0000000000
0000000000
0000F00000
000FFF0000
001FFFC000
007FFFE000
00FFFFF000
01FE07F800
01F801F800
03F000FC00
03E0007C00
07E0003E00
07C0003E00
07C0003E00
07C0003F00
0FC0001F00
0F80001F00
0F80001F00
0F80001F00
0F80001F00
0F80001F00
0F80001F00
0F80001F00
0F80001F00
0F80001F00
0F80001F00
0F80001F00
0F80001F00
0F80001F00
0F80001F00
0F80001F00
0F80001F00
0F80001F00
0F80001F00
0F80001F00
0F80001F00
0F80001F00
0F80001F00
0F80001F00
0F80001F00
0F80001F00
0F80001F00
0F80001F00
0F80001F00
0F80001F00
0FFFFFFFF8
0FFFFFFFF8
0FFFFFFFF8
0FFFFFFFF8
0FFFFFFFF8
ENDCHAR
STARTCHAR 1EA7
ENCODING 7847
SWIDTH 540 0
DWIDTH 36 0
BBX 37 65 -1 0
BITMAP
F000000000
F800000000
7C00000000
3C00000000
1E00000000
0E00000000
0F01FC0000
0783FC0000
0007FE0000
000F9F0000
001F0F8000
001E07C000
003C03C000
007801E000
0000000000
0000000000
0000000000
0000F00000
000FFF0000
001FFFC000
007FFFE000
00FFFFF000
01FE07F800
01F801F800
03F000FC00
03E0007C00
07E0003E00
07C0003E00
07C0003E00
07C0003F00
0FC0001F00
0F80001F00
0F80001F00
0F80001F00
0F80001F00
0F80001F00
0F80001F00
0F80001F00
0F80001F00
0F80001F00
0F80001F00
0F80001F00
0F80001F00
0F80001F00
0F80001F00
0F80001F00
0F80001F00
0F80001F00
0F80001F00
0F80001F00
0F80001F00
0F80001F00
0F80001F00
0F80001F00
0F80001F00
0F80001F00
0F80001F00
0F80001F00
0F80001F00
0F80001F00
0FFFFFFFF8
0FFFFFFFF8
0FFFFFFFF8
0FFFFFFFF8
0FFFFFFFF8
ENDCHAR
STARTCHAR 1EA8
ENCODING 7848
SWIDTH 540 0
DWIDTH 36 0
BBX 33 69 3 0
BITMAP
000001C000
000001E000
000001E000
000001E000
000001E000
000001C000
000003C000
000003C000
0000038000
0000038000
001FC38000
003FC3C000
007FE1C000
00F9F00000
01F0F80000
01E07C0000
03C03C0000
07801E0000
0000000000
0000000000
0000000000
000F000000
00FFF00000
01FFFC0000
07FFFE0000
0FFFFF0000
1FE07F8000
1F801F8000
3F000FC000
3E0007C000
7E0003E000
7C0003E000
7C0003E000
7C0003F000
FC0001F000
F80001F000
F80001F000
F80001F000
F80001F000
F80001F000
F80001F000
F80001F000
F80001F000
F80001F000
F80001F000
F80001F000
F80001F000
F80001F000
F80001F000
F80001F000
F80001F000
F80001F000
F80001F000
F80001F000
F80001F000
F80001F000
F80001F000
F80001F000
F80001F000
F80001F000
F80001F000
F80001F000
F80001F000
F80001F000
FFFFFFFF80
FFFFFFFF80
FFFFFFFF80
FFFFFFFF80
FFFFFFFF80
ENDCHAR
STARTCHAR 1EA9
ENCODING 7849
SWIDTH 540 0
DWIDTH 36 0
BBX 33 69 3 0
BITMAP
000001C000
000001E000
000001E000
000001E000
000001E000
000001C000
000003C000
000003C000
0000038000
0000038000
001FC38000
003FC3C000
007FE1C000
00F9F00000
01F0F80000
01E07C0000
03C03C0000
07801E0000
0000000000
0000000000
0000000000
000F000000
00FFF00000
01FFFC0000
07FFFE0000
0FFFFF0000
1FE07F8000
1F801F8000
3F000FC000
3E0007C000
7E0003E000
7C0003E000
7C0003E000
7C0003F000
FC0001F000
F80001F000
F80001F000
F80001F000
F80001F000
F80001F000
F80001F000
F80001F000
F80001F000
F80001F000
F80001F000
F80001F000
F80001F000
F80001F000
F80001F000
F80001F000
F80001F000
F80001F000
F80001F000
F80001F000
F80001F000
F80001F000
F80001F000
F80001F000
F80001F000
F80001F000
F80001F000
F80001F000
F80001F000
F80001F000
FFFFFFFF80
FFFFFFFF80
FFFFFFFF80
FFFFFFFF80
FFFFFFFF80
ENDCHAR
STARTCHAR 1EAA
ENCODING 7850
SWIDTH 540 0
DWIDTH 36 0
BBX 33 66 3 0
BITMAP
0001F80000
0003FFBC00
0003FFFC00
00039FFC00
000001F000
0000000000
0000000000
001FC00000
003FC00000
007FE00000
00F9F00000
01F0F80000
01E07C0000
03C03C0000
07801E0000
0000000000
0000000000
0000000000
000F000000
00FFF00000
01FFFC0000
07FFFE0000
0FFFFF0000
1FE07F8000
1F801F8000
3F000FC000
3E0007C000
7E0003E000
7C0003E000
7C0003E000
7C0003F000
FC0001F000
F80001F000
F80001F000
F80001F000
F80001F000
F80001F000
F80001F000
F80001F000
F80001F000
F80001F000
F80001F000
F80001F000
F80001F000
F80001F000
F80001F000
F80001F000
F80001F000
F80001F000
F80001F000
F80001F000
F80001F000
F80001F000
F80001F000
F80001F000
F80001F000
F80001F000
F80001F000
F80001F000
F80001F000
F80001F000
FFFFFFFF80
FFFFFFFF80
FFFFFFFF80
FFFFFFFF80
FFFFFFFF80
ENDCHAR
STARTCHAR 1EAB
ENCODING 7851
SWIDTH 540 0
DWIDTH 36 0
BBX 33 66 3 0
BITMAP
0001F80000
0003FFBC00
0003FFFC00
00039FFC00
000001F000
0000000000
0000000000
001FC00000
003FC00000
007FE00000
00F9F00000
01F0F80000
01E07C0000
03C03C0000
07801E0000
0000000000
0000000000
0000000000
000F000000
00FFF00000
01FFFC0000
07FFFE0000
0FFFFF0000
1FE07F8000
1F801F8000
3F000FC000
3E0007C000
7E0003E000
7C0003E000
7C0003E000
7C0003F000
FC0001F000
F80001F000
F80001F000
F80001F000
F80001F000
F80001F000
F80001F000
F80001F000
F80001F000
F80001F000
F80001F000
F80001F000
F80001F000
F80001F000
F80001F000
F80001F000
F80001F000
F80001F000
F80001F000
F80001F000
F80001F000
F80001F000
F80001F000
F80001F000
F80001F000
F80001F000
F80001F000
F80001F000
F80001F000
F80001F000
FFFFFFFF80
FFFFFFFF80
FFFFFFFF80
FFFFFFFF80
FFFFFFFF80
ENDCHAR
STARTCHAR 1EAC
ENCODING 7852
SWIDTH 540 0
DWIDTH 36 0
BBX 33 77 3 -18
BITMAP
001FC00000
003FC00000
007FE00000
00F9F00000
01F0F80000
01E07C0000
03C03C0000
07801E0000
0000000000
0000000000
0000000000
000F000000
00FFF00000
01FFFC0000
07FFFE0000
0FFFFF0000
1FE07F8000
1F801F8000
3F000FC000
3E0007C000
7E0003E000
7C0003E000
7C0003E000
7C0003F000
FC0001F000
F80001F000
F80001F000
F80001F000
F80001F000
F80001F000
F80001F000
F80001F000
F80001F000
F80001F000
F80001F000
F80001F000
F80001F000
F80001F000
F80001F000
F80001F000
F80001F000
F80001F000
F80001F000
F80001F000
F80001F000
F80001F000
F80001F000
F80001F000
F80001F000
F80001F000
F80001F000
F80001F000
F80001F000
F80001F000
FFFFFFFF80
FFFFFFFF80
FFFFFFFF80
FFFFFFFF80
FFFFFFFF80
0000000000
0000000000
0000000000
0000000000
0000000000
0000000000
0000000000
0000000000
0000000000
001F800000
003FC00000
003FC00000
003FE00000
003FE00000
003FE00000
003FC00000
001F800000
0006000000
ENDCHAR
STARTCHAR 1EAD
ENCODING 7853
SWIDTH 540 0
DWIDTH 36 0
BBX 33 77 3 -18
BITMAP
001FC00000
003FC00000
007FE00000
00F9F00000
01F0F80000
01E07C0000
03C03C0000
07801E0000
0000000000
0000000000
0000000000
000F000000
00FFF00000
01FFFC0000
07FFFE0000
0FFFFF0000
1FE07F8000
1F801F8000
3F000FC000
3E0007C000
7E0003E000
7C0003E000
7C0003E000
7C0003F000
FC0001F000
F80001F000
F80001F000
F80001F000
F80001F000
F80001F000
F80001F000
F80001F000
F80001F000
F80001F000
F80001F000
F80001F000
F80001F000
F80001F000
F80001F000
F80001F000
F80001F000
F80001F000
F80001F000
F80001F000
F80001F000
F80001F000
F80001F000
F80001F000
F80001F000
F80001F000
F80001F000
F80001F000
F80001F000
F80001F000
FFFFFFFF80
FFFFFFFF80
FFFFFFFF80
FFFFFFFF80
FFFFFFFF80
0000000000
0000000000
0000000000
0000000000
0000000000
0000000000
0000000000
0000000000
0000000000
001F800000
003FC00000
003FC00000
003FE00000
003FE00000
003FE00000
003FC00000
001F800000
0006000000
ENDCHAR
STARTCHAR 1EAE
ENCODING 7854
SWIDTH 540 0
DWIDTH 36 0
BBX 33 68 3 0
BITMAP
00007C0000
0000780000
0000F80000
0001F00000
0001E00000
0003C00000
0003800000
0007800000
000F000000
07801E0000
07801E0000
03801C0000
03C03C0000
01E0780000
00FFF80000
007FF00000
003FC00000
0000000000
0000000000
0000000000
000F000000
00FFF00000
01FFFC0000
07FFFE0000
0FFFFF0000
1FE07F8000
1F801F8000
3F000FC000
3E0007C000
7E0003E000
7C0003E000
7C0003E000
7C0003F000
FC0001F000
F80001F000
F80001F000
F80001F000
F80001F000
F80001F000
F80001F000
F80001F000
F80001F000
F80001F000
F80001F000
F80001F000
F80001F000
F80001F000
F80001F000
F80001F000
F80001F000
F80001F000
F80001F000
F80001F000
F80001F000
F80001F000
F80001F000
F80001F000
F80001F000
F80001F000
F80001F000
F80001F000
F80001F000
F80001F000
FFFFFFFF80
FFFFFFFF80
FFFFFFFF80
FFFFFFFF80
FFFFFFFF80
ENDCHAR
STARTCHAR 1EAF
ENCODING 7855
SWIDTH 540 0
DWIDTH 36 0
BBX 33 68 3 0
BITMAP
00007C0000
0000780000
0000F80000
0001F00000
0001E00000
0003C00000
0003800000
0007800000
000F000000
07801E0000
07801E0000
03801C0000
03C03C0000
01E0780000
00FFF80000
007FF00000
003FC00000
0000000000
0000000000
0000000000
000F000000
00FFF00000
01FFFC0000
07FFFE0000
0FFFFF0000
1FE07F8000
1F801F8000
3F000FC000
3E0007C000
7E0003E000
7C0003E000
7C0003E000
7C0003F000
FC0001F000
F80001F000
F80001F000
F80001F000
F80001F000
F80001F000
F80001F000
F80001F000
F80001F000
F80001F000
F80001F000
F80001F000
F80001F000
F80001F000
F80001F000
F80001F000
F80001F000
F80001F000
F80001F000
F80001F000
F80001F000
F80001F000
F80001F000
F80001F000
F80001F000
F80001F000
F80001F000
F80001F000
F80001F000
F80001F000
FFFFFFFF80
FFFFFFFF80
FFFFFFFF80
FFFFFFFF80
FFFFFFFF80
ENDCHAR
STARTCHAR 1EB0
ENCODING 7856
SWIDTH 540 0
DWIDTH 36 0
BBX 33 68 3 0
BITMAP
07C0000000
03C0000000
03E0000000
01E0000000
00F0000000
0078000000
0078000000
003C000000
001E000000
07801E0000
07801E0000
03801C0000
03C03C0000
01E0780000
00FFF80000
007FF00000
003FC00000
0000000000
0000000000
0000000000
000F000000
00FFF00000
01FFFC0000
07FFFE0000
0FFFFF0000
1FE07F8000
1F801F8000
3F000FC000
3E0007C000
7E0003E000
7C0003E000
7C0003E000
7C0003F000
FC0001F000
F80001F000
F80001F000
F80001F000
F80001F000
F80001F000
F80001F000
F80001F000
F80001F000
F80001F000
F80001F000
F80001F000
F80001F000
F80001F000
F80001F000
F80001F000
F80001F000
F80001F000
F80001F000
F80001F000
F80001F000
F80001F000
F80001F000
F80001F000
F80001F000
F80001F000
F80001F000
F80001F000
F80001F000
F80001F000
FFFFFFFF80
FFFFFFFF80
FFFFFFFF80
FFFFFFFF80
FFFFFFFF80
ENDCHAR
STARTCHAR 1EB1
ENCODING 7857
SWIDTH 540 0
DWIDTH 36 0
BBX 33 68 3 0
BITMAP
07C0000000
03C0000000
03E0000000
01E0000000
00F0000000
0078000000
0078000000
003C000000
001E000000
07801E0000
07801E0000
03801C0000
03C03C0000
01E0780000
00FFF80000
007FF00000
003FC00000
0000000000
0000000000
0000000000
000F000000
00FFF00000
01FFFC0000
07FFFE0000
0FFFFF0000
1FE07F8000
1F801F8000
3F000FC000
3E0007C000
7E0003E000
7C0003E000
7C0003E000
7C0003F000
FC0001F000
F80001F000
F80001F000
F80001F000
F80001F000
F80001F000
F80001F000
F80001F000
F80001F000
F80001F000
F80001F000
F80001F000
F80001F000
F80001F000
F80001F000
F80001F000
F80001F000
F80001F000
F80001F000
F80001F000
F80001F000
F80001F000
F80001F000
F80001F000
F80001F000
F80001F000
F80001F000
F80001F000
F80001F000
F80001F000
FFFFFFFF80
FFFFFFFF80
FFFFFFFF80
FFFFFFFF80
FFFFFFFF80
ENDCHAR
STARTCHAR 1EB2
ENCODING 7858
SWIDTH 540 0
DWIDTH 36 0
BBX 33 69 3 0
BITMAP
0003800000
0003800000
0003800000
0003800000
0003800000
0007800000
0007000000
000F000000
000F000000
000F000000
07871E0000
07871E0000
03801C0000
03C03C0000
01E0780000
00FFF80000
007FF00000
003FC00000
0000000000
0000000000
0000000000
000F000000
00FFF00000
01FFFC0000
07FFFE0000
0FFFFF0000
1FE07F8000
1F801F8000
3F000FC000
3E0007C000
7E0003E000
7C0003E000
7C0003E000
7C0003F000
FC0001F000
F80001F000
F80001F000
F80001F000
F80001F000
F80001F000
F80001F000
F80001F000
F80001F000
F80001F000
F80001F000
F80001F000
F80001F000
F80001F000
F80001F000
F80001F000
F80001F000
F80001F000
F80001F000
F80001F000
F80001F000
F80001F000
F80001F000
F80001F000
F80001F000
F80001F000
F80001F000
F80001F000
F80001F000
F80001F000
FFFFFFFF80
FFFFFFFF80
FFFFFFFF80
FFFFFFFF80
FFFFFFFF80
ENDCHAR
STARTCHAR 1EB3
ENCODING 7859
SWIDTH 540 0
DWIDTH 36 0
BBX 33 69 3 0
BITMAP
0003800000
0003800000
0003800000
0003800000
0003800000
0007800000
0007000000
000F000000
000F000000
000F000000
07871E0000
07871E0000
03801C0000
03C03C0000
01E0780000
00FFF80000
007FF00000
003FC00000
0000000000
0000000000
0000000000
000F000000
00FFF00000
01FFFC0000
07FFFE0000
0FFFFF0000
1FE07F8000
1F801F8000
3F000FC000
3E0007C000
7E0003E000
7C0003E000
7C0003E000
7C0003F000
FC0001F000
F80001F000
F80001F000
F80001F000
F80001F000
F80001F000
F80001F000
F80001F000
F80001F000
F80001F000
F80001F000
F80001F000
F80001F000
F80001F000
F80001F000
F80001F000
F80001F000
F80001F000
F80001F000
F80001F000
F80001F000
F80001F000
F80001F000
F80001F000
F80001F000
F80001F000
F80001F000
F80001F000
F80001F000
F80001F000
FFFFFFFF80
FFFFFFFF80
FFFFFFFF80
FFFFFFFF80
FFFFFFFF80
ENDCHAR
STARTCHAR 1EB4
ENCODING 7860
SWIDTH 540 0
DWIDTH 36 0
BBX 33 66 3 0
BITMAP
03FE000000
03FFFC0000
03FFFC0000
0207FC0000
0000600000
0000000000
0000000000
07801E0000
07801E0000
03801C0000
03C03C0000
01E0780000
00FFF80000
007FF00000
003FC00000
0000000000
0000000000
0000000000
000F000000
00FFF00000
01FFFC0000
07FFFE0000
0FFFFF0000
1FE07F8000
1F801F8000
3F000FC000
3E0007C000
7E0003E000
7C0003E000
7C0003E000
7C0003F000
FC0001F000
F80001F000
F80001F000
F80001F000
F80001F000
F80001F000
F80001F000
F80001F000
F80001F000
F80001F000
F80001F000
F80001F000
F80001F000
F80001F000
F80001F000
F80001F000
F80001F000
F80001F000
F80001F000
F80001F000
F80001F000
F80001F000
F80001F000
F80001F000
F80001F000
F80001F000
F80001F000
F80001F000
F80001F000
F80001F000
FFFFFFFF80
FFFFFFFF80
FFFFFFFF80
FFFFFFFF80
FFFFFFFF80
ENDCHAR
STARTCHAR 1EB5
ENCODING 7861
SWIDTH 540 0
DWIDTH 36 0
BBX 33 66 3 0
BITMAP
03FE000000
03FFFC0000
03FFFC0000
0207FC0000
0000600000
0000000000
0000000000
07801E0000
07801E0000
03801C0000
03C03C0000
01E0780000
00FFF80000
007FF00000
003FC00000
0000000000
0000000000
0000000000
000F000000
00FFF00000
01FFFC0000
07FFFE0000
0FFFFF0000
1FE07F8000
1F801F8000
3F000FC000
3E0007C000
7E0003E000
7C0003E000
7C0003E000
7C0003F000
FC0001F000
F80001F000
F80001F000
F80001F000
F80001F000
F80001F000
F80001F000
F80001F000
F80001F000
F80001F000
F80001F000
F80001F000
F80001F000
F80001F000
F80001F000
F80001F000
F80001F000
F80001F000
F80001F000
F80001F000
F80001F000
F80001F000
F80001F000
F80001F000
F80001F000
F80001F000
F80001F000
F80001F000
F80001F000
F80001F000
FFFFFFFF80
FFFFFFFF80
FFFFFFFF80
FFFFFFFF80
FFFFFFFF80
ENDCHAR
STARTCHAR 1EB6
ENCODING 7862
SWIDTH 540 0
DWIDTH 36 0
BBX 33 77 3 -18
BITMAP
07801E0000
07801E0000
03801C0000
03C03C0000
01E0780000
00FFF80000
007FF00000
003FC00000
0000000000
0000000000
0000000000
000F000000
00FFF00000
01FFFC0000
07FFFE0000
0FFFFF0000
1FE07F8000
1F801F8000
3F000FC000
3E0007C000
7E0003E000
7C0003E000
7C0003E000
7C0003F000
FC0001F000
F80001F000
F80001F000
F80001F000
F80001F000
F80001F000
F80001F000
F80001F000
F80001F000
F80001F000
F80001F000
F80001F000
F80001F000
F80001F000
F80001F000
F80001F000
F80001F000
F80001F000
F80001F000
F80001F000
F80001F000
F80001F000
F80001F000
F80001F000
F80001F000
F80001F000
F80001F000
F80001F000
F80001F000
F80001F000
FFFFFFFF80
FFFFFFFF80
FFFFFFFF80
FFFFFFFF80
FFFFFFFF80
0000000000
0000000000
0000000000
0000000000
0000000000
0000000000
0000000000
0000000000
0000000000
001F800000
003FC00000
003FC00000
003FE00000
003FE00000
003FE00000
003FC00000
001F800000
0006000000
ENDCHAR
STARTCHAR 1EB7
ENCODING 7863
SWIDTH 540 0
DWIDTH 36 0
BBX 33 77 3 -18
BITMAP
07801E0000
07801E0000
03801C0000
03C03C0000
01E0780000
00FFF80000
007FF00000
003FC00000
0000000000
0000000000
0000000000
000F000000
00FFF00000
01FFFC0000
07FFFE0000
0FFFFF0000
1FE07F8000
1F801F8000
3F000FC000
3E0007C000
7E0003E000
7C0003E000
7C0003E000
7C0003F000
FC0001F000
F80001F000
F80001F000
F80001F000
F80001F000
F80001F000
F80001F000
F80001F000
F80001F000
F80001F000
F80001F000
F80001F000
F80001F000
F80001F000
F80001F000
F80001F000
F80001F000
F80001F000
F80001F000
F80001F000
F80001F000
F80001F000
F80001F000
F80001F000
F80001F000
F80001F000
F80001F000
F80001F000
F80001F000
F80001F000
FFFFFFFF80
FFFFFFFF80
FFFFFFFF80
FFFFFFFF80
FFFFFFFF80
0000000000
0000000000
0000000000
0000000000
0000000000
0000000000
0000000000
0000000000
0000000000
001F800000
003FC00000
003FC00000
003FE00000
003FE00000
003FE00000
003FC00000
001F800000
0006000000
ENDCHAR
STARTCHAR 1EB8
ENCODING 7864
SWIDTH 480 0
DWIDTH 32 0
BBX 31 65 1 -18
BITMAP
07FFFF00
07FFFF00
07FFFF00
07FFFF00
07FFFF00
07C00000
07C00000
07C00000
07C00000
07C00000
07C00000
07C00000
07C00000
07C00000
07C00000
07C00000
07C00000
07C00000
07C00000
07C00000
07C00000
FFFFFFE0
FFFFFFE0
FFFFFFE0
FFFFFFE0
FFFFFFE0
07C00000
07C00000
07C00000
07C00000
07C00000
07C00000
07C00000
07C00000
07C00000
07C00000
07C00000
07C00000
07C00000
07C00000
07C00000
07C00000
07FFFFFE
07FFFFFE
07FFFFFE
07FFFFFE
07FFFFFE
00000000
00000000
00000000
00000000
00000000
00000000
00000000
00000000
00000000
0000FC00
0001FE00
0001FE00
0001FF00
0003FF00
0001FF00
0001FE00
0000FC00
00003000
ENDCHAR
STARTCHAR 1EB9
ENCODING 7865
SWIDTH 480 0
DWIDTH 32 0
BBX 31 65 1 -18
BITMAP
07FFFF00
07FFFF00
07FFFF00
07FFFF00
07FFFF00
07C00000
07C00000
07C00000
07C00000
07C00000
07C00000
07C00000
07C00000
07C00000
07C00000
07C00000
07C00000
07C00000
07C00000
07C00000
07C00000
FFFFFFE0
FFFFFFE0
FFFFFFE0
FFFFFFE0
FFFFFFE0
07C00000
07C00000
07C00000
07C00000
07C00000
07C00000
07C00000
07C00000
07C00000
07C00000
07C00000
07C00000
07C00000
07C00000
07C00000
07C00000
07FFFFFE
07FFFFFE
07FFFFFE
07FFFFFE
07FFFFFE
00000000
00000000
00000000
00000000
00000000
00000000
00000000
00000000
00000000
0000FC00
0001FE00
0001FE00
0001FF00
0003FF00
0001FF00
0001FE00
0000FC00
00003000
ENDCHAR
STARTCHAR 1EBA
ENCODING 7866
SWIDTH 480 0
DWIDTH 32 0
BBX 31 63 1 0
BITMAP
00070000
00078000
00078000
00078000
00078000
00070000
000F0000
000E0000
000E0000
000E0000
000E0000
000F0000
00000000
00000000
00000000
00000000
07FFFF00
07FFFF00
07FFFF00
07FFFF00
07FFFF00
07C00000
07C00000
07C00000
07C00000
07C00000
07C00000
07C00000
07C00000
07C00000
07C00000
07C00000
07C00000
07C00000
07C00000
07C00000
07C00000
FFFFFFE0
FFFFFFE0
FFFFFFE0
FFFFFFE0
FFFFFFE0
07C00000
07C00000
07C00000
07C00000
07C00000
07C00000
07C00000
07C00000
07C00000
07C00000
07C00000
07C00000
07C00000
07C00000
07C00000
07C00000
07FFFFFE
07FFFFFE
07FFFFFE
07FFFFFE
07FFFFFE
ENDCHAR
STARTCHAR 1EBB
ENCODING 7867
SWIDTH 480 0
DWIDTH 32 0
BBX 31 63 1 0
BITMAP
00070000
00078000
00078000
00078000
00078000
00070000
000F0000
000E0000
000E0000
000E0000
000E0000
000F0000
00000000
00000000
00000000
00000000
07FFFF00
07FFFF00
07FFFF00
07FFFF00
07FFFF00
07C00000
07C00000
07C00000
07C00000
07C00000
07C00000
07C00000
07C00000
07C00000
07C00000
07C00000
07C00000
07C00000
07C00000
07C00000
07C00000
FFFFFFE0
FFFFFFE0
FFFFFFE0
FFFFFFE0
FFFFFFE0
07C00000
07C00000
07C00000
07C00000
07C00000
07C00000
07C00000
07C00000
07C00000
07C00000
07C00000
07C00000
07C00000
07C00000
07C00000
07C00000
07FFFFFE
07FFFFFE
07FFFFFE
07FFFFFE
07FFFFFE
ENDCHAR
STARTCHAR 1EBC
ENCODING 7868
SWIDTH 480 0
DWIDTH 32 0
BBX 31 59 1 0
BITMAP
00600000
03FC0800
03FFF800
03FFF800
0007F800
00000000
00000000
00000000
00000000
00000000
00000000
00000000
07FFFF00
07FFFF00
07FFFF00
07FFFF00
07FFFF00
07C00000
07C00000
07C00000
07C00000
07C00000
07C00000
07C00000
07C00000
07C00000
07C00000
07C00000
07C00000
07C00000
07C00000
07C00000
07C00000
FFFFFFE0
FFFFFFE0
FFFFFFE0
FFFFFFE0
FFFFFFE0
07C00000
07C00000
07C00000
07C00000
07C00000
07C00000
07C00000
07C00000
07C00000
07C00000
07C00000
07C00000
07C00000
07C00000
07C00000
07C00000
07FFFFFE
07FFFFFE
07FFFFFE
07FFFFFE
07FFFFFE
ENDCHAR
STARTCHAR 1EBD
ENCODING 7869
SWIDTH 480 0
DWIDTH 32 0
BBX 31 59 1 0
BITMAP
00600000
03FC0800
03FFF800
03FFF800
0007F800
00000000
00000000
00000000
00000000
00000000
00000000
00000000
07FFFF00
07FFFF00
07FFFF00
07FFFF00
07FFFF00
07C00000
07C00000
07C00000
07C00000
07C00000
07C00000
07C00000
07C00000
07C00000
07C00000
07C00000
07C00000
07C00000
07C00000
07C00000
07C00000
FFFFFFE0
FFFFFFE0
FFFFFFE0
FFFFFFE0
FFFFFFE0
07C00000
07C00000
07C00000
07C00000
07C00000
07C00000
07C00000
07C00000
07C00000
07C00000
07C00000
07C00000
07C00000
07C00000
07C00000
07C00000
07FFFFFE
07FFFFFE
07FFFFFE
07FFFFFE
07FFFFFE
ENDCHAR
STARTCHAR 1EBE
ENCODING 7870
SWIDTH 480 0
DWIDTH 32 0
BBX 32 65 1 0
BITMAP
0000001F
0000003E
0000003C
00000078
00000078
000000F0
001FC1E0
003FE1C0
007DF000
0078F000
00F0F800
01F07C00
03E03E00
07C01F00
00000000
00000000
00000000
00000000
07FFFF00
07FFFF00
07FFFF00
07FFFF00
07FFFF00
07C00000
07C00000
07C00000
07C00000
07C00000
07C00000
07C00000
07C00000
07C00000
07C00000
07C00000
07C00000
07C00000
07C00000
07C00000
07C00000
FFFFFFE0
FFFFFFE0
FFFFFFE0
FFFFFFE0
FFFFFFE0
07C00000
07C00000
07C00000
07C00000
07C00000
07C00000
07C00000
07C00000
07C00000
07C00000
07C00000
07C00000
07C00000
07C00000
07C00000
07C00000
07FFFFFE
07FFFFFE
07FFFFFE
07FFFFFE
07FFFFFE
ENDCHAR
STARTCHAR 1EBF
ENCODING 7871
SWIDTH 480 0
DWIDTH 32 0
BBX 32 65 1 0
BITMAP
0000001F
0000003E
0000003C
00000078
00000078
000000F0
001FC1E0
003FE1C0
007DF000
0078F000
00F0F800
01F07C00
03E03E00
07C01F00
00000000
00000000
00000000
00000000
07FFFF00
07FFFF00
07FFFF00
07FFFF00
07FFFF00
07C00000
07C00000
07C00000
07C00000
07C00000
07C00000
07C00000
07C00000
07C00000
07C00000
07C00000
07C00000
07C00000
07C00000
07C00000
07C00000
FFFFFFE0
FFFFFFE0
FFFFFFE0
FFFFFFE0
FFFFFFE0
07C00000
07C00000
07C00000
07C00000
07C00000
07C00000
07C00000
07C00000
07C00000
07C00000
07C00000
07C00000
07C00000
07C00000
07C00000
07C00000
07FFFFFE
07FFFFFE
07FFFFFE
07FFFFFE
07FFFFFE
ENDCHAR
STARTCHAR 1EC0
ENCODING 7872
SWIDTH 480 0
DWIDTH 32 0
BBX 35 65 -3 0
BITMAP
F800000000
7800000000
3C00000000
3E00000000
1E00000000
0F00000000
0701FC0000
0783FE0000
0007DF0000
00078F0000
000F0F8000
001E07C000
003E03E000
007C01F000
0000000000
0000000000
0000000000
0000000000
007FFFF000
007FFFF000
007FFFF000
007FFFF000
007FFFF000
007C000000
007C000000
007C000000
007C000000
007C000000
007C000000
007C000000
007C000000
007C000000
007C000000
007C000000
007C000000
007C000000
007C000000
007C000000
007C000000
0FFFFFFE00
0FFFFFFE00
0FFFFFFE00
0FFFFFFE00
0FFFFFFE00
007C000000
007C000000
007C000000
007C000000
007C000000
007C000000
007C000000
007C000000
007C000000
007C000000
007C000000
007C000000
007C000000
007C000000
007C000000
007C000000
007FFFFFE0
007FFFFFE0
007FFFFFE0
007FFFFFE0
007FFFFFE0
ENDCHAR
STARTCHAR 1EC1
ENCODING 7873
SWIDTH 480 0
DWIDTH 32 0
BBX 35 65 -3 0
BITMAP
F800000000
7800000000
3C00000000
3E00000000
1E00000000
0F00000000
0701FC0000
0783FE0000
0007DF0000
00078F0000
000F0F8000
001E07C000
003E03E000
007C01F000
0000000000
0000000000
0000000000
0000000000
007FFFF000
007FFFF000
007FFFF000
007FFFF000
007FFFF000
007C000000
007C000000
007C000000
007C000000
007C000000
007C000000
007C000000
007C000000
007C000000
007C000000
007C000000
007C000000
007C000000
007C000000
007C000000
007C000000
0FFFFFFE00
0FFFFFFE00
0FFFFFFE00
0FFFFFFE00
0FFFFFFE00
007C000000
007C000000
007C000000
007C000000
007C000000
007C000000
007C000000
007C000000
007C000000
007C000000
007C000000
007C000000
007C000000
007C000000
007C000000
007C000000
007FFFFFE0
007FFFFFE0
007FFFFFE0
007FFFFFE0
007FFFFFE0
ENDCHAR
STARTCHAR 1EC2
ENCODING 7874
SWIDTH 480 0
DWIDTH 32 0
BBX 31 69 1 0
BITMAP
000001C0
000001E0
000000E0
000000E0
000000E0
000001E0
000001C0
000003C0
000003C0
000003C0
001FC3C0
003FE3C0
007DF1C0
0078F000
00F0F800
01F07C00
03E03E00
07C01F00
00000000
00000000
00000000
00000000
07FFFF00
07FFFF00
07FFFF00
07FFFF00
07FFFF00
07C00000
07C00000
07C00000
07C00000
07C00000
07C00000
07C00000
07C00000
07C00000
07C00000
07C00000
07C00000
07C00000
07C00000
07C00000
07C00000
FFFFFFE0
FFFFFFE0
FFFFFFE0
FFFFFFE0
FFFFFFE0
07C00000
07C00000
07C00000
07C00000
07C00000
07C00000
07C00000
07C00000
07C00000
07C00000
07C00000
07C00000
07C00000
07C00000
07C00000
07C00000
07FFFFFE
07FFFFFE
07FFFFFE
07FFFFFE
07FFFFFE
ENDCHAR
STARTCHAR 1EC3
ENCODING 7875
SWIDTH 480 0
DWIDTH 32 0
BBX 31 69 1 0
BITMAP
000001C0
000001E0
000000E0
000000E0
000000E0
000001E0
000001C0
000003C0
000003C0
000003C0
001FC3C0
003FE3C0
007DF1C0
0078F000
00F0F800
01F07C00
03E03E00
07C01F00
00000000
00000000
00000000
00000000
07FFFF00
07FFFF00
07FFFF00
07FFFF00
07FFFF00
07C00000
07C00000
07C00000
07C00000
07C00000
07C00000
07C00000
07C00000
07C00000
07C00000
07C00000
07C00000
07C00000
07C00000
07C00000
07C00000
FFFFFFE0
FFFFFFE0
FFFFFFE0
FFFFFFE0
FFFFFFE0
07C00000
07C00000
07C00000
07C00000
07C00000
07C00000
07C00000
07C00000
07C00000
07C00000
07C00000
07C00000
07C00000
07C00000
07C00000
07C00000
07FFFFFE
07FFFFFE
07FFFFFE
07FFFFFE
07FFFFFE
ENDCHAR
STARTCHAR 1EC4
ENCODING 7876
SWIDTH 480 0
DWIDTH 32 0
BBX 31 66 1 0
BITMAP
0000F800
0003FF9C
0003FFFC
0003DFFC
000001F8
00000000
00000000
001FC000
003FE000
007DF000
0078F000
00F0F800
01F07C00
03E03E00
07C01F00
00000000
00000000
00000000
00000000
07FFFF00
07FFFF00
07FFFF00
07FFFF00
07FFFF00
07C00000
07C00000
07C00000
07C00000
07C00000
07C00000
07C00000
07C00000
07C00000
07C00000
07C00000
07C00000
07C00000
07C00000
07C00000
07C00000
FFFFFFE0
FFFFFFE0
FFFFFFE0
FFFFFFE0
FFFFFFE0
07C00000
07C00000
07C00000
07C00000
07C00000
07C00000
07C00000
07C00000
07C00000
07C00000
07C00000
07C00000
07C00000
07C00000
07C00000
07C00000
07FFFFFE
07FFFFFE
07FFFFFE
07FFFFFE
07FFFFFE
ENDCHAR
STARTCHAR 1EC5
ENCODING 7877
SWIDTH 480 0
DWIDTH 32 0
BBX 31 66 1 0
BITMAP
0000F800
0003FF9C
0003FFFC
0003DFFC
000001F8
00000000
00000000
001FC000
003FE000
007DF000
0078F000
00F0F800
01F07C00
03E03E00
07C01F00
00000000
00000000
00000000
00000000
07FFFF00
07FFFF00
07FFFF00
07FFFF00
07FFFF00
07C00000
07C00000
07C00000
07C00000
07C00000
07C00000
07C00000
07C00000
07C00000
07C00000
07C00000
07C00000
07C00000
07C00000
07C00000
07C00000
FFFFFFE0
FFFFFFE0
FFFFFFE0
FFFFFFE0
FFFFFFE0
07C00000
07C00000
07C00000
07C00000
07C00000
07C00000
07C00000
07C00000
07C00000
07C00000
07C00000
07C00000
07C00000
07C00000
07C00000
07C00000
07FFFFFE
07FFFFFE
07FFFFFE
07FFFFFE
07FFFFFE
ENDCHAR
STARTCHAR 1EC6
ENCODING 7878
SWIDTH 480 0
DWIDTH 32 0
BBX 31 77 1 -18
BITMAP
001FC000
003FE000
007DF000
0078F000
00F0F800
01F07C00
03E03E00
07C01F00
00000000
00000000
00000000
00000000
07FFFF00
07FFFF00
07FFFF00
07FFFF00
07FFFF00
07C00000
07C00000
07C00000
07C00000
07C00000
07C00000
07C00000
07C00000
07C00000
07C00000
07C00000
07C00000
07C00000
07C00000
07C00000
07C00000
FFFFFFE0
FFFFFFE0
FFFFFFE0
FFFFFFE0
FFFFFFE0
07C00000
07C00000
07C00000
07C00000
07C00000
07C00000
07C00000
07C00000
07C00000
07C00000
07C00000
07C00000
07C00000
07C00000
07C00000
07C00000
07FFFFFE
07FFFFFE
07FFFFFE
07FFFFFE
07FFFFFE
00000000
00000000
00000000
00000000
00000000
00000000
00000000
00000000
00000000
0000FC00
0001FE00
0001FE00
0001FF00
0003FF00
0001FF00
0001FE00
0000FC00
00003000
ENDCHAR
STARTCHAR 1EC7
ENCODING 7879
SWIDTH 480 0
DWIDTH 32 0
BBX 31 77 1 -18
BITMAP
001FC000
003FE000
007DF000
0078F000
00F0F800
01F07C00
03E03E00
07C01F00
00000000
00000000
00000000
00000000
07FFFF00
07FFFF00
07FFFF00
07FFFF00
07FFFF00
07C00000
07C00000
07C00000
07C00000
07C00000
07C00000
07C00000
07C00000
07C00000
07C00000
07C00000
07C00000
07C00000
07C00000
07C00000
07C00000
FFFFFFE0
FFFFFFE0
FFFFFFE0
FFFFFFE0
FFFFFFE0
07C00000
07C00000
07C00000
07C00000
07C00000
07C00000
07C00000
07C00000
07C00000
07C00000
07C00000
07C00000
07C00000
07C00000
07C00000
07C00000
07FFFFFE
07FFFFFE
07FFFFFE
07FFFFFE
07FFFFFE
00000000
00000000
00000000
00000000
00000000
00000000
00000000
00000000
00000000
0000FC00
0001FE00
0001FE00
0001FF00
0003FF00
0001FF00
0001FE00
0000FC00
00003000
ENDCHAR
STARTCHAR 1EC8
ENCODING 7880
SWIDTH 165 0
DWIDTH 11 0
BBX 5 45 3 0
BITMAP
78
38
38
38
38
78
70
F0
F0
F0
F0
70
00
00
00
00
F8
F8
F8
F8
F8
F8
F8
F8
F8
F8
F8
F8
F8
F8
F8
F8
F8
F8
F8
F8
F8
F8
F8
F8
F8
F8
F8
F8
F8
ENDCHAR
STARTCHAR 1EC9
ENCODING 7881
SWIDTH 165 0
DWIDTH 11 0
BBX 5 45 3 0
BITMAP
78
38
38
38
38
78
70
F0
F0
F0
F0
70
00
00
00
00
F8
F8
F8
F8
F8
F8
F8
F8
F8
F8
F8
F8
F8
F8
F8
F8
F8
F8
F8
F8
F8
F8
F8
F8
F8
F8
F8
F8
F8
ENDCHAR
STARTCHAR 1ECA
ENCODING 7882
SWIDTH 165 0
DWIDTH 11 0
BBX 16 71 -2 -18
BITMAP
0100
0100
0100
0180
0380
0380
FFFF
7FFC
1FF8
0FE0
0FE0
0FE0
0EF0
1C70
1010
0008
0000
0000
0000
0000
0000
0000
0000
0000
07C0
07C0
07C0
07C0
07C0
07C0
07C0
07C0
07C0
07C0
07C0
07C0
07C0
07C0
07C0
07C0
07C0
07C0
07C0
07C0
07C0
07C0
07C0
07C0
07C0
07C0
07C0
07C0
07C0
0000
0000
0000
0000
0000
0000
0000
0000
0000
07C0
0FE0
1FF0
1FF0
1FF0
1FF0
0FF0
0FE0
0380
ENDCHAR
STARTCHAR 1ECB
ENCODING 7883
SWIDTH 165 0
DWIDTH 11 0
BBX 16 71 -2 -18
BITMAP
0100
0100
0100
0180
0380
0380
FFFF
7FFC
1FF8
0FE0
0FE0
0FE0
0EF0
1C70
1010
0008
0000
0000
0000
0000
0000
0000
0000
0000
07C0
07C0
07C0
07C0
07C0
07C0
07C0
07C0
07C0
07C0
07C0
07C0
07C0
07C0
07C0
07C0
07C0
07C0
07C0
07C0
07C0
07C0
07C0
07C0
07C0
07C0
07C0
07C0
07C0
0000
0000
0000
0000
0000
0000
0000
0000
0000
07C0
0FE0
1FF0
1FF0
1FF0
1FF0
0FF0
0FE0
0380
ENDCHAR
STARTCHAR 1ECC
ENCODING 7884
SWIDTH 810 0
DWIDTH 54 0
BBX 50 66 2 -18
BITMAP
000001F0000000
00007FFF800000
0003FFFFF00000
000FFFFFFC0000
001FFFFFFE0000
007FF003FF8000
00FF80007FC000
01FE00001FE000
03F8000007F000
07F0000003F800
07E0000001FC00
0FC0000000FC00
1F800000007E00
1F000000003E00
3F000000003F00
3E000000001F00
7E000000001F80
7C000000000F80
7C000000000F80
7C000000000F80
FC0000000007C0
F80000000007C0
F80000000007C0
F80000000007C0
F80000000007C0
F80000000007C0
F80000000007C0
F80000000007C0
F80000000007C0
7C000000000FC0
7C000000000F80
7C000000000F80
7E000000001F80
3E000000001F00
3F000000003F00
1F000000003F00
1F800000007E00
0FC0000000FC00
0FE0000001FC00
07F0000003F800
03F8000007F000
01FC00000FE000
00FF00003FC000
007FE001FF8000
003FFFFFFF0000
000FFFFFFC0000
0003FFFFF00000
0000FFFFC00000
00000FFC000000
00000000000000
00000000000000
00000000000000
00000000000000
00000000000000
00000000000000
00000000000000
00000000000000
000003F0000000
000007F8000000
000007F8000000
00000FFC000000
00000FFC000000
000007F8000000
000007F8000000
000003F0000000
000000C0000000
ENDCHAR
STARTCHAR 1ECD
ENCODING 7885
SWIDTH 810 0
DWIDTH 54 0
BBX 50 66 2 -18
BITMAP
000001F0000000
00007FFF800000
0003FFFFF00000
000FFFFFFC0000
001FFFFFFE0000
007FF003FF8000
00FF80007FC000
01FE00001FE000
03F8000007F000
07F0000003F800
07E0000001FC00
0FC0000000FC00
1F800000007E00
1F000000003E00
3F000000003F00
3E000000001F00
7E000000001F80
7C000000000F80
7C000000000F80
7C000000000F80
FC0000000007C0
F80000000007C0
F80000000007C0
F80000000007C0
F80000000007C0
F80000000007C0
F80000000007C0
F80000000007C0
F80000000007C0
7C000000000FC0
7C000000000F80
7C000000000F80
7E000000001F80
3E000000001F00
3F000000003F00
1F000000003F00
1F800000007E00
0FC0000000FC00
0FE0000001FC00
07F0000003F800
03F8000007F000
01FC00000FE000
00FF00003FC000
007FE001FF8000
003FFFFFFF0000
000FFFFFFC0000
0003FFFFF00000
0000FFFFC00000
00000FFC000000
00000000000000
00000000000000
00000000000000
00000000000000
00000000000000
00000000000000
00000000000000
00000000000000
000003F0000000
000007F8000000
000007F8000000
00000FFC000000
00000FFC000000
000007F8000000
000007F8000000
000003F0000000
000000C0000000
ENDCHAR
STARTCHAR 1ECE
ENCODING 7886
SWIDTH 810 0
DWIDTH 54 0
BBX 50 64 2 -1
BITMAP
000000E0000000
000000E0000000
000000F0000000
000000E0000000
000000E0000000
000001E0000000
000001C0000000
000003C0000000
000003C0000000
000003C0000000
000001C0000000
000001C0000000
00000000000000
00000000000000
00000000000000
000001F0000000
00007FFF800000
0003FFFFF00000
000FFFFFFC0000
001FFFFFFE0000
007FF003FF8000
00FF80007FC000
01FE00001FE000
03F8000007F000
07F0000003F800
07E0000001FC00
0FC0000000FC00
1F800000007E00
1F000000003E00
3F000000003F00
3E000000001F00
7E000000001F80
7C000000000F80
7C000000000F80
7C000000000F80
FC0000000007C0
F80000000007C0
F80000000007C0
F80000000007C0
F80000000007C0
F80000000007C0
F80000000007C0
F80000000007C0
F80000000007C0
7C000000000FC0
7C000000000F80
7C000000000F80
7E000000001F80
3E000000001F00
3F000000003F00
1F000000003F00
1F800000007E00
0FC0000000FC00
0FE0000001FC00
07F0000003F800
03F8000007F000
01FC00000FE000
00FF00003FC000
007FE001FF8000
003FFFFFFF0000
000FFFFFFC0000
0003FFFFF00000
0000FFFFC00000
00000FFC000000
ENDCHAR
STARTCHAR 1ECF
ENCODING 7887
SWIDTH 810 0
DWIDTH 54 0
BBX 50 64 2 -1
BITMAP
000000E0000000
000000E0000000
000000F0000000
000000E0000000
000000E0000000
000001E0000000
000001C0000000
000003C0000000
000003C0000000
000003C0000000
000001C0000000
000001C0000000
00000000000000
00000000000000
00000000000000
000001F0000000
00007FFF800000
0003FFFFF00000
000FFFFFFC0000
001FFFFFFE0000
007FF003FF8000
00FF80007FC000
01FE00001FE000
03F8000007F000
07F0000003F800
07E0000001FC00
0FC0000000FC00
1F800000007E00
1F000000003E00
3F000000003F00
3E000000001F00
7E000000001F80
7C000000000F80
7C000000000F80
7C000000000F80
FC0000000007C0
F80000000007C0
F80000000007C0
F80000000007C0
F80000000007C0
F80000000007C0
F80000000007C0
F80000000007C0
F80000000007C0
7C000000000FC0
7C000000000F80
7C000000000F80
7E000000001F80
3E000000001F00
3F000000003F00
1F000000003F00
1F800000007E00
0FC0000000FC00
0FE0000001FC00
07F0000003F800
03F8000007F000
01FC00000FE000
00FF00003FC000
007FE001FF8000
003FFFFFFF0000
000FFFFFFC0000
0003FFFFF00000
0000FFFFC00000
00000FFC000000
ENDCHAR
STARTCHAR 1ED0
ENCODING 7888
SWIDTH 810 0
DWIDTH 54 0
BBX 50 66 2 -1
BITMAP
0000000003C000
0000000007C000
000000000F8000
000000000F0000
000000001E0000
000000001C0000
000003F83C0000
000007F8780000
00000FFC000000
00001F3E000000
00003E1F000000
00003C0F800000
00007807800000
0000F003C00000
00000000000000
00000000000000
00000000000000
000001F0000000
00007FFF800000
0003FFFFF00000
000FFFFFFC0000
001FFFFFFE0000
007FF003FF8000
00FF80007FC000
01FE00001FE000
03F8000007F000
07F0000003F800
07E0000001FC00
0FC0000000FC00
1F800000007E00
1F000000003E00
3F000000003F00
3E000000001F00
7E000000001F80
7C000000000F80
7C000000000F80
7C000000000F80
FC0000000007C0
F80000000007C0
F80000000007C0
F80000000007C0
F80000000007C0
F80000000007C0
F80000000007C0
F80000000007C0
F80000000007C0
7C000000000FC0
7C000000000F80
7C000000000F80
7E000000001F80
3E000000001F00
3F000000003F00
1F000000003F00
1F800000007E00
0FC0000000FC00
0FE0000001FC00
07F0000003F800
03F8000007F000
01FC00000FE000
00FF00003FC000
007FE001FF8000
003FFFFFFF0000
000FFFFFFC0000
0003FFFFF00000
0000FFFFC00000
00000FFC000000
ENDCHAR
STARTCHAR 1ED1
ENCODING 7889
SWIDTH 810 0
DWIDTH 54 0
BBX 50 66 2 -1
BITMAP
0000000003C000
0000000007C000
000000000F8000
000000000F0000
000000001E0000
000000001C0000
000003F83C0000
000007F8780000
00000FFC000000
00001F3E000000
00003E1F000000
00003C0F800000
00007807800000
0000F003C00000
00000000000000
00000000000000
00000000000000
000001F0000000
00007FFF800000
0003FFFFF00000
000FFFFFFC0000
001FFFFFFE0000
007FF003FF8000
00FF80007FC000
01FE00001FE000
03F8000007F000
07F0000003F800
07E0000001FC00
0FC0000000FC00
1F800000007E00
1F000000003E00
3F000000003F00
3E000000001F00
7E000000001F80
7C000000000F80
7C000000000F80
7C000000000F80
FC0000000007C0
F80000000007C0
F80000000007C0
F80000000007C0
F80000000007C0
F80000000007C0
F80000000007C0
F80000000007C0
F80000000007C0
7C000000000FC0
7C000000000F80
7C000000000F80
7E000000001F80
3E000000001F00
3F000000003F00
1F000000003F00
1F800000007E00
0FC0000000FC00
0FE0000001FC00
07F0000003F800
03F8000007F000
01FC00000FE000
00FF00003FC000
007FE001FF8000
003FFFFFFF0000
000FFFFFFC0000
0003FFFFF00000
0000FFFFC00000
00000FFC000000
ENDCHAR
STARTCHAR 1ED2
ENCODING 7890
SWIDTH 810 0
DWIDTH 54 0
BBX 50 66 2 -1
BITMAP
01E00000000000
01F00000000000
00F80000000000
00780000000000
003C0000000000
001C0000000000
001E03F8000000
000F07F8000000
00000FFC000000
00001F3E000000
00003E1F000000
00003C0F800000
00007807800000
0000F003C00000
00000000000000
00000000000000
00000000000000
000001F0000000
00007FFF800000
0003FFFFF00000
000FFFFFFC0000
001FFFFFFE0000
007FF003FF8000
00FF80007FC000
01FE00001FE000
03F8000007F000
07F0000003F800
07E0000001FC00
0FC0000000FC00
1F800000007E00
1F000000003E00
3F000000003F00
3E000000001F00
7E000000001F80
7C000000000F80
7C000000000F80
7C000000000F80
FC0000000007C0
F80000000007C0
F80000000007C0
F80000000007C0
F80000000007C0
F80000000007C0
F80000000007C0
F80000000007C0
F80000000007C0
7C000000000FC0
7C000000000F80
7C000000000F80
7E000000001F80
3E000000001F00
3F000000003F00
1F000000003F00
1F800000007E00
0FC0000000FC00
0FE0000001FC00
07F0000003F800
03F8000007F000
01FC00000FE000
00FF00003FC000
007FE001FF8000
003FFFFFFF0000
000FFFFFFC0000
0003FFFFF00000
0000FFFFC00000
00000FFC000000
ENDCHAR
ENDFONT
